<?xml version="1.0" encoding="utf-8"?>
<!-- Generator: Adobe Illustrator 17.0.0, SVG Export Plug-In . SVG Version: 6.00 Build 0)  -->
<!DOCTYPE svg PUBLIC "-//W3C//DTD SVG 1.1//EN" "http://www.w3.org/Graphics/SVG/1.1/DTD/svg11.dtd">
<svg version="1.1" xmlns="http://www.w3.org/2000/svg" xmlns:xlink="http://www.w3.org/1999/xlink" x="0px" y="0px" width="244px"
	 height="194.046px" viewBox="0 0 244 194.046" enable-background="new 0 0 244 194.046" xml:space="preserve">
<g id="Слой_2" display="none">
	<rect x="-72.5" y="-14.5" display="inline" fill="#D8DDB2" width="400" height="300"/>
	
		<image display="inline" overflow="visible" width="1366" height="768" xlink:href="E707CFC6.jpg"  transform="matrix(1 0 0 1 -494.167 -82.5)">
	</image>
</g>
<g id="Слой_1">
	<g>
		
			<radialGradient id="SVGID_1_" cx="135.3673" cy="45.7559" r="7.834" gradientTransform="matrix(1.022 0 0 1.022 -3.3257 1.7991)" gradientUnits="userSpaceOnUse">
			<stop  offset="0" style="stop-color:#572E0F"/>
			<stop  offset="0.5044" style="stop-color:#552D0F"/>
			<stop  offset="0.686" style="stop-color:#4E290F"/>
			<stop  offset="0.8155" style="stop-color:#43220E"/>
			<stop  offset="0.9195" style="stop-color:#32170E"/>
			<stop  offset="0.9982" style="stop-color:#1F0C0D"/>
		</radialGradient>
		<circle fill="url(#SVGID_1_)" cx="135.02" cy="48.562" r="8.007"/>
		<circle fill="#290E0F" cx="136.181" cy="47.853" r="1.946"/>
		<path fill="#AF8154" d="M137.077,42.185c-0.318-0.075-0.648-0.116-0.988-0.116c-1.924,0-3.742,1.335-4.097,3.014
			c0.957,0.856,2.14,1.125,2.14,1.125s0.003,0,0.009,0.005c0.658-0.697,1.59-1.134,2.626-1.134
			C137.225,44.242,137.264,42.848,137.077,42.185z"/>
		<path fill="#7D4E20" d="M136.407,52.799c1.748,0.267,3.808-0.966,4.264-2.431c-0.802-0.717-1.795-0.943-1.795-0.943
			s-0.002-0.002-0.006-0.004c-0.552,0.585-1.315,1.178-2.266,1.213C136.391,51.269,136.355,52.255,136.407,52.799z"/>
	</g>
	<g>
		
			<radialGradient id="SVGID_2_" cx="82.0659" cy="130.8887" r="7.4845" gradientTransform="matrix(1.022 0 0 1.022 -3.3257 1.7991)" gradientUnits="userSpaceOnUse">
			<stop  offset="0" style="stop-color:#572E0F"/>
			<stop  offset="0.5044" style="stop-color:#552D0F"/>
			<stop  offset="0.686" style="stop-color:#4E290F"/>
			<stop  offset="0.8155" style="stop-color:#43220E"/>
			<stop  offset="0.9195" style="stop-color:#32170E"/>
			<stop  offset="0.9982" style="stop-color:#1F0C0D"/>
		</radialGradient>
		<circle fill="url(#SVGID_2_)" cx="80.546" cy="135.568" r="7.649"/>
		<circle fill="#290E0F" cx="81.655" cy="134.89" r="1.859"/>
		<path fill="#AF8154" d="M82.511,129.475c-0.304-0.072-0.62-0.111-0.943-0.111c-1.838,0-3.576,1.275-3.915,2.88
			c0.915,0.818,2.045,1.075,2.045,1.075s0.003,0.001,0.008,0.004c0.629-0.665,1.52-1.083,2.509-1.083
			C82.652,131.44,82.69,130.109,82.511,129.475z"/>
		<path fill="#7D4E20" d="M81.87,139.616c1.67,0.256,3.639-0.923,4.074-2.322c-0.767-0.686-1.714-0.901-1.714-0.901
			s-0.002-0.002-0.006-0.004c-0.528,0.559-1.257,1.126-2.166,1.159C81.855,138.154,81.822,139.096,81.87,139.616z"/>
	</g>
	<g>
		<path fill="#FFFFFF" d="M175.038,85.336l-3.509-1.678c0,0-1.881,2.216-2.175,4.152l7.045,3.368"/>
		<path fill="#FFFFFF" d="M182.727,90.912c1.973-4.912-1.462-11.222-7.187-7.712c-2.018,1.237-2.604,3.038-3.246,4.576
			c-1.178,2.824-1.078,5.46-0.032,7.038C173.88,97.251,180.068,97.531,182.727,90.912z"/>
		<path fill="#C0C888" d="M173.686,84.69c0,0,1.136-1.578,3.06-2.151l0.751,3.974L173.686,84.69z"/>
		<path fill="#C0C888" d="M171.665,88.916c0,0-0.788,2.078-0.027,3.935l3.838-2.113L171.665,88.916z"/>
	</g>
	<g>
		<path fill="#FFFFFF" d="M168.117,141.692l-3.509-1.678c0,0-1.881,2.216-2.175,4.152l7.045,3.368"/>
		<path fill="#FFFFFF" d="M175.806,147.267c1.973-4.912-1.462-11.222-7.187-7.712c-2.018,1.237-2.604,3.038-3.246,4.576
			c-1.178,2.824-1.078,5.46-0.032,7.038C166.959,153.607,173.147,153.887,175.806,147.267z"/>
		<path fill="#C0C888" d="M166.765,141.046c0,0,1.136-1.578,3.06-2.151l0.751,3.974L166.765,141.046z"/>
		<path fill="#C0C888" d="M164.744,145.272c0,0-0.788,2.078-0.027,3.935l3.838-2.113L164.744,145.272z"/>
	</g>
	<g>
		<g>
			<g>
				<path fill="#8DC63F" d="M45.127,131.9c-0.001,0.003-0.004,0-0.007-0.005c-0.01,0.011-0.016,0.012-0.018,0.024
					C45.111,131.91,45.12,131.906,45.127,131.9C45.126,131.903,45.12,131.906,45.127,131.9z"/>
			</g>
		</g>
		<g>
			<path fill="#73963E" d="M72.635,52.156c-3.338,1.634-4.212,6.086-3.62,10.112c0.728,4.937,5.15,8.371,9.877,7.674
				c2.278-0.336,4.274-1.118,5.584-2.86c1.756,1.291,3.894,1.461,6.175,1.124c4.727-0.695,7.969-5.26,7.24-10.196
				c-0.596-4.047-3.169-7.575-6.862-8.157c0.351-5.782-5.03-9.935-10.467-9.133C75.114,41.525,70.622,46.722,72.635,52.156z
				 M88.866,47.662c0.06,0.387-0.017,1.809,0.177,2.557c0.317,1.214,0.83,1.843,2.074,2.038c2.187,0.345,4.042,3.043,4.489,6.091
				c0.498,3.371-2.213,7.119-5.376,7.584c-2.396,0.355-3.954-0.122-4.591-0.588c-1.25-0.919-2.394-0.936-3.327,0.304
				c-0.476,0.631-1.398,1.96-3.792,2.316c-3.167,0.464-7.217-2.592-7.794-5.951c-0.719-4.182,0.442-7.251,2.429-8.224
				c1.121-0.546,1.974-0.347,1.791-1.579c-0.028-0.193-0.205-0.87-0.27-1.055c-0.127-0.343-0.081-1.246-0.133-1.582
				c-0.487-3.307,3.071-6.343,6.265-6.811c1.634-0.244,3.798,0.295,5.16,1.245C87.321,44.953,88.644,46.132,88.866,47.662z"/>
			<path fill="#AFC555" d="M73.695,52.446c-2.986,1.462-3.766,5.445-3.235,9.042c0.651,4.413,4.606,7.488,8.832,6.866
				c2.036-0.301,3.825-0.999,4.997-2.558c1.569,1.152,3.482,1.308,5.521,1.007c4.227-0.625,7.128-4.707,6.477-9.121
				c-0.533-3.619-2.833-6.777-6.139-7.296c0.315-5.17-4.496-8.886-9.362-8.168C75.912,42.936,71.893,47.585,73.695,52.446z
				 M88.215,48.426c0.05,0.346,0.131,1.596,0.305,2.263c0.286,1.086,0.583,1.778,1.702,1.848c0.994,0.059,1.831,0.274,2.673,1.335
				c0.326,0.412,0.68,0.824,0.852,1.302c0.352,0.992,0.984,1.779,0.935,2.808c-0.026,0.516,0.126,1.388,0.063,2.081
				c-0.121,1.349-0.78,1.101-0.904,1.928c-0.25,1.686-0.907,2.09-1.805,2.584c-0.426,0.237-0.894,0.231-1.331,0.574
				c-0.356,0.282-0.936,0.448-1.319,0.413c-0.685-0.064-1.113,0.195-1.771-0.207c-0.35-0.214-0.492-0.329-0.794-0.404
				c-0.615-0.159-1.214-0.197-1.509-0.335c-0.407-0.192-0.848-0.136-0.943-0.635c-0.026-0.128-0.202-0.775-0.266-0.903
				c-0.372-0.764-1.25,0.77-1.753,1.437c-0.422,0.565-1.392,2.087-3.534,2.403c-0.63,0.094-1.267-0.466-2.399-0.299
				c-0.836,0.126-1.099-0.362-1.648-0.646c-0.852-0.434-1.697-0.767-2.051-1.625c-0.44-1.05-0.93-1.64-0.973-2.571
				c-0.077-1.547,0.079-2.057-0.004-2.857c-0.042-0.409,0.154-0.895,0.205-1.228c0.042-0.279,0.02-0.651,0.155-0.905
				c0.42-0.792,0.677-1.013,0.885-1.419c0.42-0.811,0.506-1.131,1.177-1.459c1-0.491,1.768-0.313,1.606-1.413
				c-0.028-0.174-0.186-0.78-0.247-0.948c-0.114-0.305-0.075-1.112-0.116-1.415c-0.228-1.53,0.641-2.629,1.481-4.009
				c0.229-0.38,0.496-0.405,0.822-0.839c0.227-0.305,0.887-0.5,1.14-0.777c0.416-0.447,1.538-0.375,2.161-0.466
				c0.571-0.084,1.218-0.248,1.814,0.033c0.416,0.2,0.873,0.255,1.394,0.254c0.502,0,1.332,0.341,1.628,0.741
				c0.257,0.346,0.775,0.445,1.046,0.861C87.47,46.834,88.038,47.233,88.215,48.426z"/>
			<path fill="#8FBA3E" d="M73.071,50.602c0.059,0.526-0.094,0.85,0.02,1.377c0.108-0.022,0.27,0.184,0.378,0.195
				c-0.213,0.467-1.12,0.743-1.505,1.143c-0.486,0.498-0.827,1.121-1.18,1.712c-0.482,0.804-0.838,1.671-1.048,2.587
				c-0.449,1.96-0.271,4.094,0.412,5.981c1.193,3.291,4.408,5.574,7.902,5.704c1.134,0.043,2.468-0.297,3.463-0.848
				c0.882-0.488,1.487-1.377,2.379-1.835c0.933-0.478,1.376,0.122,2.214,0.474c0.828,0.347,1.845,0.565,2.747,0.515
				c2.689-0.15,5.018-1.19,6.658-3.353c0.963-1.269,1.545-2.763,1.6-4.364c0.093-2.647-0.867-5.898-2.92-7.645
				c-1.178-0.997-2.502-1.521-3.876-2.15c0.673-0.297-0.419-2.917-0.511-3.539c-0.183-1.251-0.899-1.896-1.852-2.66
				c-0.863-0.691-1.617-1.616-2.712-1.858c-1.614-0.358-2.901-0.912-4.589-0.663c-1.617,0.237-3.082,1.393-4.523,2.076
				c-1.05,0.496-1.331,1.347-2.027,2.232c-0.71,0.902-1.354,2-1.395,3.181c-0.024,0.612,0.279,1.109,0.357,1.701
				C73.065,50.577,73.068,50.589,73.071,50.602z M88.364,47.666c0.438,0.729,0.363,2.217,0.497,3.058
				c0.145,0.952-0.388,1.365,1,1.467c0.954,0.067,1.326,0.273,2.148,0.83c0.722,0.49,1.571,1.378,2.104,2.072
				c0.855,1.119,1.455,2.942,1.496,4.346c0.084,2.936-2.709,5.838-5.613,6.326c-0.704,0.118-1.743,0.096-2.45,0.013
				c-0.54-0.067-1.281-0.124-1.79-0.332c-0.545-0.223-0.694-0.412-1.147-0.744c-0.474-0.349-0.764-0.269-1.078-0.221
				c-0.889,0.13-0.707,0.529-1.221,1.168c-0.63,0.786-1.533,1.5-2.512,1.787c-1.654,0.482-4.097,0.034-5.506-0.965
				c-2.847-2.006-4.121-7.474-2.371-10.424c0.437-0.739,1.233-1.928,1.917-2.443c0.356-0.262,0.723-0.548,1.093-0.789
				c0.713-0.455,0.16-0.684,0.002-1.395c-0.201-0.903-0.052-1.835,0.137-2.755c0.196-0.955,0.611-2.407,1.25-3.156
				c0.714-0.833,2.524-1.472,3.506-1.894c1.593-0.684,2.903-0.738,4.453-0.162C84.824,43.658,86.756,45.002,88.364,47.666z"/>
			
				<radialGradient id="SVGID_3_" cx="1564.416" cy="-378.1602" r="15.3325" gradientTransform="matrix(-0.559 -0.8292 0.8292 -0.559 1270.0167 1143.9752)" gradientUnits="userSpaceOnUse">
				<stop  offset="0.0522" style="stop-color:#FFF5D6"/>
				<stop  offset="0.2083" style="stop-color:#FEF4D3"/>
				<stop  offset="0.3101" style="stop-color:#FBF1CB"/>
				<stop  offset="0.3964" style="stop-color:#F5ECBC"/>
				<stop  offset="0.4741" style="stop-color:#EDE6A7"/>
				<stop  offset="0.5453" style="stop-color:#E3DD8C"/>
				<stop  offset="0.6076" style="stop-color:#D8D36D"/>
				<stop  offset="0.7656" style="stop-color:#CFD265"/>
				<stop  offset="0.8342" style="stop-color:#BFD343"/>
				<stop  offset="0.8587" style="stop-color:#B9D335"/>
				<stop  offset="1" style="stop-color:#8FBA3E"/>
			</radialGradient>
			<path fill="url(#SVGID_3_)" d="M78.356,42.772c-1.173,0.535-2.42,1.247-3.123,2.345c-0.448,0.7-1.059,1.245-1.464,1.989
				c-0.402,0.744-0.672,1.721-0.482,2.564c0.035,0.167,0.382,0.709,0.28,1.074c-0.191,0.672,0.301,0.961,0.369,1.429
				c-0.174,0.448-0.491,0.451-0.646,0.591c-2.75,2.513-2.724,3.497-3.134,5.846c-0.477,2.734,0.351,5.669,2.347,7.654
				c1.714,1.708,4.338,2.79,6.775,2.284c0.911-0.189,1.895-0.437,2.707-0.996c0.273-0.19,0.803-0.806,1.335-1.274
				c0.185-0.161,0.255-0.416,0.39-0.397c0.36,0.046,0.629-0.218,0.809-0.129c0.811,0.409,1.479,1.072,2.355,1.333
				c1.049,0.318,1.846,0.054,2.886-0.074c1.048-0.129,2.492-0.407,3.276-1.151c0.619-0.585,1.447-0.894,1.881-1.642
				c0.421-0.722,1.056-1.517,1.198-2.342c0.128-0.747,0.41-1.481,0.45-2.242c0.04-0.747-0.264-1.414-0.399-2.138
				c-0.141-0.735-0.301-1.476-0.54-2.182c-0.582-1.711-2.091-3.334-3.74-4.085c-0.444-0.202-0.877-0.425-1.358-0.512
				c-0.167-0.031-0.443-0.113-0.463-0.276c-0.002-0.025,0.118-0.456,0.118-0.484c0.078-0.868-0.169-1.415-0.361-2.248
				c-0.147-0.634-0.068-1.188-0.4-1.776c-0.418-0.741-1.087-1.283-1.74-1.809c-0.539-0.437-1.089-1.094-1.708-1.402
				c-0.445-0.22-0.972-0.229-1.443-0.356c-0.59-0.156-1.167-0.346-1.753-0.501C81.368,41.481,79.633,42.193,78.356,42.772z
				 M79.699,44.206c1.309,0.322,2.393-0.746,3.742-0.168c0.609,0.258,2.316,0.064,3.592,1.776c0.679,0.909,1.013,1.513,1.102,2.751
				c0.058,0.752,0.118,1.555,0.281,2.273c0.118,0.521-2.398,2.044-1.97,2.508c0.171,0.184,0.444,0.574,1.048,0.326
				c1.081-0.438,2.841-1.029,3.483-0.951c0.883,0.113,1.85,0.934,2.42,1.612c1.507,1.805,2.093,5.978,0.917,7.061
				c-0.365,0.336-0.562,1.527-0.84,1.925c-1.388,1.962-4.552,3.254-6.392,1.888c-0.428-0.32-2.58-0.606-2.486-1.226
				c0.143-0.96-0.46-1.865-0.677-2.37c-0.14-0.331-0.467-0.081-0.794-0.04c-1.038,0.126-0.816,3.079-1.477,3.766
				c-0.883,0.919-2.381,2.115-3.575,1.647c-0.627-0.244-2.053-0.059-2.731-0.381c-0.837-0.401-2.261-1.282-2.717-2.078
				c-0.35-0.609-0.748-1.351-1.016-2.476c-0.253-1.057,0.035-2.08,0.028-2.705c-0.01-0.784,0.12-1.471,0.29-2.249
				c0.223-1.033,1.231-1.526,1.68-2.503c0.387-0.839,1.065-0.503,1.563-0.303c0.468,0.181,2.724,0.36,2.772,0.03
				c0.132-0.929-1.464-1.393-1.676-2.037c-0.243-0.738-0.479-1.733-0.752-2.465c-0.26-0.702,0.102-1.713,0.482-2.442
				c0.589-1.124,0.792-1.87,1.882-2.425C78.255,44.755,79.07,44.051,79.699,44.206z"/>
		</g>
	</g>
	<g>
		<g>
			<path fill="#E91E25" d="M100.819,27.541c-6.316,2.214-7.43,9.546-7.43,9.546c-0.238,3.341,1.385,6.491,2.817,8.448
				c1.431,1.957,4.247,4.104,9.188,4.439c4.94,0.334,8.043-2.243,10.429-6.281c2.386-4.038,1.336-8.038-0.737-11.951
				C113.014,27.828,107.135,25.327,100.819,27.541z"/>
			<path fill="#C52026" d="M115.339,31.607c-0.397-0.749-0.928-1.449-1.577-2.082c-0.649-0.63-1.404-1.182-2.245-1.639
				c-1.756-0.955-3.815-1.46-5.952-1.46v0.286v-0.286c-1.612,0-3.241,0.284-4.842,0.845c-1.481,0.519-2.805,1.359-3.934,2.494
				c-0.899,0.905-1.677,1.999-2.31,3.25c-1.076,2.127-1.361,3.952-1.373,4.029l-0.001,0.012l-0.002,0.011
				c-0.11,1.553,0.158,3.19,0.8,4.866c0.625,1.632,1.471,2.952,2.07,3.771c0.398,0.543,0.864,1.053,1.386,1.517
				c0.592,0.526,1.262,0.995,1.986,1.393c1.706,0.937,3.736,1.491,6.028,1.645c0.291,0.02,0.581,0.03,0.864,0.03
				c1.112,0,2.171-0.156,3.148-0.465c0.929-0.294,1.817-0.737,2.637-1.317c1.488-1.052,2.811-2.579,4.046-4.669
				c0.591-1,1.001-2.046,1.218-3.109c0.201-0.989,0.243-2.03,0.125-3.091c-0.109-0.977-0.349-1.972-0.731-3.043
				C116.347,33.658,115.908,32.68,115.339,31.607z M115.822,43.693c-2.248,3.803-5.13,6.31-9.584,6.31
				c-0.276,0-0.558-0.01-0.845-0.029c-4.941-0.334-7.757-2.482-9.188-4.439c-1.432-1.957-3.055-5.108-2.817-8.448
				c0,0,1.113-7.332,7.43-9.546c1.631-0.571,3.232-0.829,4.747-0.829c4.352,0,7.984,2.126,9.52,5.029
				C117.158,35.655,118.208,39.655,115.822,43.693z"/>
		</g>
		<path fill="#F26B48" d="M112.529,45.105c0.43,0.047,1.528,0.143,2.557-0.999c1.031-1.143,2.407-6.733,0-11.554
			c-2.406-4.82-8.046-4.915-8.663-4.891c-0.617,0.025-1.006,1.311-1.388,1.406c-0.382,0.096-0.764-1.622-2.338-1.384
			s-5.351,1.943-7.303,5.012c-1.951,3.068-1.002,7.93-1.002,7.93c1.024,3.061,2.625,4.861,3.199,4.765
			c0.572-0.095,1.146-0.43,1.05,0.096c-0.096,0.525-0.238,1.862,2.815,2.864c3.055,1.002,7.399,0.096,8.834-0.286
			c1.437-0.382,2.096-1.623,1.906-2.148C112.003,45.392,112.099,45.057,112.529,45.105z"/>
		<path fill="#F5845C" d="M112.451,44.695c0.039,0,0.081,0.003,0.122,0.007c0.105,0.012,0.22,0.022,0.356,0.022
			c0.698,0,1.323-0.299,1.856-0.89c0.453-0.503,1.022-2.132,1.186-4.159c0.091-1.142,0.049-2.28-0.126-3.381
			c-0.202-1.275-0.579-2.474-1.121-3.56c-2.266-4.538-7.569-4.669-8.166-4.669c-0.061,0-0.1,0.001-0.119,0.002
			c-0.031,0.001-0.101,0.04-0.2,0.147c-0.122,0.133-0.243,0.32-0.359,0.501c-0.23,0.359-0.43,0.668-0.746,0.747
			c-0.042,0.011-0.086,0.016-0.129,0.016c-0.324,0-0.519-0.266-0.727-0.546c-0.285-0.385-0.64-0.865-1.288-0.865
			c-0.073,0-0.153,0.006-0.232,0.018c-0.656,0.099-1.931,0.523-3.361,1.39c-1.094,0.664-2.617,1.799-3.659,3.438
			c-0.955,1.499-1.163,3.483-1.171,4.883c-0.007,1.423,0.187,2.55,0.219,2.727c0.421,1.251,0.993,2.424,1.615,3.307
			c0.572,0.815,1.007,1.127,1.142,1.158c0.122-0.022,0.251-0.057,0.376-0.092c0.192-0.053,0.375-0.104,0.541-0.104
			c0.246,0,0.388,0.109,0.464,0.2c0.119,0.143,0.157,0.333,0.115,0.567c-0.067,0.366-0.27,1.483,2.543,2.406
			c0.883,0.289,1.96,0.436,3.204,0.436c2.531,0,4.942-0.607,5.4-0.728c0.989-0.264,1.404-0.933,1.508-1.131
			c0.127-0.244,0.141-0.428,0.12-0.487c-0.164-0.451-0.157-0.809,0.02-1.062C111.969,44.801,112.187,44.695,112.451,44.695z"/>
		<path fill="#F2A579" d="M109.318,41.35c0.566-0.053,1.819,1.577,2.612,1.863c0.795,0.287,1.437,0.119,2.522-0.904
			c0.735-0.693,1.124-3.607,0.982-5.097c-0.144-1.489-1.719-4.883-2.414-5.718c-0.695-0.836-2.241-1.527-3.242-1.81
			c-1.002-0.283-2.078-0.863-3.056-0.189c-0.979,0.675-0.597,2.762-0.691,3.603c-0.095,0.841-0.495,0.797-0.495,0.797
			c-1.167,0.217-1.415-1.781-1.514-2.744c-0.1-0.963-0.85-2.086-1.727-1.971c-0.745,0.098-1.843,0.715-2.844,1.245
			c-1.756,0.927-3.097,3.573-3.475,4.548c-1.037,2.68-0.447,4.945,0,6.736c0.447,1.79,1.844,2.505,2.437,2.498
			c0.594-0.007,1.556-0.78,1.886-1.511c0.329-0.731,0.667-1.334,1.191-1.44c0.527-0.105,0.913,0.524,0.389,1.201
			c-0.524,0.677-2.202,3.555-1.65,4.098c0.552,0.544,1.776,0.895,2.473,1.132c1.09,0.37,1.976,0.224,3.262,0.09
			c1.718-0.179,1.095-0.269,2.406-0.492c1.313-0.223,2.419-0.588,2.487-1.665c0.03-0.461-0.174-1.664-1.138-2.782
			C108.751,41.72,108.75,41.402,109.318,41.35z"/>
		<g>
			<path fill="#C72026" d="M100.167,33.078c0.573-0.62,2.004-1.67,2.243-0.525c0.238,1.146,0.287,3.341,1.384,3.007
				c0.512-0.156,0.478-0.812,0.239-2.339c-0.239-1.527-0.716-4.057-2.1-3.58c-1.384,0.477-2.054,0.764-3.15,1.671
				c-1.098,0.906-3.198,5.345-3.101,6.586c0.094,1.241,0.572,5.536,2.385,5.775c1.813,0.238,1.813-1.814,2.435-2.147
				c0.621-0.334,2.53-1.958,2.052-2.435c-0.476-0.477-1.898,1.48-2.619,1.527c-0.721,0.048-2.009-1.192-1.819-2.243
				C98.305,37.326,99.593,33.698,100.167,33.078z"/>
		</g>
		<g>
			<path fill="#E11E26" d="M99.992,32.915c0.354-0.385,1.205-1.112,1.881-1.112c0.234,0,0.643,0.091,0.771,0.701
				c0.047,0.231,0.088,0.498,0.129,0.78c0.129,0.874,0.308,2.071,0.806,2.071c0.044,0,0.092-0.008,0.144-0.024
				c0.104-0.031,0.208-0.092,0.233-0.443c0.024-0.353-0.043-0.885-0.159-1.631c-0.118-0.744-0.271-1.599-0.531-2.297
				c-0.28-0.756-0.618-1.139-1.002-1.139c-0.08,0-0.165,0.015-0.254,0.046c-1.346,0.464-2.002,0.742-3.075,1.629
				c-0.476,0.394-1.237,1.605-1.936,3.086c-0.686,1.456-1.121,2.781-1.081,3.299c0.189,2.456,0.874,5.385,2.18,5.557
				c0.087,0.011,0.171,0.017,0.25,0.017c0.848,0,1.147-0.651,1.438-1.28c0.176-0.382,0.327-0.71,0.602-0.858
				c0.231-0.124,0.72-0.489,1.175-0.919c0.485-0.458,0.793-0.863,0.826-1.084c0.001-0.013,0.005-0.043-0.005-0.053
				c-0.003-0.003-0.005-0.005-0.017-0.005c-0.206,0-0.686,0.419-1.039,0.725c-0.502,0.437-0.976,0.851-1.379,0.877
				c-0.018,0.001-0.037,0.001-0.056,0.001l0,0c-0.443,0-1.017-0.341-1.455-0.868c-0.449-0.537-0.652-1.141-0.558-1.658
				C98.074,37.261,99.367,33.591,99.992,32.915z"/>
		</g>
		<path fill="#C72026" d="M111.86,40.762c-1.145-0.286-1.575-1.909-2.482-1.957c-0.906-0.048-1.155,0.557,0.377,1.996
			c1.533,1.441,3.346,2.729,4.301,0.868c0.955-1.862,1.478-3.532,0.525-6.014c-0.955-2.481-1.527-4.391-3.818-5.25
			c-2.291-0.859-2.913-1.432-3.819-0.62c-0.908,0.812-0.334,2.72-0.431,3.628c-0.096,0.907-0.191,1.623,0.431,1.909
			c0.698,0.322,1.001-1.48,1.145-2.482c0.143-1.003,0.954-0.764,1.957,0c1.002,0.763,1.862,2.815,2.147,4.868
			C112.48,39.76,113.006,41.048,111.86,40.762z"/>
		<path fill="#E11E26" d="M112.139,41.04L112.139,41.04c-0.101,0-0.211-0.015-0.337-0.047c-0.657-0.165-1.09-0.696-1.471-1.166
			c-0.333-0.411-0.624-0.766-0.966-0.784c-0.028-0.001-0.057-0.002-0.083-0.002c-0.207,0-0.353,0.046-0.383,0.12
			c-0.014,0.038-0.114,0.401,1.02,1.466c0.79,0.742,1.943,1.729,2.844,1.729c0.452,0,0.807-0.261,1.08-0.797
			c0.394-0.77,0.817-1.692,0.954-2.698c0.137-0.996-0.004-1.988-0.439-3.122c-0.069-0.179-0.136-0.355-0.202-0.528
			c-0.843-2.22-1.452-3.825-3.478-4.584c-0.487-0.183-0.893-0.35-1.252-0.498c-0.728-0.3-1.209-0.498-1.583-0.498
			c-0.26,0-0.482,0.098-0.74,0.33c-0.549,0.492-0.459,1.559-0.385,2.415c0.033,0.395,0.064,0.769,0.034,1.059l-0.008,0.08
			c-0.098,0.909-0.127,1.391,0.299,1.588c0.024,0.011,0.044,0.016,0.062,0.016c0.022,0,0.214-0.021,0.434-0.745
			c0.151-0.494,0.246-1.098,0.314-1.57c0.107-0.757,0.563-0.87,0.826-0.87c0.387,0,0.882,0.234,1.512,0.714
			c0.517,0.394,1.007,1.101,1.416,2.046c0.387,0.89,0.68,1.948,0.824,2.979c0.06,0.432,0.132,0.833,0.194,1.188
			c0.176,0.981,0.291,1.63,0.009,1.97C112.517,40.97,112.351,41.04,112.139,41.04z"/>
		<path fill="#C72026" d="M104.199,40.81c-0.882-0.238-1.358,1.232-1.98,1.785c-0.62,0.554-0.858,1.652-1.193,2.176
			c-0.334,0.526-0.334,1.862,0.525,2.053c0.859,0.191,1.766,0.954,2.648,0.716c0.884-0.239,0.407-0.286,2.458-0.429
			c2.054-0.144,3.533-0.43,3.628-1.48c0.096-1.05-1.575-3.341-2.388-4.2c-0.81-0.859-1.614-1.098-1.475-0.382
			c0.141,0.716,1.906,2.344,1.715,3.058c-0.191,0.713-1.289,1.477-2.1,1.047c-0.811-0.429-3.89,0.335-2.864-2.004
			C103.234,43.011,105.083,41.048,104.199,40.81z"/>
		<path fill="#E11E26" d="M103.172,42.764c0.191-0.235,0.484-0.59,0.713-0.943c0.35-0.54,0.32-0.717,0.311-0.747
			c-0.002-0.005-0.007-0.02-0.058-0.033c-0.043-0.012-0.086-0.018-0.127-0.018c-0.367,0-0.693,0.487-1.008,0.957
			c-0.206,0.304-0.398,0.591-0.623,0.793c-0.361,0.322-0.592,0.877-0.793,1.367c-0.119,0.286-0.229,0.556-0.359,0.759
			c-0.172,0.271-0.243,0.864-0.07,1.282c0.095,0.227,0.243,0.365,0.445,0.409c0.332,0.073,0.663,0.224,0.983,0.368
			c0.423,0.191,0.86,0.388,1.261,0.388c0.103,0,0.198-0.012,0.292-0.037c0.228-0.062,0.359-0.109,0.474-0.151
			c0.341-0.123,0.496-0.18,2.03-0.286c0.797-0.056,1.8-0.15,2.486-0.387c0.777-0.269,0.898-0.629,0.919-0.876
			c0.084-0.919-1.49-3.135-2.321-4.015c-0.506-0.535-0.918-0.729-1.072-0.729c-0.002,0-0.005,0-0.006,0
			c-0.004,0.022-0.005,0.067,0.009,0.138c0.049,0.251,0.417,0.74,0.742,1.171c0.569,0.756,1.108,1.471,0.968,1.994
			c-0.192,0.718-1.042,1.349-1.817,1.349c-0.224,0-0.433-0.052-0.626-0.152c-0.184-0.098-0.599-0.124-0.997-0.149
			c-0.795-0.049-1.693-0.105-2.054-0.696c-0.22-0.361-0.194-0.84,0.08-1.466C102.979,43,103.019,42.949,103.172,42.764z"/>
		<path fill="#ECBE90" d="M106.893,39.939c0.668-0.091,2.96,3.528,3.623,4.167c0.664,0.639,1.347-0.209,1.353-0.652
			c0.01-0.654-2.789-2.407-3.727-3.902c-0.48-0.767-0.103-2.052,0.777-1.898c0.883,0.155,1.482,0.933,1.837,0.102
			c0.39-0.922-1.079-3.426-1.663-3.399c-0.581,0.026-1.109,1.247-1.642,1.763c-0.615,0.596-1.097,0.211-1.539-0.345
			c-0.284-0.355-0.07-4.455-0.194-5.009c-0.123-0.552-0.305-0.664-1.085-0.378c-0.779,0.285-0.174,4.01,0,4.917
			c0.175,0.907-0.853,0.812-0.853,0.812c-0.256,0.008-0.558-0.323-1.643-1.359c-1.043-0.996-1.544,1.645-1.899,3.137
			c-0.354,1.494,0.403,1.944,1.096,1.175c0,0,1.344-0.887,1.785-0.196c0.322,0.506-1.952,3.066-3.003,4.14
			c-1.05,1.074-0.408,1.418,0.122,1.596c0.581,0.196,2.074-3.14,2.881-3.815c0.495-0.416,1.227-0.989,1.514-0.588
			c0.471,0.658-0.097,1.658-0.209,2.388c-0.112,0.731,0.548,0.86,1.485,0.86c1.377,0,0.46-1.61,0.003-2.266
			C105.455,40.533,106.225,40.03,106.893,39.939z"/>
		<path fill="#F5845C" d="M113.063,38.625c-0.151,0.099-0.141,0.298,0.018,0.404c0.182,0.122,0.444,0.261,0.733,0.309
			c0.547,0.089,0.561-0.26,0.573-0.514c0.013-0.254-0.127-0.442-0.659-0.425C113.455,38.406,113.223,38.518,113.063,38.625z"/>
		<path fill="#F5845C" d="M113.026,40.408c-0.143,0.01-0.218,0.15-0.155,0.287c0.074,0.156,0.195,0.355,0.372,0.502
			c0.333,0.278,0.486,0.042,0.6-0.129c0.113-0.171,0.095-0.356-0.272-0.555C113.383,40.412,113.179,40.397,113.026,40.408z"/>
		<path fill="#F5845C" d="M112.46,41.334c-0.098-0.046-0.201,0.02-0.209,0.136c-0.008,0.132,0,0.309,0.063,0.472
			c0.122,0.309,0.311,0.206,0.451,0.134c0.138-0.072,0.193-0.203,0.021-0.472C112.698,41.467,112.566,41.383,112.46,41.334z"/>
		<path fill="#EFB173" d="M112.477,41.417c-0.078-0.036-0.157,0.016-0.163,0.106c-0.006,0.103,0,0.241,0.05,0.369
			c0.095,0.242,0.243,0.162,0.351,0.105c0.107-0.057,0.153-0.159,0.016-0.369C112.664,41.521,112.561,41.455,112.477,41.417z"/>
		<path fill="#F5845C" d="M113.161,36.213c-0.253,0.101-0.433,0.285-0.548,0.44c-0.106,0.145-0.031,0.329,0.156,0.374
			c0.212,0.052,0.506,0.095,0.794,0.041c0.546-0.103,0.438-0.436,0.364-0.679C113.851,36.145,113.656,36.017,113.161,36.213z"/>
		<path fill="#EFB173" d="M113.293,36.354c-0.192,0.076-0.329,0.216-0.418,0.335c-0.081,0.111-0.023,0.251,0.119,0.285
			c0.163,0.04,0.386,0.072,0.606,0.031c0.416-0.079,0.334-0.333,0.276-0.518C113.821,36.302,113.671,36.204,113.293,36.354z"/>
		<path fill="#F5845C" d="M112.353,33.996c-0.229,0.146-0.371,0.36-0.456,0.534c-0.079,0.162,0.03,0.329,0.222,0.338
			c0.219,0.012,0.516-0.001,0.788-0.108c0.516-0.202,0.35-0.509,0.232-0.734C113.02,33.801,112.804,33.711,112.353,33.996z"/>
		<path fill="#EFB173" d="M112.396,34.091c-0.176,0.111-0.284,0.274-0.349,0.407c-0.059,0.123,0.024,0.25,0.17,0.258
			c0.166,0.009,0.392-0.001,0.6-0.082c0.393-0.155,0.267-0.389,0.177-0.56C112.904,33.942,112.738,33.874,112.396,34.091z"/>
		<path fill="#F5845C" d="M111.228,32.171c-0.202,0.182-0.305,0.418-0.359,0.604c-0.05,0.173,0.086,0.318,0.276,0.296
			c0.218-0.026,0.507-0.088,0.758-0.24c0.474-0.286,0.259-0.561,0.104-0.763C111.853,31.865,111.624,31.813,111.228,32.171z"/>
		<path fill="#EFB173" d="M111.278,32.245c-0.159,0.145-0.242,0.332-0.285,0.48c-0.04,0.137,0.068,0.252,0.219,0.234
			c0.173-0.02,0.403-0.07,0.602-0.19c0.376-0.228,0.205-0.446,0.082-0.606C111.774,32.003,111.592,31.963,111.278,32.245z"/>
		<path fill="#F5845C" d="M109.401,31.063c-0.069,0.213-0.047,0.423-0.008,0.578c0.035,0.143,0.191,0.192,0.319,0.097
			c0.144-0.108,0.325-0.272,0.441-0.482c0.219-0.4-0.046-0.507-0.24-0.586C109.721,30.589,109.535,30.646,109.401,31.063z"/>
		<path fill="#F5845C" d="M107.704,30.287c-0.185,0.02-0.304,0.144-0.232,0.527c0.039,0.195,0.146,0.35,0.241,0.454
			c0.091,0.097,0.233,0.067,0.291-0.061c0.067-0.146,0.137-0.351,0.137-0.566C108.142,30.236,107.888,30.267,107.704,30.287z"/>
		<path fill="#F5845C" d="M99.036,31.804c-0.152,0.2-0.142,0.431,0.301,0.714c0.227,0.144,0.477,0.182,0.668,0.184
			c0.178,0.002,0.281-0.165,0.209-0.341c-0.082-0.2-0.217-0.459-0.427-0.657C99.393,31.327,99.188,31.605,99.036,31.804z"/>
		<path fill="#F5845C" d="M101.266,30.469c-0.198,0.04-0.315,0.182-0.196,0.576c0.06,0.202,0.192,0.353,0.306,0.453
			c0.105,0.092,0.257,0.047,0.307-0.094c0.057-0.16,0.114-0.382,0.093-0.607C101.735,30.37,101.465,30.428,101.266,30.469z"/>
		<path fill="#EFB173" d="M101.301,30.561c-0.146,0.029-0.232,0.134-0.145,0.424c0.044,0.149,0.141,0.26,0.225,0.334
			c0.079,0.068,0.19,0.035,0.228-0.069c0.042-0.117,0.083-0.281,0.067-0.447C101.646,30.489,101.447,30.532,101.301,30.561z"/>
		<path fill="#FFFFFF" d="M101.417,30.618c-0.069,0.014-0.109,0.064-0.069,0.201c0.022,0.07,0.068,0.123,0.108,0.158
			c0.036,0.032,0.089,0.015,0.106-0.033c0.019-0.056,0.039-0.133,0.032-0.211C101.581,30.584,101.488,30.604,101.417,30.618z"/>
		<path fill="#F5845C" d="M102.631,31.392c-0.091,0.096-0.133,0.216-0.152,0.31c-0.018,0.087,0.054,0.156,0.148,0.14
			c0.105-0.019,0.246-0.058,0.362-0.14c0.223-0.156,0.105-0.287,0.022-0.383C102.926,31.223,102.812,31.204,102.631,31.392z"/>
		<path fill="#EFB173" d="M102.667,31.438c-0.067,0.071-0.098,0.159-0.112,0.229c-0.013,0.065,0.04,0.115,0.109,0.103
			c0.077-0.014,0.181-0.043,0.266-0.103c0.165-0.115,0.078-0.211,0.017-0.282C102.885,31.313,102.799,31.299,102.667,31.438z"/>
		<path fill="#FFFFFF" d="M102.799,31.494c-0.034,0.035-0.05,0.08-0.057,0.115c-0.007,0.032,0.02,0.058,0.054,0.052
			c0.041-0.007,0.094-0.022,0.136-0.052c0.083-0.058,0.039-0.107,0.008-0.143C102.908,31.431,102.867,31.424,102.799,31.494z"/>
		<path fill="#F5845C" d="M97.797,33.624c-0.152,0.2-0.142,0.431,0.301,0.713c0.226,0.144,0.477,0.182,0.668,0.184
			c0.177,0.002,0.281-0.164,0.21-0.34c-0.081-0.2-0.217-0.46-0.426-0.658C98.152,33.146,97.947,33.423,97.797,33.624z"/>
		<path fill="#EFB173" d="M97.923,33.708c-0.119,0.156-0.111,0.337,0.236,0.558c0.178,0.113,0.375,0.142,0.523,0.144
			c0.139,0.002,0.22-0.129,0.164-0.266c-0.064-0.157-0.17-0.36-0.334-0.515C98.202,33.334,98.041,33.552,97.923,33.708z"/>
		<path fill="#FFFFFF" d="M98.136,33.676c-0.043,0.056-0.039,0.121,0.086,0.201c0.063,0.041,0.133,0.051,0.189,0.052
			c0.049,0,0.078-0.046,0.058-0.096c-0.024-0.056-0.061-0.129-0.121-0.185C98.238,33.541,98.179,33.62,98.136,33.676z"/>
		<path fill="#F5845C" d="M97.318,35.569c-0.502-0.22-0.6,0.111-0.674,0.35c-0.075,0.24,0.014,0.453,0.525,0.569
			c0.263,0.058,0.511,0.009,0.692-0.054c0.167-0.058,0.208-0.25,0.081-0.391C97.797,35.882,97.581,35.684,97.318,35.569z"/>
		<path fill="#EFB173" d="M97.298,35.681c-0.372-0.163-0.445,0.082-0.501,0.26c-0.054,0.178,0.011,0.336,0.392,0.421
			c0.194,0.043,0.378,0.007,0.512-0.04c0.124-0.043,0.154-0.185,0.06-0.29C97.654,35.914,97.494,35.767,97.298,35.681z"/>
		<path fill="#FFFFFF" d="M96.95,35.753c-0.018,0.063,0.004,0.119,0.14,0.149c0.069,0.016,0.133,0.002,0.181-0.014
			c0.045-0.015,0.055-0.066,0.022-0.103c-0.039-0.043-0.096-0.094-0.164-0.125C96.996,35.603,96.97,35.689,96.95,35.753z"/>
		<path fill="#F5845C" d="M96.065,38.098c-0.024,0.249,0.103,0.441,0.63,0.45c0.268,0.005,0.502-0.095,0.666-0.192
			c0.153-0.091,0.153-0.287,0.001-0.399c-0.175-0.129-0.425-0.278-0.708-0.338C96.12,37.505,96.091,37.848,96.065,38.098z"/>
		<path fill="#EFB173" d="M96.167,38.057c-0.019,0.2,0.085,0.353,0.506,0.361c0.215,0.003,0.402-0.076,0.534-0.155
			c0.123-0.073,0.123-0.23,0-0.32c-0.139-0.103-0.34-0.223-0.566-0.272C96.21,37.581,96.187,37.857,96.167,38.057z"/>
		<path fill="#FFFFFF" d="M96.345,37.904c-0.006,0.073,0.032,0.129,0.187,0.132c0.078,0.001,0.147-0.027,0.196-0.057
			c0.044-0.026,0.044-0.084,0-0.117c-0.052-0.038-0.126-0.082-0.21-0.099C96.363,37.729,96.355,37.831,96.345,37.904z"/>
		<path fill="#F5845C" d="M102.729,45.415c-0.139,0.116-0.313,0.292-0.417,0.511c-0.201,0.415,0.074,0.508,0.274,0.578
			c0.199,0.07,0.382,0.002,0.493-0.425c0.058-0.219,0.023-0.43-0.023-0.583C103.012,45.352,102.853,45.313,102.729,45.415z"/>
		<path fill="#F5845C" d="M104.07,45.73c-0.113,0.183-0.244,0.446-0.281,0.732c-0.07,0.542,0.273,0.545,0.524,0.549
			c0.251,0.006,0.432-0.139,0.4-0.663c-0.017-0.268-0.133-0.493-0.244-0.649C104.367,45.554,104.17,45.569,104.07,45.73z"/>
		<path fill="#F5845C" d="M105.679,45.719c-0.089,0.156-0.187,0.375-0.198,0.609c-0.021,0.444,0.295,0.427,0.524,0.417
			c0.231-0.01,0.384-0.137,0.312-0.56c-0.037-0.216-0.161-0.392-0.276-0.512C105.936,45.56,105.758,45.583,105.679,45.719z"/>
		<path fill="#EFB173" d="M105.736,45.824c-0.069,0.121-0.144,0.289-0.152,0.469c-0.018,0.342,0.224,0.328,0.402,0.321
			c0.178-0.008,0.296-0.105,0.24-0.432c-0.029-0.166-0.125-0.302-0.211-0.394C105.933,45.702,105.797,45.72,105.736,45.824z"/>
		<path fill="#FFFFFF" d="M105.658,46.232c-0.024,0.042-0.051,0.1-0.054,0.163c-0.006,0.119,0.079,0.115,0.14,0.112
			c0.064-0.002,0.104-0.037,0.085-0.151c-0.011-0.058-0.044-0.105-0.074-0.138C105.726,46.189,105.678,46.195,105.658,46.232z"/>
		<path fill="#F5845C" d="M107.825,45.361c-0.139-0.072-0.286,0.018-0.298,0.185c-0.016,0.191-0.011,0.448,0.075,0.687
			c0.164,0.453,0.435,0.316,0.633,0.218c0.198-0.098,0.282-0.284,0.044-0.681C108.158,45.566,107.975,45.437,107.825,45.361z"/>
		<path fill="#EFB173" d="M107.846,45.474c-0.11-0.057-0.228,0.015-0.238,0.148c-0.011,0.151-0.008,0.356,0.062,0.546
			c0.13,0.361,0.346,0.251,0.504,0.173c0.158-0.078,0.224-0.226,0.034-0.542C108.111,45.638,107.965,45.535,107.846,45.474z"/>
		<path fill="#F5845C" d="M108.766,44.61c-0.144-0.009-0.236,0.124-0.184,0.269c0.058,0.167,0.158,0.383,0.321,0.554
			c0.309,0.323,0.487,0.106,0.619-0.052c0.131-0.157,0.132-0.346-0.217-0.595C109.125,44.66,108.922,44.62,108.766,44.61z"/>
		<path fill="#F5845C" d="M101.956,44.509c-0.141,0.075-0.325,0.195-0.458,0.366c-0.252,0.324-0.029,0.456,0.13,0.554
			c0.16,0.098,0.332,0.073,0.509-0.278c0.091-0.179,0.1-0.369,0.09-0.511C102.214,44.507,102.084,44.443,101.956,44.509z"/>
		<path fill="#F5845C" d="M96.818,39.863c-0.521,0.151-0.387,0.466-0.291,0.697c0.094,0.231,0.298,0.338,0.763,0.1
			c0.237-0.122,0.396-0.318,0.493-0.481c0.092-0.15,0-0.323-0.186-0.35C97.384,39.797,97.094,39.784,96.818,39.863z"/>
		<path fill="#EFB173" d="M96.822,39.981c-0.368,0.106-0.273,0.326-0.207,0.488c0.068,0.162,0.21,0.237,0.537,0.07
			c0.166-0.085,0.277-0.222,0.346-0.336c0.063-0.106,0-0.226-0.132-0.246C97.218,39.935,97.014,39.925,96.822,39.981z"/>
		<path fill="#FFFFFF" d="M96.7,40.078c-0.155,0.044-0.114,0.137-0.085,0.205c0.026,0.069,0.087,0.1,0.225,0.03
			c0.07-0.036,0.117-0.094,0.147-0.142c0.026-0.045,0-0.096-0.057-0.104C96.868,40.058,96.782,40.054,96.7,40.078z"/>
		<path fill="#F5845C" d="M98.606,41.375c-0.205,0.076-0.469,0.207-0.677,0.412c-0.392,0.391-0.117,0.606,0.081,0.764
			c0.197,0.158,0.432,0.155,0.729-0.285c0.152-0.225,0.197-0.478,0.205-0.67C98.951,41.417,98.785,41.308,98.606,41.375z"/>
		<path fill="#EFB173" d="M98.616,41.486c-0.202,0.104-0.413,0.242-0.589,0.417c-0.07,0.071-0.117,0.129-0.146,0.173
			c-0.038,0.057-0.03,0.132,0.018,0.181c0.064,0.066,0.159,0.143,0.216,0.188l0.008,0.007l0.002,0.001
			c0.05,0.04,0.122,0.041,0.175,0.003c0.07-0.051,0.182-0.158,0.331-0.379c0.093-0.136,0.153-0.282,0.193-0.425
			C98.859,41.53,98.728,41.427,98.616,41.486z"/>
		<path fill="#FFFFFF" d="M98.22,41.929c-0.072,0.037-0.149,0.087-0.212,0.15c-0.026,0.026-0.042,0.047-0.052,0.063
			c-0.014,0.021-0.011,0.047,0.007,0.066c0.022,0.023,0.056,0.051,0.077,0.068l0.004,0.002l0,0c0.018,0.015,0.044,0.015,0.063,0.001
			c0.026-0.018,0.066-0.057,0.119-0.137c0.035-0.049,0.057-0.102,0.07-0.154C98.307,41.944,98.261,41.907,98.22,41.929z"/>
		<path fill="#EFB173" d="M99.142,31.833c-0.123,0.162-0.114,0.349,0.244,0.578c0.183,0.117,0.386,0.147,0.542,0.149
			c0.144,0.002,0.227-0.133,0.17-0.276c-0.066-0.162-0.177-0.372-0.346-0.533C99.429,31.446,99.264,31.671,99.142,31.833z"/>
		<path fill="#FFFFFF" d="M99.377,31.814c-0.044,0.058-0.041,0.125,0.088,0.208c0.067,0.042,0.139,0.053,0.195,0.054
			c0.052,0.001,0.081-0.048,0.06-0.099c-0.023-0.058-0.063-0.133-0.125-0.191C99.48,31.676,99.422,31.756,99.377,31.814z"/>
		<path fill="#EFB173" d="M107.752,30.396c-0.134,0.014-0.22,0.103-0.167,0.38c0.028,0.141,0.105,0.252,0.175,0.328
			c0.065,0.07,0.167,0.048,0.209-0.044c0.049-0.105,0.1-0.254,0.1-0.408C108.069,30.359,107.885,30.381,107.752,30.396z"/>
		<path fill="#FFFFFF" d="M107.884,30.461c-0.065,0.007-0.105,0.05-0.08,0.182c0.013,0.068,0.049,0.121,0.083,0.157
			c0.031,0.033,0.081,0.023,0.099-0.021c0.023-0.051,0.048-0.122,0.048-0.195C108.035,30.443,107.947,30.453,107.884,30.461z"/>
		<path fill="#EFB173" d="M109.479,31.101c-0.052,0.161-0.035,0.321-0.006,0.438c0.026,0.108,0.145,0.144,0.24,0.073
			c0.11-0.082,0.247-0.206,0.334-0.365c0.166-0.303-0.035-0.383-0.181-0.444C109.721,30.743,109.581,30.786,109.479,31.101z"/>
		<path fill="#EFB173" d="M113.279,38.761c-0.114,0.077-0.107,0.228,0.015,0.309c0.139,0.093,0.34,0.199,0.56,0.235
			c0.419,0.068,0.429-0.198,0.439-0.393c0.01-0.194-0.098-0.338-0.506-0.326C113.58,38.594,113.402,38.68,113.279,38.761z"/>
		<path fill="#EFB173" d="M113.139,40.512c-0.105,0.008-0.161,0.111-0.113,0.212c0.054,0.115,0.143,0.262,0.272,0.37
			c0.247,0.205,0.36,0.03,0.443-0.096c0.084-0.126,0.07-0.263-0.2-0.409C113.401,40.514,113.253,40.504,113.139,40.512z"/>
		<path fill="#EFB173" d="M102.735,45.56c-0.101,0.084-0.227,0.211-0.303,0.369c-0.144,0.3,0.055,0.367,0.199,0.418
			c0.144,0.051,0.276,0.001,0.357-0.308c0.043-0.158,0.017-0.311-0.017-0.421C102.939,45.514,102.823,45.485,102.735,45.56z"/>
		<path fill="#EFB173" d="M104.111,45.842c-0.092,0.149-0.196,0.36-0.227,0.591c-0.057,0.438,0.221,0.44,0.423,0.444
			c0.203,0.004,0.349-0.113,0.323-0.536c-0.013-0.216-0.107-0.397-0.195-0.524C104.35,45.7,104.191,45.712,104.111,45.842z"/>
		<path fill="#FFFFFF" d="M104.062,46.34c-0.038,0.06-0.079,0.145-0.092,0.238c-0.023,0.177,0.09,0.177,0.171,0.179
			c0.081,0.001,0.141-0.046,0.13-0.217c-0.006-0.086-0.044-0.16-0.08-0.211C104.159,46.283,104.095,46.288,104.062,46.34z"/>
		<path fill="#EFB173" d="M101.937,44.629c-0.106,0.056-0.241,0.144-0.339,0.27c-0.184,0.238-0.021,0.335,0.096,0.408
			c0.119,0.073,0.244,0.054,0.377-0.205c0.066-0.132,0.072-0.271,0.064-0.376C102.125,44.628,102.028,44.58,101.937,44.629z"/>
		<path fill="#EFB173" d="M108.845,44.791c-0.106-0.006-0.173,0.09-0.134,0.197c0.042,0.122,0.116,0.281,0.234,0.406
			c0.228,0.237,0.357,0.077,0.454-0.038c0.098-0.115,0.098-0.254-0.159-0.436C109.108,44.828,108.959,44.798,108.845,44.791z"/>
		<path fill="#FFFFFF" d="M108.986,45.105c-0.049-0.003-0.078,0.042-0.062,0.091c0.019,0.057,0.054,0.129,0.108,0.187
			c0.104,0.109,0.164,0.035,0.208-0.018c0.044-0.052,0.046-0.116-0.072-0.2C109.107,45.122,109.038,45.108,108.986,45.105z"/>
		<path fill="#FFFFFF" d="M107.927,45.993c-0.041-0.025-0.089,0-0.096,0.053c-0.008,0.059-0.012,0.14,0.012,0.215
			c0.043,0.144,0.13,0.106,0.193,0.079c0.065-0.027,0.093-0.084,0.026-0.211C108.027,46.062,107.973,46.019,107.927,45.993z"/>
		<path fill="#FFFFFF" d="M101.636,44.973c-0.075,0.097-0.009,0.137,0.039,0.166c0.047,0.029,0.099,0.022,0.153-0.083
			c0.026-0.053,0.029-0.11,0.026-0.153c-0.003-0.04-0.044-0.059-0.08-0.039C101.731,44.887,101.676,44.922,101.636,44.973z"/>
		<path fill="#FFFFFF" d="M102.53,45.839c-0.042,0.035-0.095,0.088-0.126,0.155c-0.061,0.125,0.022,0.154,0.083,0.175
			c0.06,0.021,0.115,0,0.149-0.129c0.017-0.066,0.008-0.13-0.008-0.177C102.616,45.819,102.566,45.807,102.53,45.839z"/>
		<path fill="#FFFFFF" d="M109.833,31.067c-0.015,0.051-0.011,0.1-0.001,0.137c0.008,0.034,0.045,0.045,0.075,0.023
			c0.035-0.026,0.077-0.065,0.104-0.115c0.052-0.095-0.011-0.12-0.057-0.14C109.909,30.954,109.865,30.967,109.833,31.067z"/>
		<path fill="#FFFFFF" d="M111.795,32.432c-0.032,0.042-0.044,0.091-0.048,0.128c-0.003,0.035,0.027,0.058,0.064,0.047
			c0.042-0.012,0.096-0.035,0.137-0.073c0.081-0.071,0.029-0.116-0.007-0.151C111.904,32.351,111.858,32.349,111.795,32.432z"/>
		<path fill="#FFFFFF" d="M112.838,34.352c-0.042,0.033-0.065,0.078-0.077,0.113c-0.013,0.033,0.013,0.063,0.05,0.061
			c0.043-0.002,0.1-0.011,0.15-0.038c0.096-0.05,0.058-0.106,0.031-0.147C112.963,34.3,112.919,34.287,112.838,34.352z"/>
		<path fill="#FFFFFF" d="M113.538,36.656c-0.063,0.025-0.108,0.07-0.137,0.109c-0.028,0.036-0.009,0.083,0.039,0.094
			c0.052,0.015,0.126,0.025,0.198,0.013c0.137-0.024,0.111-0.109,0.092-0.169C113.711,36.641,113.663,36.608,113.538,36.656z"/>
		<path fill="#FFFFFF" d="M113.747,39.022c-0.036,0.027-0.031,0.077,0.012,0.101c0.048,0.027,0.115,0.058,0.188,0.065
			c0.139,0.014,0.135-0.074,0.135-0.138c-0.001-0.064-0.04-0.109-0.172-0.095C113.843,38.961,113.786,38.993,113.747,39.022z"/>
		<path fill="#FFFFFF" d="M113.342,40.84c-0.044,0.006-0.065,0.052-0.041,0.093c0.028,0.047,0.071,0.108,0.13,0.15
			c0.113,0.081,0.155,0.003,0.186-0.053c0.031-0.055,0.02-0.113-0.102-0.168C113.454,40.835,113.39,40.834,113.342,40.84z"/>
		<path fill="#FFFFFF" d="M112.41,41.805c0.006,0.039,0.018,0.091,0.044,0.136c0.052,0.085,0.101,0.045,0.138,0.017
			c0.036-0.028,0.044-0.069-0.02-0.14c-0.033-0.036-0.075-0.054-0.108-0.064C112.432,41.745,112.406,41.77,112.41,41.805z"/>
	</g>
	<g>
		<path fill="#B62025" d="M155.678,89.116c3.15-2.626,2.921-7.619,1.235-11.775c-2.066-5.094-7.703-7.619-12.581-5.64
			c-2.352,0.954-4.29,2.315-5.235,4.521c-2.218-0.921-4.551-0.547-6.905,0.408c-4.879,1.981-7.158,7.719-5.087,12.812
			c1.693,4.179,5.373,7.286,9.479,6.94c1.135,6.287,7.981,9.329,13.597,7.049C155.804,101.15,159.257,94.404,155.678,89.116z
			 M139.466,98.169c-0.161-0.398-0.449-1.945-0.853-2.694c-0.654-1.216-1.371-1.757-2.749-1.639
			c-2.436,0.202-5.127-2.207-6.404-5.349c-1.411-3.483,0.511-8.201,3.777-9.53c2.477-1.005,4.263-0.902,5.068-0.569
			c1.581,0.659,2.81,0.376,3.487-1.197c0.344-0.799,0.983-2.463,3.458-3.467c3.263-1.327,8.401,0.884,9.898,4.333
			c1.863,4.293,1.42,7.881-0.454,9.442c-1.059,0.881-2.025,0.889-1.505,2.16c0.078,0.201,0.448,0.878,0.568,1.059
			c0.226,0.338,0.411,1.311,0.556,1.661c1.384,3.412-1.631,7.591-4.932,8.931c-1.683,0.683-4.142,0.676-5.852,0.014
			C141.831,100.665,140.109,99.748,139.466,98.169z"/>
		<path fill="#C03327" d="M154.467,89.08c2.818-2.344,2.612-6.811,1.103-10.529c-1.848-4.556-6.886-6.816-11.248-5.044
			c-2.104,0.854-3.835,2.072-4.685,4.046c-1.98-0.827-4.071-0.489-6.176,0.364c-4.363,1.771-6.401,6.904-4.549,11.459
			c1.518,3.738,4.802,6.516,8.477,6.207c1.013,5.62,7.137,8.342,12.158,6.304C154.579,99.847,157.667,93.815,154.467,89.08z
			 M139.967,97.181c-0.143-0.358-0.558-1.675-0.917-2.343c-0.588-1.089-1.088-1.753-2.306-1.532
			c-1.078,0.191-2.029,0.183-3.212-0.735c-0.456-0.355-0.942-0.702-1.248-1.172c-0.638-0.968-1.522-1.642-1.737-2.765
			c-0.11-0.556-0.497-1.45-0.612-2.21c-0.221-1.474,0.551-1.384,0.466-2.298c-0.177-1.872,0.423-2.479,1.255-3.24
			c0.394-0.363,0.898-0.477,1.278-0.962c0.306-0.396,0.886-0.725,1.304-0.788c0.753-0.112,1.141-0.501,1.948-0.244
			c0.432,0.138,0.614,0.224,0.959,0.229c0.694,0.009,1.35-0.108,1.703-0.04c0.485,0.102,0.944-0.071,1.177,0.437
			c0.059,0.129,0.416,0.776,0.516,0.897c0.601,0.72,1.143-1.148,1.504-1.998c0.306-0.713,0.946-2.598,3.158-3.498
			c0.65-0.262,1.474,0.17,2.646-0.305c0.866-0.353,1.274,0.101,1.933,0.261c1.027,0.245,2.018,0.377,2.622,1.203
			c0.743,1.012,1.419,1.515,1.714,2.503c0.489,1.635,0.452,2.222,0.75,3.056c0.153,0.429,0.069,0.999,0.102,1.372
			c0.026,0.307,0.152,0.699,0.07,1.005c-0.242,0.961-0.461,1.266-0.578,1.754c-0.235,0.976-0.247,1.343-0.879,1.871
			c-0.945,0.788-1.809,0.792-1.345,1.932c0.071,0.179,0.397,0.784,0.509,0.946c0.201,0.297,0.369,1.174,0.493,1.484
			c0.644,1.583-0.006,2.987-0.539,4.685c-0.147,0.467-0.428,0.56-0.662,1.113c-0.162,0.384-0.818,0.765-1.02,1.127
			c-0.327,0.591-1.548,0.802-2.192,1.066c-0.589,0.24-1.242,0.583-1.95,0.438c-0.496-0.102-0.999-0.044-1.558,0.095
			c-0.539,0.132-1.518-0.02-1.936-0.367c-0.368-0.305-0.949-0.279-1.343-0.655C141.18,98.689,140.47,98.41,139.967,97.181z"/>
		<path fill="#CB2127" d="M155.619,90.894c-0.201-0.547-0.122-0.937-0.386-1.47c-0.106,0.053-0.334-0.125-0.452-0.109
			c0.106-0.559,1.004-1.09,1.316-1.618c0.386-0.662,0.589-1.418,0.813-2.144c0.303-0.987,0.461-2.007,0.443-3.039
			c-0.027-2.22-0.778-4.458-2.001-6.3c-2.143-3.211-6.176-4.817-9.952-4.044c-1.226,0.251-2.564,0.964-3.487,1.812
			c-0.816,0.754-1.236,1.864-2.071,2.588c-0.87,0.756-1.504,0.229-2.495,0.073c-0.975-0.155-2.124-0.125-3.076,0.163
			c-2.841,0.865-5.062,2.589-6.253,5.333c-0.7,1.609-0.933,3.362-0.576,5.092c0.595,2.855,2.471,6.091,5.13,7.424
			c1.518,0.763,3.074,0.974,4.713,1.288c-0.648,0.497,1.21,3.016,1.467,3.656c0.525,1.297,1.459,1.797,2.677,2.365
			c1.108,0.517,2.155,1.305,3.395,1.28c1.818-0.035,3.346,0.22,5.082-0.487c1.671-0.676,2.938-2.3,4.302-3.404
			c0.996-0.808,1.077-1.795,1.591-2.924c0.522-1.15,0.927-2.491,0.662-3.769c-0.137-0.663-0.591-1.113-0.828-1.725
			C155.629,90.919,155.624,90.907,155.619,90.894z M140.011,98.033c-0.663-0.664-0.972-2.281-1.331-3.146
			c-0.405-0.982,0.058-1.563-1.457-1.307c-1.037,0.175-1.49,0.054-2.515-0.327c-0.904-0.339-2.047-1.067-2.799-1.67
			c-1.205-0.974-2.324-2.772-2.735-4.264c-0.856-3.123,1.377-6.959,4.358-8.241c0.723-0.312,1.838-0.556,2.62-0.653
			c0.595-0.074,1.403-0.204,2.004-0.114c0.64,0.096,0.849,0.261,1.418,0.497c0.602,0.249,0.892,0.087,1.216-0.044
			c0.92-0.374,0.615-0.753,1.002-1.573c0.469-1.003,1.248-2.005,2.226-2.57c1.642-0.948,4.373-1.104,6.146-0.405
			c3.572,1.406,6.365,6.927,5.26,10.544c-0.272,0.902-0.811,2.39-1.414,3.115c-0.312,0.375-0.631,0.778-0.967,1.134
			c-0.64,0.673,0.012,0.774,0.368,1.494c0.449,0.913,0.536,1.949,0.573,2.985c0.041,1.073-0.025,2.735-0.515,3.707
			c-0.546,1.078-2.317,2.238-3.259,2.944c-1.527,1.15-2.92,1.553-4.726,1.338C144.851,101.4,142.429,100.467,140.011,98.033z"/>
		
			<radialGradient id="SVGID_4_" cx="1503.6013" cy="-342.7896" r="16.8929" gradientTransform="matrix(-0.559 -0.8292 0.8292 -0.559 1270.0167 1143.9752)" gradientUnits="userSpaceOnUse">
			<stop  offset="0.0522" style="stop-color:#FFF5A9"/>
			<stop  offset="0.2738" style="stop-color:#FFF3A8"/>
			<stop  offset="0.3787" style="stop-color:#FEEBA4"/>
			<stop  offset="0.459" style="stop-color:#FDDE9C"/>
			<stop  offset="0.5269" style="stop-color:#FBCC92"/>
			<stop  offset="0.5862" style="stop-color:#F9B485"/>
			<stop  offset="0.6257" style="stop-color:#F7A079"/>
			<stop  offset="0.6677" style="stop-color:#F58E6B"/>
			<stop  offset="0.7513" style="stop-color:#F16146"/>
			<stop  offset="0.7656" style="stop-color:#F0583F"/>
			<stop  offset="0.8949" style="stop-color:#E34125"/>
			<stop  offset="1" style="stop-color:#D13527"/>
		</radialGradient>
		<path fill="url(#SVGID_4_)" d="M152.006,100.658c1.118-0.881,2.264-1.97,2.729-3.328c0.299-0.866,0.812-1.61,1.048-2.511
			c0.237-0.902,0.274-2.019-0.151-2.872c-0.085-0.167-0.601-0.657-0.584-1.077c0.03-0.766-0.572-0.95-0.768-1.432
			c0.069-0.522,0.407-0.61,0.534-0.799c2.292-3.413,2.007-4.463,1.833-7.082c-0.202-3.055-1.857-5.978-4.514-7.582
			c-2.281-1.38-5.372-1.855-7.852-0.679c-0.928,0.439-1.916,0.965-2.639,1.775c-0.244,0.274-0.647,1.075-1.097,1.714
			c-0.154,0.225-0.165,0.512-0.315,0.527c-0.398,0.041-0.619,0.398-0.832,0.35c-0.977-0.226-1.864-0.759-2.872-0.812
			c-1.203-0.066-1.984,0.428-3.067,0.831c-1.089,0.415-2.563,1.091-3.21,2.093c-0.51,0.786-1.314,1.333-1.586,2.247
			c-0.261,0.884-0.73,1.901-0.669,2.827c0.058,0.833-0.054,1.689,0.102,2.515c0.154,0.812,0.653,1.443,0.992,2.183
			c0.34,0.75,0.706,1.502,1.145,2.196c1.071,1.682,3.112,3.026,5.074,3.397c0.526,0.101,1.05,0.226,1.585,0.194
			c0.189-0.01,0.505,0.007,0.568,0.174c0.012,0.026-0.006,0.518,0.001,0.549c0.142,0.951,0.551,1.471,0.972,2.313
			c0.324,0.642,0.384,1.254,0.896,1.795c0.644,0.686,1.499,1.091,2.332,1.487c0.693,0.327,1.451,0.887,2.2,1.052
			c0.533,0.122,1.099-0.008,1.639,0.003c0.671,0.015,1.338,0.067,2.004,0.081C149.114,102.825,150.783,101.613,152.006,100.658z
			 M150.19,99.475c-1.483-0.005-2.367,1.42-3.963,1.158c-0.717-0.122-2.494,0.534-4.31-0.966c-0.963-0.794-1.481-1.356-1.898-2.655
			c-0.258-0.792-0.533-1.636-0.893-2.362c-0.266-0.527,2.033-2.812,1.454-3.199c-0.232-0.153-0.629-0.502-1.213-0.077
			c-1.039,0.75-2.767,1.846-3.477,1.93c-0.972,0.11-2.227-0.517-3.012-1.093c-2.085-1.541-3.805-5.857-2.827-7.324
			c0.304-0.455,0.204-1.782,0.4-2.283c0.97-2.461,4.02-4.671,6.35-3.685c0.541,0.227,2.918-0.029,2.982,0.66
			c0.098,1.063,0.981,1.875,1.341,2.357c0.238,0.323,0.522-0.036,0.862-0.161c1.076-0.408,0.071-3.51,0.597-4.419
			c0.705-1.218,2.003-2.887,3.4-2.698c0.737,0.1,2.209-0.475,3.025-0.305c0.998,0.21,2.757,0.784,3.454,1.516
			c0.531,0.561,1.151,1.251,1.734,2.384c0.543,1.066,0.507,2.237,0.679,2.903c0.211,0.837,0.257,1.61,0.277,2.485
			c0.029,1.163-0.92,1.957-1.15,3.123c-0.198,0.998-1.009,0.813-1.593,0.733c-0.547-0.078-3.013,0.323-2.978,0.691
			c0.102,1.032,1.935,1.108,2.329,1.74c0.456,0.729,0.969,1.733,1.45,2.445c0.463,0.684,0.341,1.861,0.124,2.742
			c-0.342,1.356-0.362,2.21-1.383,3.089C151.595,98.506,150.907,99.472,150.19,99.475z"/>
	</g>
	<g>
		<path fill="#B62025" d="M65.651,116.117c0.501,2.176,2.979,3.297,5.417,3.503c2.983,0.251,5.596-1.861,5.839-4.721
			c0.116-1.373-0.068-2.649-0.903-3.656c0.993-0.85,1.388-2.074,1.504-3.455c0.24-2.859-1.982-5.378-4.97-5.631
			c-2.444-0.207-4.862,0.816-5.705,2.893c-3.332-0.998-6.501,1.576-6.777,4.865C59.778,113.209,62.198,116.549,65.651,116.117z
			 M65.255,106.011c0.233,0.021,1.054,0.261,1.514,0.249c0.757-0.017,1.196-0.233,1.479-0.931c0.503-1.236,2.337-1.945,4.176-1.79
			c2.038,0.173,3.857,2.269,3.696,4.184c-0.121,1.452-0.614,2.294-0.974,2.603c-0.711,0.603-0.876,1.271-0.279,1.987
			c0.306,0.366,0.954,1.085,0.832,2.533c-0.162,1.915-2.504,3.863-4.546,3.74c-2.543-0.155-4.177-1.253-4.475-2.549
			c-0.165-0.731,0.069-1.202-0.677-1.267c-0.116-0.007-0.538,0.003-0.654,0.017c-0.218,0.027-0.739-0.124-0.943-0.142
			c-2.002-0.165-3.287-2.663-3.121-4.596c0.083-0.986,0.695-2.177,1.438-2.844C63.457,106.541,64.329,105.932,65.255,106.011z"/>
		<path fill="#C03327" d="M65.969,115.535c0.441,1.949,2.663,2.953,4.84,3.135c2.669,0.227,5.009-1.665,5.223-4.218
			c0.106-1.235-0.06-2.372-0.808-3.274c0.889-0.76,1.242-1.858,1.347-3.089c0.215-2.559-1.774-4.814-4.444-5.036
			c-2.19-0.187-4.349,0.726-5.105,2.588c-2.981-0.896-5.812,1.407-6.061,4.348C60.713,112.937,62.879,115.923,65.969,115.535z
			 M65.612,106.501c0.207,0.015,0.949,0.139,1.36,0.129c0.677-0.016,1.122-0.095,1.315-0.743c0.173-0.571,0.411-1.029,1.148-1.379
			c0.286-0.133,0.574-0.283,0.88-0.318c0.629-0.07,1.172-0.331,1.771-0.16c0.296,0.087,0.824,0.118,1.221,0.248
			c0.774,0.258,0.537,0.607,1.003,0.793c0.95,0.378,1.098,0.817,1.263,1.41c0.079,0.282,0.012,0.554,0.153,0.856
			c0.117,0.248,0.133,0.61,0.06,0.829c-0.132,0.391-0.039,0.677-0.362,1.003c-0.173,0.18-0.259,0.245-0.345,0.409
			c-0.179,0.337-0.281,0.684-0.404,0.836c-0.169,0.213-0.195,0.477-0.502,0.464c-0.076-0.001-0.477,0.013-0.563,0.032
			c-0.498,0.114,0.277,0.837,0.6,1.223c0.27,0.324,1.028,1.101,0.92,2.398c-0.033,0.378-0.446,0.672-0.504,1.358
			c-0.043,0.505-0.365,0.592-0.605,0.875c-0.373,0.437-0.683,0.888-1.231,0.978c-0.676,0.11-1.086,0.316-1.636,0.214
			c-0.917-0.166-1.19-0.329-1.674-0.39c-0.242-0.031-0.5-0.212-0.687-0.288c-0.156-0.064-0.379-0.1-0.51-0.215
			c-0.405-0.355-0.496-0.533-0.706-0.714c-0.417-0.355-0.594-0.451-0.694-0.888c-0.149-0.653,0.062-1.073-0.605-1.128
			c-0.103-0.011-0.48-0.003-0.583,0.013c-0.197,0.022-0.663-0.108-0.844-0.125c-0.927-0.077-1.45-0.736-2.141-1.418
			c-0.191-0.186-0.169-0.347-0.378-0.594c-0.149-0.176-0.172-0.587-0.296-0.774c-0.205-0.304-0.01-0.949,0.023-1.326
			c0.027-0.347,0.022-0.747,0.267-1.057c0.173-0.217,0.268-0.475,0.339-0.781c0.069-0.294,0.382-0.732,0.656-0.848
			c0.238-0.105,0.367-0.393,0.648-0.492C64.579,106.716,64.89,106.439,65.612,106.501z"/>
		<path fill="#CB2127" d="M64.804,115.647c0.314,0.041,0.485,0.174,0.809,0.177c-0.001-0.067,0.143-0.131,0.167-0.191
			c0.242,0.189,0.276,0.755,0.46,1.036c0.225,0.353,0.544,0.637,0.84,0.926c0.405,0.391,0.862,0.718,1.364,0.965
			c1.086,0.533,2.358,0.719,3.556,0.58c2.088-0.246,3.86-1.811,4.415-3.835c0.184-0.658,0.166-1.484-0.018-2.14
			c-0.163-0.582-0.601-1.062-0.744-1.645c-0.152-0.608,0.258-0.785,0.579-1.228c0.315-0.436,0.582-1.003,0.677-1.536
			c0.283-1.59-0.008-3.096-1.044-4.352c-0.612-0.738-1.406-1.283-2.332-1.531c-1.534-0.42-3.568-0.305-4.871,0.657
			c-0.745,0.548-1.235,1.25-1.79,1.97c-0.08-0.435-1.76-0.158-2.137-0.19c-0.755-0.063-1.232,0.268-1.81,0.718
			c-0.523,0.413-1.164,0.723-1.457,1.33c-0.431,0.895-0.93,1.572-1.018,2.592c-0.084,0.977,0.395,1.992,0.591,2.93
			c0.149,0.68,0.608,0.964,1.03,1.491c0.428,0.538,0.982,1.066,1.667,1.252c0.357,0.097,0.688-0.011,1.044,0.024
			C64.789,115.646,64.795,115.649,64.804,115.647z M65.185,106.307c0.485-0.159,1.346,0.089,1.857,0.131
			c0.577,0.043,0.743,0.41,0.995-0.386c0.168-0.546,0.339-0.74,0.777-1.14c0.389-0.359,1.022-0.731,1.501-0.947
			c0.77-0.348,1.918-0.447,2.745-0.277c1.728,0.354,3.04,2.385,2.93,4.149c-0.028,0.427-0.185,1.031-0.332,1.433
			c-0.11,0.307-0.247,0.732-0.439,1.001c-0.203,0.287-0.335,0.35-0.589,0.565c-0.269,0.233-0.264,0.411-0.279,0.602
			c-0.045,0.54,0.212,0.489,0.515,0.876c0.373,0.474,0.67,1.101,0.699,1.714c0.059,1.033-0.543,2.399-1.319,3.087
			c-1.562,1.388-4.933,1.381-6.417-0.044c-0.372-0.359-0.961-0.985-1.164-1.457c-0.104-0.243-0.224-0.496-0.312-0.746
			c-0.169-0.481-0.378-0.186-0.813-0.193c-0.557-0.008-1.082-0.221-1.594-0.459c-0.529-0.245-1.324-0.687-1.672-1.163
			c-0.388-0.533-0.515-1.681-0.626-2.311c-0.181-1.022-0.036-1.798,0.516-2.622C62.358,107.825,63.407,106.882,65.185,106.307z"/>
		
			<radialGradient id="SVGID_5_" cx="1526.5085" cy="-417.7678" r="9.335" gradientTransform="matrix(-0.559 -0.8292 0.8292 -0.559 1270.0167 1143.9752)" gradientUnits="userSpaceOnUse">
			<stop  offset="0.0522" style="stop-color:#FFF5A9"/>
			<stop  offset="0.2738" style="stop-color:#FFF3A8"/>
			<stop  offset="0.3787" style="stop-color:#FEEBA4"/>
			<stop  offset="0.459" style="stop-color:#FDDE9C"/>
			<stop  offset="0.5269" style="stop-color:#FBCC92"/>
			<stop  offset="0.5862" style="stop-color:#F9B485"/>
			<stop  offset="0.6257" style="stop-color:#F7A079"/>
			<stop  offset="0.6677" style="stop-color:#F58E6B"/>
			<stop  offset="0.7513" style="stop-color:#F16146"/>
			<stop  offset="0.7656" style="stop-color:#F0583F"/>
			<stop  offset="0.8949" style="stop-color:#E34125"/>
			<stop  offset="1" style="stop-color:#D13527"/>
		</radialGradient>
		<path fill="url(#SVGID_5_)" d="M60.953,111.488c0.148,0.757,0.397,1.583,0.941,2.143c0.348,0.36,0.582,0.794,0.963,1.13
			c0.38,0.337,0.915,0.628,1.432,0.635c0.102,0,0.466-0.13,0.664-0.018c0.369,0.202,0.604-0.042,0.888-0.02
			c0.237,0.165,0.197,0.35,0.258,0.46c1.092,1.95,1.672,2.074,2.984,2.634c1.533,0.657,3.36,0.575,4.799-0.323
			c1.23-0.765,2.225-2.149,2.265-3.643c0.015-0.559,0.003-1.169-0.211-1.72c-0.071-0.187-0.36-0.58-0.563-0.958
			c-0.069-0.129-0.208-0.204-0.179-0.281c0.077-0.205-0.041-0.4,0.036-0.49c0.35-0.418,0.828-0.719,1.103-1.193
			c0.328-0.571,0.286-1.072,0.353-1.697c0.067-0.63,0.105-1.513-0.222-2.074c-0.256-0.443-0.326-0.968-0.702-1.326
			c-0.367-0.345-0.743-0.823-1.208-1.019c-0.417-0.179-0.804-0.445-1.246-0.572c-0.431-0.126-0.864-0.042-1.306-0.062
			c-0.446-0.018-0.902-0.024-1.349,0.018c-1.081,0.101-2.233,0.765-2.9,1.625c-0.177,0.231-0.367,0.455-0.486,0.724
			c-0.04,0.095-0.126,0.241-0.223,0.233c-0.015-0.003-0.252-0.131-0.265-0.135c-0.499-0.164-0.852-0.096-1.367-0.098
			c-0.389-0.002-0.701-0.124-1.091-0.009c-0.493,0.144-0.898,0.457-1.296,0.765c-0.331,0.257-0.791,0.49-1.053,0.809
			c-0.194,0.228-0.268,0.535-0.407,0.795c-0.173,0.325-0.362,0.634-0.537,0.956C60.613,109.547,60.79,110.659,60.953,111.488z
			 M61.979,110.897c0.365-0.72-0.111-1.5,0.413-2.21c0.235-0.321,0.351-1.344,1.528-1.856c0.626-0.27,1.026-0.382,1.759-0.266
			c0.447,0.07,0.925,0.145,1.366,0.151c0.323,0.001,0.866,1.679,1.197,1.492c0.132-0.074,0.399-0.182,0.334-0.567
			c-0.107-0.69-0.212-1.801-0.077-2.163c0.186-0.503,0.798-0.958,1.274-1.196c1.261-0.631,3.782-0.405,4.255,0.432
			c0.143,0.261,0.816,0.54,1.008,0.757c0.955,1.079,1.277,3.106,0.224,3.995c-0.245,0.207-0.706,1.422-1.057,1.283
			c-0.541-0.213-1.152,0.016-1.475,0.072c-0.215,0.034-0.112,0.261-0.135,0.457c-0.065,0.624,1.689,0.901,2,1.38
			c0.419,0.644,0.912,1.686,0.472,2.318c-0.23,0.333-0.317,1.19-0.598,1.542c-0.349,0.434-1.059,1.146-1.588,1.304
			c-0.404,0.12-0.889,0.249-1.584,0.254c-0.654,0.002-1.214-0.305-1.58-0.387c-0.459-0.101-0.846-0.272-1.272-0.478
			c-0.575-0.272-0.726-0.93-1.234-1.327c-0.435-0.344-0.147-0.69,0.035-0.957c0.175-0.244,0.588-1.541,0.399-1.614
			c-0.525-0.205-1.013,0.664-1.419,0.701c-0.465,0.041-1.078,0.043-1.544,0.099c-0.446,0.057-0.987-0.293-1.36-0.615
			c-0.575-0.499-0.986-0.72-1.16-1.434C62.1,111.817,61.799,111.243,61.979,110.897z"/>
	</g>
	<g>
		<path fill="#EC5923" d="M116.361,156.527c0,0,1.001,1.021,2.698,0.369c1.692-0.654,3.331-1.919,4.344-2.108
			c1.018-0.19,3.237,0.375,5.566-2.5c2.332-2.878,3.32-6.576,4.356-8.322c1.035-1.744,3.523-6.572,3.143-8.807
			c-0.378-2.233-2.349-6.714-5.466-5.94c-3.113,0.77-4.359,3.252-5.114,4.259c-0.752,1.004-4.477,7.44-5.232,8.444
			c-0.758,1.005-5.536,11.145-5.547,12.09C115.096,154.958,115.22,155.971,116.361,156.527z"/>
		<path fill="#CF4427" d="M116.745,155.738l0.135,0.073l0.093,0.089c0.067,0.065,0.682,0.603,1.771,0.18
			c0.15-0.056,0.296-0.137,0.443-0.204c-0.513-0.428-1.028-0.992-1.294-1.692c-0.632-1.66,0.953-2.936,2.327-4.81
			c1.375-1.875,9.104-14.511,10.34-16.206c0.971-1.337,3.023-1.181,3.838-1.058c-0.42-0.71-0.932-1.345-1.518-1.728
			c-0.543-0.355-1.089-0.457-1.665-0.316c-2.341,0.581-3.486,2.268-4.244,3.384c-0.14,0.211-0.268,0.397-0.384,0.552
			c-0.35,0.468-1.527,2.422-2.565,4.149c-1.163,1.931-2.261,3.76-2.668,4.299c-0.651,0.864-5.142,10.357-5.372,11.609
			C115.973,155.035,116.166,155.46,116.745,155.738z"/>
		<path fill="#F6A120" d="M119.913,155.538c0.342-0.179,0.68-0.367,1.01-0.555c0.881-0.495,1.641-0.929,2.321-1.052
			c0.254-0.049,0.534-0.062,0.826-0.07c1.09-0.043,2.581-0.099,4.22-2.123c1.458-1.801,2.388-3.995,3.133-5.761
			c0.409-0.969,0.767-1.81,1.152-2.456c0.4-0.676,0.881-1.575,1.339-2.537c-1.689,2.633-4.744,7.328-5.594,8.17
			c-1.187,1.184-1.694,2.617-2.802,2.846c-1.111,0.226-2.209-0.438-2.898,0.081c-0.684,0.518-2.846,2.584-2.846,2.584
			L119.913,155.538z"/>
		<path fill="#F6A120" d="M134.401,134.004c0,0,1.143,2.47-0.251,5.306c0,0-1.208,0.667-1.049-0.472
			c0.159-1.139,0.01-4.749-0.471-5.109C132.147,133.367,133.66,132.915,134.401,134.004z"/>
		<g>
			<path opacity="0.24" fill="#754F37" d="M150.607,130.784c-0.514-0.096-1.547-0.247-2.786-0.217
				c2.199-0.854,3.73-2.089,3.73-2.089s-2.17,0.012-4.543,0.862c-0.297,0.109-0.584,0.223-0.857,0.342
				c-0.52,0.225-0.972,0.464-1.384,0.696c-0.463-0.135-0.953-0.26-1.48-0.355c-0.232-0.041-0.451-0.063-0.674-0.093
				c0.356-0.31,0.726-0.65,1.088-1.055c0.613-0.675,1.102-1.372,1.471-1.968c0.565-0.424,0.894-0.739,0.894-0.739l0,0l0,0
				c0,0-0.112,0.009-0.294,0.035c-0.018,0.003-0.041,0.006-0.06,0.009c-0.042,0.005-0.101,0.017-0.148,0.025
				c0.284-0.519,0.439-0.869,0.439-0.869s-0.657,0.349-1.521,1.018c-0.042,0.031-0.089,0.073-0.13,0.106
				c-0.252,0.066-0.517,0.144-0.797,0.234c0.073-0.171,0.142-0.34,0.203-0.5c1.335-1.295,2.101-2.503,2.101-2.503
				s-0.64,0.231-1.545,0.696c0.02-0.075,0.032-0.127,0.032-0.127s-0.093,0.076-0.248,0.222c-0.01,0.009-0.027,0.027-0.041,0.041
				c-0.668,0.359-1.444,0.838-2.219,1.452c-0.243,0.199-0.477,0.401-0.7,0.599c-1.286,1.175-2.105,2.345-2.342,2.699l-0.117,0.029
				c0.325-0.368,0.662-0.77,0.992-1.242c1.283-1.864,1.818-3.782,1.818-3.782l0,0l0,0c0,0-0.606,0.43-1.374,1.208
				c-0.294,0.294-0.606,0.641-0.919,1.03c0.337-1.15,0.427-2.018,0.427-2.018s-0.074,0.078-0.203,0.224
				c-0.084,0.095-0.197,0.231-0.32,0.383c0.422-1.442,0.506-2.564,0.506-2.564s-0.511,0.543-1.111,1.454
				c-0.28,0.428-0.579,0.944-0.858,1.517c0.262-1.9,0.051-3.454,0.051-3.454s-0.06,0.103-0.159,0.29
				c-0.299,0.562-0.939,1.893-1.268,3.557c-0.169,0.834-0.233,1.633-0.25,2.303c-0.021,0.839,0.031,1.467,0.06,1.737l-2.65,0.653
				l-0.323-0.028l-0.009,0.11l-0.219,0.054c0.28-0.427,1.116-1.774,1.621-3.568c0.615-2.177,0.5-4.166,0.5-4.166l0,0
				c0,0-0.434,0.604-0.91,1.587c-0.18,0.372-0.362,0.801-0.536,1.271c-0.05-1.195-0.246-2.045-0.246-2.045s-0.049,0.097-0.12,0.275
				c-0.223,0.533-0.685,1.791-0.844,3.326c-0.05,0.51-0.067,1.005-0.057,1.456c0.019,0.856,0.119,1.554,0.189,1.962l-3.381,0.832
				l0.156,0.639l2.437-0.602c0.036,0.042,0.075,0.086,0.134,0.15c0.209,0.236,0.573,0.621,1.058,1.057
				c0.488,0.434,1.097,0.919,1.806,1.361c0.711,0.441,1.413,0.775,2.019,1.021c1.008,0.409,1.737,0.571,1.737,0.571l0,0l0,0
				c0,0-0.548-0.677-1.473-1.477c0.101,0.025,0.203,0.048,0.302,0.07c0.099,0.129,0.181,0.259,0.289,0.388
				c0.529,0.647,1.085,1.191,1.581,1.618c0.82,0.713,1.457,1.102,1.457,1.102l0,0l0,0c0,0-0.298-0.819-0.917-1.874
				c0.12,0.076,0.24,0.153,0.353,0.219c0.877,0.512,1.529,0.758,1.529,0.758s-0.905-1.537-2.495-2.877
				c-0.397-0.333-0.797-0.62-1.177-0.866c0.123,0.068,0.221,0.138,0.348,0.204c0.822,0.41,1.591,0.669,2.253,0.859
				c0.246,0.305,0.497,0.615,0.799,0.922c0.782,0.795,1.601,1.401,2.225,1.809c0.625,0.409,1.054,0.62,1.054,0.62l0,0l0,0
				c0,0-0.465-0.987-1.359-2.154c0.056,0.037,0.116,0.079,0.173,0.113c0.764,0.462,1.498,0.805,2.084,1.049
				c0.781,0.324,1.305,0.468,1.305,0.468s-1.27-1.76-3.341-3.201c-0.253-0.176-0.5-0.325-0.75-0.476
				c0.612,0.038,1.061,0.031,1.252,0.026c0.202,0.208,0.395,0.413,0.648,0.644c0.362,0.326,0.773,0.662,1.225,0.982
				c1.822,1.282,3.664,1.799,3.664,1.799s-0.184-0.253-0.514-0.634c1.041,0.345,1.774,0.475,1.774,0.475s-1.438-1.623-3.643-2.851
				c-1.431-0.796-2.823-1.225-3.63-1.429c-0.01-0.006-0.019-0.007-0.026-0.01l0.096,0.008l0.028-0.336
				c1.659,0.326,2.966,0.262,2.966,0.262s-0.121-0.082-0.299-0.193c0.279-0.009,0.559-0.016,0.856-0.045
				c2.179-0.21,3.886-1.005,3.886-1.005l0,0l0,0c0,0-0.109-0.027-0.293-0.063C150.646,130.791,150.624,130.79,150.607,130.784z
				 M136.9,129.449c-0.03,0.118-0.067,0.237-0.094,0.345l-0.225,0.056C136.666,129.75,136.784,129.604,136.9,129.449z
				 M136.443,129.457c-0.029,0.189-0.046,0.335-0.059,0.442l-0.193,0.047C136.255,129.832,136.335,129.673,136.443,129.457z
				 M135.446,130.807L135.446,130.807L135.446,130.807L135.446,130.807z M132.76,130.732c0,0.019,0,0.044,0,0.059l-0.028,0.007
				C132.743,130.777,132.748,130.757,132.76,130.732z M135.765,132.817c-0.999-0.389-1.956-0.591-2.648-0.697
				c-0.566-0.217-1.014-0.353-1.275-0.424l1.627-0.403l2.073,0.183c0.02,0.049,0.042,0.105,0.077,0.181
				c0.122,0.295,0.34,0.774,0.661,1.344c0.01,0.015,0.019,0.032,0.029,0.046C136.132,132.968,135.955,132.89,135.765,132.817z
				 M136.001,130.67l0.642-0.158c-0.014,0.063-0.025,0.131-0.036,0.185C136.387,130.685,136.174,130.672,136.001,130.67z
				 M136.777,132.305c-0.071-0.06-0.126-0.097-0.191-0.153c0.097,0.067,0.165,0.128,0.267,0.196
				C136.828,132.336,136.8,132.316,136.777,132.305z M141.005,128.997c-0.08,0.193-0.169,0.392-0.236,0.572
				c-0.032,0.081-0.052,0.152-0.08,0.231c-0.509-0.001-0.965,0.016-1.302,0.044c-0.009,0-0.019,0-0.026-0.001l0.094-0.023
				l-0.11-0.444C139.731,129.316,140.325,129.193,141.005,128.997z M140.264,131.23l-0.722-0.064
				c-0.852-0.223-1.646-0.349-2.326-0.415c0.157-0.13,0.354-0.304,0.592-0.526l0.978-0.24c0.16,0.085,0.503,0.257,0.97,0.457
				c0.025,0.013,0.04,0.024,0.066,0.038c0.156,0.088,0.377,0.183,0.566,0.275C140.33,130.956,140.291,131.124,140.264,131.23z
				 M140.584,131.258l-0.197-0.017c0.083-0.074,0.202-0.19,0.335-0.321c0.009,0.004,0.016,0.006,0.027,0.012
				C140.684,131.06,140.626,131.179,140.584,131.258z M140.787,131.277c0.082-0.047,0.199-0.126,0.299-0.193
				c0.246,0.103,0.529,0.193,0.798,0.289L140.787,131.277z M143.603,132.863c0.019,0.021,0.03,0.037,0.051,0.057
				c0.012,0.014,0.037,0.034,0.047,0.048c-0.345-0.217-0.955-0.568-1.734-0.93l0.863,0.076
				C142.954,132.249,143.221,132.521,143.603,132.863z"/>
			<path fill="#538442" d="M139.978,130.273h-3.295c0.374-0.346,1.505-1.455,2.424-3.075c1.118-1.967,1.482-3.924,1.482-3.924
				l0.002-0.002h-0.002l0,0c0,0-0.564,0.483-1.26,1.324c-0.266,0.319-0.546,0.691-0.823,1.105c0.233-1.173,0.247-2.045,0.247-2.045
				s-0.07,0.083-0.181,0.237c-0.348,0.465-1.097,1.578-1.614,3.031c-0.175,0.483-0.305,0.96-0.405,1.401
				c-0.187,0.833-0.26,1.534-0.29,1.948h-3.482v0.658h2.512c0.024,0.048,0.05,0.1,0.091,0.174c0.147,0.284,0.408,0.743,0.776,1.282
				c0.372,0.538,0.847,1.156,1.429,1.754c0.58,0.596,1.189,1.089,1.718,1.473c0.88,0.637,1.549,0.969,1.549,0.969l0,0l0,0
				c0,0-0.37-0.789-1.079-1.787c0.125,0.066,0.25,0.13,0.372,0.187c0.919,0.433,1.59,0.621,1.59,0.621l0,0l0,0
				c0,0-1.037-1.453-2.737-2.647c-0.88-0.617-1.76-1.04-2.406-1.309c-0.496-0.348-0.903-0.589-1.136-0.717h3.291
				c0.026,0.04,0.047,0.073,0.084,0.13c0.119,0.178,0.29,0.431,0.516,0.725c0.223,0.298,0.504,0.641,0.835,0.998
				c0.324,0.358,0.704,0.734,1.128,1.095c0.845,0.721,1.714,1.254,2.374,1.606c0.657,0.353,1.102,0.525,1.102,0.525l0,0l0,0
				c0,0-0.547-0.941-1.542-2.025c0.062,0.03,0.122,0.067,0.182,0.096c0.802,0.392,1.562,0.672,2.167,0.862
				c0.808,0.253,1.341,0.351,1.341,0.351l0,0l0,0c0,0-1.416-1.64-3.607-2.895c-1.405-0.804-2.78-1.251-3.588-1.469h2.865
				c0.136,0.123,0.429,0.37,0.835,0.678c0.02,0.018,0.037,0.033,0.056,0.051c0.274,0.253,0.61,0.538,0.996,0.832
				c0.386,0.293,0.828,0.592,1.307,0.872c1.923,1.117,3.804,1.47,3.804,1.47s-0.207-0.236-0.564-0.586
				c1.062,0.252,1.807,0.32,1.807,0.32l-0.003-0.003h0.003c0,0-1.574-1.491-3.879-2.519c-1.495-0.669-2.918-0.975-3.741-1.108
				c-0.011-0.003-0.016-0.005-0.026-0.007h0.096v-0.457c0.689,0.06,2.024,0.111,3.514-0.166c2.149-0.402,3.78-1.34,3.78-1.341l0,0
				l0,0l0,0c0,0-0.112-0.016-0.296-0.036c-0.02-0.003-0.04-0.003-0.061-0.007c-0.518-0.05-1.56-0.11-2.79,0.027
				c2.109-1.042,3.53-2.407,3.53-2.407s-2.157,0.201-4.449,1.258c-0.287,0.132-0.565,0.269-0.823,0.413
				c-1.533,0.832-2.608,1.769-2.924,2.057h-2.281c0.516-0.375,1.668-1.292,2.693-2.644c1.367-1.804,1.987-3.697,1.987-3.697
				s-0.626,0.403-1.428,1.145c-0.376,0.348-0.788,0.778-1.194,1.266c0.706-1.78,0.874-3.339,0.874-3.339s-0.085,0.084-0.225,0.242
				c-0.426,0.473-1.361,1.612-2.083,3.15c-0.36,0.77-0.614,1.529-0.793,2.176C140.111,129.383,140.015,130.003,139.978,130.273z
				 M140.299,130.273h-0.198c0.09-0.095,0.21-0.228,0.361-0.416C140.391,130.033,140.334,130.172,140.299,130.273z M139.3,131.067
				c-0.108-0.054-0.205-0.098-0.285-0.136h0.156C139.212,130.972,139.246,131.011,139.3,131.067z M136.58,130.216
				c-0.004,0.019-0.011,0.043-0.014,0.057h-0.029C136.554,130.254,136.565,130.236,136.58,130.216z"/>
			<path fill="#8FAD3D" d="M135.69,129.39l-3.12,1.065c0.243-0.447,0.955-1.863,1.303-3.694c0.423-2.224,0.135-4.192,0.135-4.192
				v-0.003l0,0l0,0c0,0-0.381,0.639-0.769,1.661c-0.146,0.386-0.293,0.831-0.42,1.313c-0.158-1.187-0.428-2.016-0.428-2.016
				s-0.038,0.1-0.097,0.284c-0.171,0.551-0.523,1.846-0.546,3.389c-0.008,0.514,0.022,1.006,0.071,1.458
				c0.094,0.849,0.25,1.534,0.357,1.934l-3.294,1.127l0.21,0.621l2.379-0.81c0.035,0.037,0.079,0.079,0.141,0.137
				c0.233,0.218,0.626,0.569,1.15,0.959c0.523,0.391,1.174,0.822,1.917,1.198c0.746,0.379,1.478,0.651,2.104,0.841
				c1.038,0.32,1.778,0.416,1.778,0.416l0,0l0,0c0,0-0.604-0.626-1.597-1.341c0.139,0.02,0.279,0.043,0.411,0.057
				c1.009,0.112,1.704,0.073,1.704,0.073l0,0l0,0c0,0-1.448-1.042-3.445-1.62c-1.028-0.3-1.999-0.417-2.699-0.463
				c-0.585-0.167-1.045-0.265-1.309-0.311l3.118-1.067c0.039,0.03,0.069,0.058,0.123,0.098c0.168,0.13,0.411,0.313,0.721,0.52
				c0.31,0.209,0.685,0.442,1.109,0.677c0.428,0.231,0.905,0.464,1.422,0.669c1.036,0.409,2.031,0.633,2.767,0.753
				c0.737,0.121,1.213,0.14,1.213,0.14l0,0l0,0c0,0-0.822-0.713-2.115-1.418c0.067,0.011,0.139,0.024,0.205,0.033
				c0.886,0.111,1.695,0.13,2.33,0.114c0.846-0.019,1.382-0.099,1.382-0.099l0,0l0,0c0,0-1.87-1.096-4.35-1.575
				c-1.59-0.308-3.034-0.285-3.871-0.23l2.712-0.927c0.168,0.072,0.525,0.212,1.009,0.372c0.023,0.011,0.042,0.02,0.069,0.033
				c0.341,0.147,0.752,0.31,1.215,0.463c0.46,0.152,0.972,0.294,1.519,0.404c2.18,0.434,4.076,0.162,4.076,0.162
				s-0.271-0.158-0.727-0.372c1.09-0.104,1.814-0.284,1.814-0.284l0,0l0,0c0,0-1.971-0.904-4.483-1.132
				c-1.633-0.15-3.081,0.021-3.902,0.16c-0.011,0.001-0.017,0.001-0.024,0.001l0.091-0.031l-0.151-0.43
				c0.673-0.169,1.951-0.549,3.269-1.293c1.908-1.076,3.147-2.492,3.147-2.492l0,0l0,0l0,0c0,0-0.109,0.019-0.291,0.063
				c-0.019,0.003-0.04,0.007-0.059,0.012c-0.509,0.122-1.515,0.401-2.633,0.93c1.662-1.67,2.564-3.421,2.564-3.421
				s-1.979,0.888-3.804,2.626c-0.229,0.221-0.448,0.438-0.646,0.658c-1.181,1.284-1.895,2.517-2.101,2.892l-2.157,0.738
				c0.366-0.522,1.159-1.763,1.694-3.374c0.71-2.149,0.685-4.14,0.685-4.14s-0.463,0.582-0.981,1.547
				c-0.246,0.45-0.493,0.989-0.722,1.584c0.092-1.916-0.251-3.444-0.251-3.444s-0.053,0.108-0.135,0.303
				c-0.25,0.585-0.767,1.966-0.955,3.655c-0.093,0.844-0.087,1.645-0.046,2.315C135.53,128.504,135.64,129.124,135.69,129.39z
				 M135.995,129.287l-0.189,0.064c0.052-0.12,0.124-0.284,0.21-0.512C136.002,129.031,135.995,129.177,135.995,129.287z
				 M135.306,130.359c-0.122-0.015-0.225-0.027-0.317-0.035l0.152-0.052C135.19,130.299,135.237,130.325,135.306,130.359z
				 M132.458,130.434c0,0.018,0.002,0.044,0.006,0.058l-0.026,0.01C132.442,130.478,132.448,130.459,132.458,130.434z"/>
		</g>
	</g>
	<g>
		<g>
			<path fill="#102D19" d="M85.875,50.524l2.164-0.141c3.736-0.243,7.358,1.318,9.743,4.198l5.222,6.305
				c3.534,4.264,5.628,9.533,5.991,15.059l0.854,13.011c0,0-0.943,6.509-6.032,1.623c-5.083-4.878-22.37-24.005-23.249-30.325
				c-0.248-1.793-0.236-3.332-0.092-4.619C80.79,52.853,83.08,50.704,85.875,50.524z"/>
			<path fill="#0D150E" d="M104.784,89.579c1.279,1.229,2.146,1.526,2.53,1.398c0.539-0.184,0.986-1.293,1.136-2.092l-0.407-6.237
				c-1.152,0.323-3.866,0.429-6.503-1.72c-2.703-2.197-10.269-14.14-13.221-19.797c-1.94-3.713-0.907-7.315,0.031-9.363
				c-0.073,0-0.146-0.003-0.219,0.003l-2.166,0.139c-2.142,0.139-3.867,1.772-4.104,3.879c-0.15,1.338-0.119,2.77,0.09,4.273
				c0.083,0.589,0.426,1.724,1.608,3.786C88.284,72.095,100.819,85.771,104.784,89.579z"/>
		</g>
		<path fill="#0D150E" d="M104.76,92.532c0.313-0.759,0.412-1.451,0.412-1.451l-0.854-13.01c-0.363-5.528-2.459-10.796-5.991-15.06
			l-5.223-6.305c-0.422-0.508-0.896-0.96-1.386-1.387c1.667,8.856,4.143,17.996,5.06,20.816c0.25,0.78,0.544,1.462,0.868,2.028
			c1.05,1.826,2.342,2.273,3.244,2.328c0.155,0.008,0.297-0.022,0.443-0.031c-0.893,2.479-1.556,4.462-1.88,5.545
			c-0.638,2.134-0.615,3.755,0.07,4.943C100.65,92.916,103.096,92.926,104.76,92.532z"/>
	</g>
	<g>
		<g>
			<path fill="#E91E25" d="M136.846,148.36c-5.219,1.83-6.139,7.888-6.139,7.888c-0.198,2.76,1.144,5.364,2.327,6.98
				c1.183,1.617,3.51,3.391,7.592,3.667c4.082,0.276,6.645-1.853,8.618-5.19c1.971-3.336,1.103-6.642-0.609-9.876
				C146.924,148.597,142.065,146.531,136.846,148.36z"/>
			<path fill="#C52026" d="M148.845,151.72c-0.328-0.619-0.766-1.198-1.303-1.72c-0.536-0.521-1.16-0.976-1.855-1.354
				c-1.451-0.789-3.152-1.207-4.919-1.207v0.237v-0.237c-1.332,0-2.678,0.235-4,0.698c-1.224,0.429-2.317,1.123-3.251,2.06
				c-0.743,0.748-1.385,1.652-1.909,2.686c-0.889,1.758-1.125,3.266-1.135,3.329l-0.001,0.009l-0.001,0.01
				c-0.091,1.283,0.131,2.635,0.662,4.02c0.515,1.348,1.215,2.439,1.71,3.117c0.329,0.448,0.715,0.87,1.146,1.254
				c0.49,0.435,1.043,0.822,1.641,1.151c1.41,0.774,3.087,1.231,4.981,1.359c0.24,0.016,0.48,0.025,0.714,0.025
				c0.919,0,1.794-0.129,2.601-0.384c0.768-0.243,1.502-0.609,2.179-1.088c1.229-0.869,2.322-2.132,3.343-3.858
				c0.487-0.826,0.826-1.69,1.005-2.569c0.166-0.817,0.202-1.677,0.104-2.554c-0.09-0.807-0.288-1.629-0.604-2.514
				C149.677,153.414,149.315,152.607,148.845,151.72z M149.244,161.706c-1.858,3.142-4.239,5.214-7.92,5.214
				c-0.229,0-0.46-0.008-0.698-0.024c-4.082-0.276-6.41-2.051-7.592-3.667c-1.183-1.617-2.524-4.22-2.327-6.98
				c0,0,0.92-6.058,6.139-7.888c1.347-0.472,2.67-0.685,3.922-0.685c3.596,0,6.598,1.756,7.867,4.155
				C150.347,155.065,151.215,158.37,149.244,161.706z"/>
		</g>
		<path fill="#F26B48" d="M146.523,162.873c0.355,0.039,1.262,0.118,2.113-0.826c0.852-0.944,1.988-5.563,0-9.546
			c-1.988-3.983-6.649-4.062-7.158-4.041c-0.51,0.021-0.831,1.083-1.146,1.163c-0.316,0.079-0.631-1.341-1.933-1.144
			c-1.301,0.197-4.421,1.606-6.035,4.141c-1.612,2.535-0.828,6.553-0.828,6.553c0.847,2.529,2.17,4.016,2.643,3.938
			c0.473-0.079,0.947-0.355,0.868,0.079c-0.079,0.434-0.198,1.538,2.326,2.367c2.524,0.828,6.114,0.079,7.3-0.237
			c1.187-0.316,1.732-1.341,1.575-1.775C146.088,163.11,146.167,162.834,146.523,162.873z"/>
		<path fill="#F5845C" d="M146.458,162.534c0.032,0,0.067,0.002,0.101,0.006c0.086,0.01,0.182,0.019,0.294,0.019
			c0.578,0,1.094-0.248,1.534-0.736c0.375-0.416,0.845-1.761,0.98-3.436c0.075-0.944,0.041-1.884-0.104-2.794
			c-0.166-1.054-0.478-2.044-0.927-2.942c-1.872-3.75-6.253-3.858-6.747-3.858c-0.051,0-0.084,0.001-0.098,0.002
			c-0.026,0.001-0.085,0.033-0.166,0.122c-0.101,0.11-0.201,0.264-0.296,0.414c-0.19,0.296-0.355,0.552-0.617,0.617
			c-0.035,0.009-0.07,0.013-0.106,0.013c-0.267,0-0.43-0.219-0.601-0.451c-0.235-0.318-0.529-0.715-1.064-0.715
			c-0.061,0-0.127,0.005-0.192,0.015c-0.542,0.082-1.595,0.432-2.777,1.149c-0.904,0.548-2.163,1.486-3.024,2.841
			c-0.789,1.239-0.961,2.878-0.968,4.035c-0.006,1.175,0.155,2.107,0.181,2.253c0.348,1.033,0.822,2.003,1.335,2.733
			c0.473,0.673,0.832,0.931,0.944,0.956c0.102-0.018,0.208-0.047,0.311-0.076c0.159-0.044,0.309-0.086,0.447-0.086
			c0.202,0,0.32,0.09,0.384,0.166c0.098,0.118,0.13,0.275,0.095,0.468c-0.055,0.303-0.223,1.225,2.102,1.988
			c0.729,0.239,1.619,0.36,2.647,0.36c2.092,0,4.083-0.501,4.462-0.602c0.816-0.217,1.16-0.77,1.246-0.934
			c0.105-0.202,0.117-0.354,0.099-0.402c-0.135-0.373-0.13-0.668,0.017-0.878C146.06,162.622,146.24,162.534,146.458,162.534z"/>
		<path fill="#F2A579" d="M143.869,159.77c0.468-0.044,1.503,1.303,2.158,1.54c0.657,0.237,1.187,0.099,2.084-0.747
			c0.606-0.572,0.929-2.98,0.811-4.211c-0.118-1.231-1.42-4.035-1.994-4.725c-0.575-0.69-1.852-1.262-2.679-1.496
			c-0.828-0.234-1.717-0.713-2.526-0.156c-0.809,0.557-0.493,2.282-0.571,2.977c-0.078,0.695-0.409,0.659-0.409,0.659
			c-0.965,0.179-1.169-1.472-1.251-2.267c-0.083-0.795-0.702-1.724-1.427-1.628c-0.615,0.081-1.523,0.591-2.35,1.028
			c-1.451,0.767-2.559,2.952-2.871,3.758c-0.857,2.214-0.369,4.086,0,5.566c0.369,1.479,1.524,2.07,2.013,2.064
			c0.491-0.006,1.286-0.645,1.558-1.249c0.272-0.604,0.551-1.102,0.985-1.19c0.435-0.087,0.754,0.433,0.321,0.992
			c-0.434,0.559-1.819,2.937-1.364,3.386c0.457,0.45,1.467,0.74,2.044,0.935c0.901,0.306,1.633,0.185,2.695,0.075
			c1.42-0.148,0.905-0.222,1.988-0.407c1.085-0.184,1.999-0.486,2.056-1.376c0.024-0.381-0.144-1.374-0.941-2.299
			C143.401,160.076,143.4,159.814,143.869,159.77z"/>
		<g>
			<path fill="#C72026" d="M136.308,152.935c0.473-0.513,1.656-1.38,1.854-0.434c0.197,0.947,0.236,2.761,1.143,2.485
				c0.422-0.128,0.394-0.67,0.197-1.933c-0.197-1.262-0.592-3.352-1.735-2.958c-1.143,0.394-1.696,0.631-2.603,1.38
				c-0.907,0.749-2.642,4.417-2.563,5.443c0.078,1.026,0.473,4.575,1.972,4.772c1.498,0.197,1.498-1.499,2.011-1.774
				c0.513-0.276,2.09-1.617,1.696-2.012c-0.394-0.394-1.568,1.223-2.164,1.262c-0.596,0.04-1.66-0.986-1.504-1.854
				C134.77,156.445,135.834,153.448,136.308,152.935z"/>
		</g>
		<g>
			<path fill="#E11E26" d="M136.163,152.801c0.293-0.318,0.996-0.92,1.555-0.92c0.193,0,0.531,0.075,0.637,0.579
				c0.04,0.191,0.073,0.411,0.108,0.645c0.107,0.722,0.254,1.711,0.666,1.711c0.036,0,0.076-0.006,0.119-0.02
				c0.086-0.026,0.172-0.076,0.192-0.366c0.02-0.292-0.036-0.732-0.131-1.347c-0.097-0.615-0.224-1.322-0.439-1.898
				c-0.231-0.625-0.511-0.941-0.828-0.941c-0.067,0-0.136,0.012-0.21,0.038c-1.112,0.384-1.653,0.613-2.54,1.346
				c-0.394,0.325-1.022,1.326-1.6,2.55c-0.567,1.203-0.927,2.298-0.894,2.726c0.156,2.029,0.722,4.449,1.802,4.592
				c0.072,0.01,0.141,0.014,0.206,0.014c0.7,0,0.947-0.538,1.188-1.058c0.145-0.315,0.27-0.587,0.498-0.709
				c0.191-0.103,0.596-0.404,0.971-0.76c0.401-0.379,0.654-0.713,0.682-0.896c0.001-0.01,0.004-0.036-0.004-0.043
				c-0.003-0.003-0.004-0.004-0.015-0.004c-0.17,0-0.567,0.346-0.859,0.599c-0.414,0.361-0.806,0.702-1.139,0.724
				c-0.015,0.001-0.031,0.001-0.047,0.001l0,0c-0.366,0-0.84-0.281-1.203-0.717c-0.37-0.444-0.538-0.943-0.46-1.37
				C134.579,156.392,135.648,153.359,136.163,152.801z"/>
		</g>
		<path fill="#C72026" d="M145.97,159.284c-0.946-0.237-1.301-1.578-2.052-1.617c-0.749-0.039-0.954,0.46,0.312,1.65
			c1.267,1.19,2.765,2.255,3.554,0.717c0.788-1.538,1.222-2.919,0.434-4.969c-0.788-2.051-1.262-3.628-3.155-4.338
			c-1.894-0.71-2.407-1.183-3.155-0.513c-0.75,0.67-0.277,2.248-0.355,2.997c-0.079,0.749-0.159,1.341,0.355,1.577
			c0.577,0.266,0.828-1.223,0.946-2.051c0.118-0.828,0.788-0.631,1.617,0c0.828,0.631,1.538,2.327,1.774,4.023
			C146.483,158.456,146.917,159.521,145.97,159.284z"/>
		<path fill="#E11E26" d="M146.2,159.515L146.2,159.515c-0.083,0-0.175-0.013-0.278-0.039c-0.542-0.136-0.9-0.575-1.216-0.963
			c-0.275-0.34-0.515-0.633-0.798-0.648c-0.024-0.002-0.047-0.002-0.069-0.002c-0.17,0-0.292,0.038-0.316,0.099
			c-0.012,0.031-0.094,0.332,0.842,1.212c0.653,0.613,1.606,1.428,2.35,1.428c0.373,0,0.667-0.215,0.893-0.658
			c0.326-0.636,0.674-1.399,0.788-2.229c0.113-0.823-0.003-1.642-0.363-2.579c-0.056-0.148-0.112-0.294-0.167-0.437
			c-0.697-1.834-1.2-3.16-2.873-3.788c-0.402-0.151-0.738-0.289-1.035-0.411c-0.601-0.248-0.999-0.411-1.308-0.411
			c-0.214,0-0.398,0.082-0.612,0.272c-0.454,0.407-0.379,1.288-0.319,1.996c0.028,0.327,0.054,0.635,0.029,0.875l-0.007,0.066
			c-0.08,0.751-0.104,1.149,0.248,1.312c0.019,0.009,0.037,0.013,0.051,0.013c0.018,0,0.177-0.017,0.359-0.615
			c0.124-0.409,0.204-0.908,0.259-1.297c0.089-0.626,0.466-0.719,0.682-0.719c0.32,0,0.729,0.193,1.249,0.59
			c0.426,0.325,0.832,0.909,1.171,1.69c0.32,0.735,0.561,1.61,0.679,2.462c0.05,0.357,0.11,0.689,0.161,0.981
			c0.145,0.812,0.24,1.348,0.006,1.628C146.513,159.456,146.375,159.515,146.2,159.515z"/>
		<path fill="#C72026" d="M139.64,159.324c-0.729-0.197-1.123,1.017-1.637,1.475c-0.512,0.458-0.709,1.365-0.986,1.799
			c-0.276,0.434-0.276,1.538,0.434,1.696c0.71,0.158,1.459,0.789,2.188,0.591c0.731-0.197,0.336-0.237,2.031-0.355
			c1.696-0.118,2.919-0.355,2.998-1.222c0.079-0.868-1.302-2.761-1.973-3.471c-0.67-0.71-1.335-0.907-1.219-0.316
			c0.116,0.592,1.575,1.937,1.417,2.526c-0.158,0.589-1.065,1.221-1.735,0.865c-0.67-0.355-3.215,0.276-2.366-1.656
			C138.843,161.142,140.37,159.521,139.64,159.324z"/>
		<path fill="#E11E26" d="M138.791,160.938c0.158-0.194,0.4-0.487,0.589-0.779c0.289-0.446,0.264-0.592,0.257-0.617
			c-0.002-0.004-0.006-0.016-0.048-0.027c-0.036-0.01-0.071-0.015-0.106-0.015c-0.302,0-0.573,0.402-0.833,0.791
			c-0.169,0.251-0.328,0.489-0.514,0.655c-0.298,0.266-0.489,0.725-0.655,1.13c-0.099,0.236-0.19,0.459-0.297,0.628
			c-0.142,0.224-0.201,0.714-0.058,1.059c0.078,0.187,0.201,0.301,0.368,0.338c0.274,0.061,0.547,0.185,0.811,0.304
			c0.35,0.158,0.711,0.321,1.043,0.321c0.085,0,0.163-0.01,0.24-0.031c0.188-0.051,0.297-0.09,0.392-0.125
			c0.281-0.102,0.41-0.148,1.677-0.237c0.659-0.046,1.487-0.124,2.055-0.32c0.642-0.222,0.742-0.519,0.759-0.723
			c0.069-0.759-1.231-2.59-1.919-3.318c-0.418-0.442-0.758-0.603-0.885-0.603c-0.002,0-0.004,0-0.005,0
			c-0.004,0.018-0.004,0.055,0.007,0.114c0.04,0.207,0.345,0.611,0.613,0.968c0.471,0.625,0.916,1.215,0.8,1.647
			c-0.159,0.593-0.861,1.115-1.501,1.115c-0.185,0-0.359-0.043-0.517-0.126c-0.152-0.081-0.494-0.102-0.824-0.123
			c-0.656-0.041-1.398-0.087-1.697-0.575c-0.182-0.298-0.16-0.695,0.067-1.212C138.63,161.133,138.665,161.092,138.791,160.938z"/>
		<path fill="#ECBE90" d="M141.865,158.604c0.553-0.075,2.446,2.915,2.994,3.443c0.549,0.528,1.114-0.172,1.118-0.538
			c0.008-0.54-2.305-1.989-3.08-3.224c-0.397-0.634-0.086-1.696,0.642-1.569c0.729,0.127,1.224,0.771,1.518,0.084
			c0.323-0.761-0.892-2.83-1.374-2.809c-0.481,0.021-0.916,1.03-1.357,1.457c-0.508,0.492-0.907,0.174-1.272-0.285
			c-0.234-0.294-0.057-3.682-0.159-4.138c-0.102-0.457-0.252-0.549-0.897-0.313c-0.644,0.236-0.143,3.314,0,4.063
			c0.145,0.75-0.704,0.671-0.704,0.671c-0.211,0.007-0.461-0.267-1.358-1.123c-0.862-0.824-1.276,1.359-1.57,2.593
			c-0.293,1.234,0.332,1.606,0.906,0.97c0,0,1.11-0.733,1.475-0.162c0.266,0.419-1.613,2.533-2.481,3.421
			c-0.867,0.887-0.337,1.172,0.101,1.319c0.48,0.162,1.714-2.595,2.38-3.153c0.41-0.343,1.014-0.817,1.251-0.486
			c0.39,0.544-0.08,1.37-0.172,1.974c-0.092,0.604,0.453,0.711,1.227,0.711c1.138,0,0.38-1.331,0.002-1.872
			C140.677,159.095,141.313,158.68,141.865,158.604z"/>
		<path fill="#F5845C" d="M146.963,157.518c-0.124,0.082-0.117,0.247,0.015,0.334c0.151,0.1,0.368,0.215,0.606,0.255
			c0.451,0.073,0.464-0.215,0.473-0.425c0.01-0.21-0.106-0.365-0.546-0.351C147.288,157.337,147.096,157.43,146.963,157.518z"/>
		<path fill="#F5845C" d="M146.933,158.992c-0.118,0.008-0.18,0.125-0.127,0.237c0.061,0.129,0.16,0.294,0.306,0.414
			c0.275,0.23,0.402,0.034,0.496-0.107c0.093-0.141,0.077-0.294-0.225-0.458C147.228,158.995,147.06,158.983,146.933,158.992z"/>
		<path fill="#F5845C" d="M146.466,159.757c-0.082-0.038-0.166,0.017-0.172,0.112c-0.006,0.109-0.001,0.255,0.052,0.39
			c0.101,0.255,0.257,0.17,0.373,0.111c0.114-0.06,0.159-0.168,0.017-0.39C146.662,159.867,146.553,159.798,146.466,159.757z"/>
		<path fill="#EFB173" d="M146.48,159.825c-0.064-0.029-0.131,0.013-0.135,0.088c-0.004,0.085-0.001,0.2,0.042,0.305
			c0.078,0.2,0.2,0.134,0.29,0.087c0.089-0.047,0.127-0.131,0.014-0.305C146.634,159.911,146.549,159.857,146.48,159.825z"/>
		<path fill="#F5845C" d="M147.045,155.526c-0.209,0.083-0.357,0.235-0.453,0.364c-0.088,0.12-0.025,0.271,0.129,0.309
			c0.175,0.043,0.418,0.078,0.656,0.034c0.45-0.085,0.362-0.36,0.3-0.561C147.616,155.47,147.454,155.363,147.045,155.526z"/>
		<path fill="#EFB173" d="M147.154,155.642c-0.159,0.063-0.272,0.179-0.345,0.277c-0.067,0.091-0.02,0.207,0.098,0.236
			c0.135,0.033,0.32,0.059,0.501,0.025c0.345-0.065,0.276-0.274,0.229-0.428C147.591,155.599,147.466,155.518,147.154,155.642z"/>
		<path fill="#F5845C" d="M146.377,153.694c-0.189,0.12-0.307,0.297-0.377,0.441c-0.065,0.134,0.024,0.272,0.184,0.28
			c0.181,0.01,0.426-0.001,0.651-0.089c0.426-0.167,0.289-0.421,0.191-0.607C146.929,153.533,146.75,153.458,146.377,153.694z"/>
		<path fill="#EFB173" d="M146.413,153.772c-0.145,0.092-0.234,0.226-0.288,0.337c-0.049,0.102,0.02,0.207,0.14,0.213
			c0.138,0.007,0.324-0.001,0.496-0.068c0.325-0.127,0.221-0.32,0.146-0.462C146.832,153.649,146.695,153.593,146.413,153.772z"/>
		<path fill="#F5845C" d="M145.448,152.185c-0.167,0.15-0.253,0.345-0.297,0.499c-0.041,0.143,0.07,0.263,0.229,0.244
			c0.18-0.021,0.419-0.073,0.626-0.198c0.391-0.237,0.213-0.464,0.086-0.631C145.963,151.933,145.775,151.89,145.448,152.185z"/>
		<path fill="#EFB173" d="M145.489,152.247c-0.131,0.12-0.2,0.274-0.236,0.396c-0.033,0.113,0.056,0.209,0.182,0.194
			c0.142-0.017,0.332-0.058,0.496-0.157c0.311-0.188,0.17-0.368,0.068-0.5C145.899,152.047,145.748,152.013,145.489,152.247z"/>
		<path fill="#F5845C" d="M143.938,151.27c-0.056,0.175-0.038,0.349-0.006,0.477c0.029,0.118,0.158,0.158,0.264,0.08
			c0.118-0.089,0.268-0.224,0.364-0.399c0.181-0.33-0.038-0.419-0.199-0.484C144.202,150.878,144.049,150.925,143.938,151.27z"/>
		<path fill="#F5845C" d="M142.535,150.629c-0.153,0.017-0.252,0.119-0.191,0.436c0.031,0.161,0.121,0.289,0.2,0.375
			c0.075,0.08,0.193,0.055,0.24-0.05c0.055-0.121,0.113-0.29,0.113-0.467C142.898,150.587,142.688,150.612,142.535,150.629z"/>
		<path fill="#F5845C" d="M135.374,151.883c-0.126,0.165-0.117,0.356,0.249,0.59c0.187,0.119,0.394,0.15,0.552,0.152
			c0.147,0.002,0.232-0.136,0.174-0.281c-0.068-0.166-0.179-0.38-0.353-0.544C135.668,151.488,135.499,151.718,135.374,151.883z"/>
		<path fill="#F5845C" d="M137.216,150.779c-0.164,0.033-0.26,0.15-0.162,0.476c0.049,0.167,0.159,0.292,0.253,0.374
			c0.087,0.076,0.213,0.039,0.254-0.077c0.047-0.132,0.094-0.316,0.077-0.502C137.604,150.698,137.38,150.746,137.216,150.779z"/>
		<path fill="#EFB173" d="M137.245,150.855c-0.12,0.024-0.191,0.11-0.12,0.351c0.037,0.123,0.117,0.215,0.186,0.276
			c0.065,0.056,0.156,0.029,0.188-0.057c0.035-0.097,0.069-0.233,0.055-0.37C137.53,150.796,137.366,150.831,137.245,150.855z"/>
		<path fill="#FFFFFF" d="M137.341,150.902c-0.057,0.012-0.09,0.052-0.057,0.166c0.019,0.058,0.056,0.102,0.089,0.13
			c0.03,0.027,0.074,0.013,0.088-0.027c0.016-0.046,0.032-0.11,0.026-0.175C137.477,150.874,137.399,150.891,137.341,150.902z"/>
		<path fill="#F5845C" d="M138.344,151.542c-0.076,0.079-0.11,0.179-0.126,0.256c-0.014,0.072,0.045,0.129,0.123,0.116
			c0.087-0.016,0.202-0.048,0.299-0.116c0.184-0.129,0.087-0.237,0.018-0.316C138.588,151.402,138.493,151.386,138.344,151.542z"/>
		<path fill="#EFB173" d="M138.374,151.58c-0.056,0.059-0.081,0.132-0.093,0.189c-0.011,0.053,0.033,0.095,0.09,0.085
			c0.064-0.011,0.149-0.036,0.22-0.085c0.136-0.095,0.064-0.175,0.014-0.233C138.554,151.477,138.483,151.465,138.374,151.58z"/>
		<path fill="#FFFFFF" d="M138.483,151.626c-0.028,0.029-0.041,0.066-0.047,0.095c-0.006,0.027,0.017,0.048,0.045,0.043
			c0.033-0.006,0.077-0.018,0.112-0.043c0.069-0.048,0.032-0.088,0.006-0.118C138.573,151.574,138.538,151.568,138.483,151.626z"/>
		<path fill="#F5845C" d="M134.349,153.386c-0.126,0.165-0.117,0.356,0.25,0.589c0.186,0.119,0.394,0.15,0.552,0.152
			c0.146,0.002,0.232-0.136,0.172-0.281c-0.067-0.166-0.179-0.379-0.352-0.544C134.643,152.991,134.474,153.221,134.349,153.386z"/>
		<path fill="#EFB173" d="M134.454,153.456c-0.099,0.129-0.092,0.279,0.195,0.461c0.147,0.093,0.309,0.118,0.432,0.119
			c0.115,0.001,0.182-0.107,0.135-0.22c-0.052-0.13-0.14-0.297-0.275-0.426C134.684,153.147,134.551,153.326,134.454,153.456z"/>
		<path fill="#FFFFFF" d="M134.631,153.429c-0.036,0.046-0.033,0.1,0.07,0.166c0.052,0.034,0.11,0.043,0.156,0.043
			c0.042,0,0.065-0.038,0.049-0.079c-0.02-0.046-0.051-0.107-0.099-0.153C134.714,153.318,134.665,153.383,134.631,153.429z"/>
		<path fill="#F5845C" d="M133.954,154.993c-0.415-0.181-0.496,0.092-0.557,0.29c-0.062,0.198,0.012,0.375,0.434,0.469
			c0.216,0.049,0.422,0.007,0.572-0.045c0.138-0.048,0.172-0.206,0.067-0.323C134.349,155.252,134.172,155.088,133.954,154.993z"/>
		<path fill="#EFB173" d="M133.937,155.086c-0.307-0.134-0.367,0.068-0.414,0.215c-0.045,0.147,0.009,0.278,0.323,0.348
			c0.161,0.036,0.313,0.006,0.423-0.033c0.102-0.036,0.128-0.153,0.049-0.24C134.231,155.278,134.1,155.157,133.937,155.086z"/>
		<path fill="#FFFFFF" d="M133.65,155.145c-0.016,0.052,0.003,0.099,0.115,0.124c0.056,0.013,0.11,0.002,0.149-0.012
			c0.037-0.013,0.045-0.054,0.018-0.085c-0.032-0.035-0.078-0.078-0.135-0.103C133.688,155.021,133.666,155.093,133.65,155.145z"/>
		<path fill="#F5845C" d="M132.918,157.083c-0.02,0.206,0.087,0.364,0.521,0.372c0.221,0.004,0.414-0.078,0.549-0.159
			c0.126-0.075,0.127-0.237,0.001-0.33c-0.145-0.106-0.352-0.23-0.585-0.279C132.964,156.593,132.939,156.877,132.918,157.083z"/>
		<path fill="#EFB173" d="M133.003,157.049c-0.016,0.165,0.07,0.292,0.418,0.298c0.177,0.003,0.332-0.063,0.441-0.128
			c0.101-0.06,0.101-0.19,0-0.265c-0.115-0.085-0.282-0.184-0.468-0.224C133.039,156.656,133.019,156.884,133.003,157.049z"/>
		<path fill="#FFFFFF" d="M133.151,156.923c-0.005,0.061,0.026,0.107,0.154,0.11c0.065,0.001,0.122-0.023,0.163-0.047
			c0.037-0.022,0.037-0.07,0-0.097c-0.043-0.031-0.104-0.068-0.173-0.082C133.164,156.778,133.158,156.862,133.151,156.923z"/>
		<path fill="#F5845C" d="M138.425,163.129c-0.114,0.096-0.257,0.241-0.345,0.422c-0.166,0.343,0.062,0.42,0.227,0.477
			c0.164,0.058,0.315,0.002,0.407-0.351c0.047-0.181,0.019-0.355-0.019-0.482C138.659,163.077,138.527,163.044,138.425,163.129z"/>
		<path fill="#F5845C" d="M139.533,163.389c-0.093,0.152-0.202,0.368-0.232,0.605c-0.058,0.448,0.226,0.45,0.434,0.454
			c0.207,0.004,0.357-0.115,0.33-0.548c-0.015-0.221-0.11-0.407-0.202-0.536C139.778,163.244,139.616,163.256,139.533,163.389z"/>
		<path fill="#F5845C" d="M140.863,163.38c-0.074,0.128-0.155,0.31-0.164,0.503c-0.017,0.367,0.244,0.353,0.434,0.344
			c0.19-0.008,0.317-0.113,0.257-0.463c-0.03-0.179-0.133-0.324-0.227-0.423C141.075,163.249,140.928,163.268,140.863,163.38z"/>
		<path fill="#EFB173" d="M140.91,163.468c-0.057,0.099-0.119,0.239-0.126,0.387c-0.015,0.282,0.186,0.271,0.332,0.265
			c0.147-0.007,0.245-0.087,0.199-0.356c-0.024-0.138-0.103-0.249-0.175-0.326C141.073,163.367,140.96,163.381,140.91,163.468z"/>
		<path fill="#FFFFFF" d="M140.845,163.804c-0.02,0.035-0.042,0.084-0.045,0.135c-0.005,0.099,0.066,0.095,0.116,0.093
			c0.053-0.002,0.086-0.03,0.07-0.125c-0.009-0.048-0.036-0.087-0.061-0.114C140.901,163.769,140.862,163.774,140.845,163.804z"/>
		<path fill="#F5845C" d="M142.635,163.084c-0.115-0.06-0.236,0.015-0.247,0.153c-0.012,0.158-0.008,0.37,0.062,0.568
			c0.136,0.375,0.359,0.261,0.524,0.181c0.163-0.081,0.232-0.235,0.036-0.563C142.911,163.254,142.76,163.148,142.635,163.084z"/>
		<path fill="#EFB173" d="M142.653,163.178c-0.092-0.047-0.188,0.013-0.197,0.122c-0.009,0.125-0.006,0.294,0.051,0.452
			c0.108,0.298,0.286,0.207,0.416,0.143c0.131-0.064,0.185-0.186,0.029-0.448C142.872,163.313,142.751,163.228,142.653,163.178z"/>
		<path fill="#F5845C" d="M143.413,162.464c-0.119-0.007-0.194,0.102-0.152,0.223c0.049,0.138,0.131,0.317,0.266,0.458
			c0.255,0.267,0.403,0.087,0.511-0.043c0.109-0.13,0.11-0.286-0.179-0.491C143.71,162.506,143.543,162.472,143.413,162.464z"/>
		<path fill="#F5845C" d="M137.786,162.381c-0.117,0.062-0.269,0.161-0.378,0.302c-0.208,0.268-0.024,0.377,0.108,0.458
			c0.133,0.081,0.275,0.06,0.421-0.23c0.076-0.148,0.083-0.305,0.074-0.423C138,162.379,137.891,162.326,137.786,162.381z"/>
		<path fill="#F5845C" d="M133.541,158.542c-0.432,0.125-0.32,0.385-0.241,0.576c0.078,0.191,0.247,0.279,0.631,0.082
			c0.196-0.1,0.327-0.262,0.408-0.397c0.075-0.125,0-0.267-0.154-0.29C134.009,158.487,133.769,158.476,133.541,158.542z"/>
		<path fill="#EFB173" d="M133.544,158.639c-0.304,0.087-0.225,0.27-0.17,0.403c0.056,0.134,0.174,0.196,0.443,0.058
			c0.138-0.07,0.229-0.184,0.286-0.278c0.053-0.088,0-0.187-0.109-0.203C133.871,158.601,133.703,158.593,133.544,158.639z"/>
		<path fill="#FFFFFF" d="M133.443,158.719c-0.128,0.037-0.094,0.114-0.071,0.17c0.022,0.056,0.072,0.083,0.187,0.025
			c0.057-0.03,0.095-0.078,0.12-0.118c0.021-0.037,0-0.079-0.047-0.086C133.581,158.703,133.511,158.699,133.443,158.719z"/>
		<path fill="#F5845C" d="M135.018,159.791c-0.169,0.063-0.388,0.171-0.56,0.34c-0.323,0.323-0.096,0.5,0.067,0.631
			c0.164,0.131,0.357,0.128,0.603-0.236c0.126-0.186,0.163-0.394,0.17-0.554C135.303,159.826,135.167,159.735,135.018,159.791z"/>
		<path fill="#EFB173" d="M135.026,159.882c-0.167,0.087-0.341,0.2-0.486,0.345c-0.058,0.058-0.097,0.107-0.12,0.143
			c-0.031,0.047-0.025,0.109,0.015,0.15c0.053,0.055,0.132,0.118,0.179,0.156l0.006,0.005l0.001,0.001
			c0.042,0.033,0.101,0.034,0.144,0.003c0.058-0.042,0.15-0.13,0.274-0.313c0.076-0.112,0.127-0.233,0.159-0.351
			C135.227,159.919,135.119,159.834,135.026,159.882z"/>
		<path fill="#FFFFFF" d="M134.699,160.248c-0.06,0.031-0.122,0.072-0.175,0.124c-0.021,0.021-0.035,0.039-0.043,0.052
			c-0.012,0.017-0.009,0.039,0.006,0.054c0.018,0.02,0.046,0.043,0.063,0.056l0.003,0.002l0,0c0.015,0.012,0.037,0.012,0.052,0.001
			c0.022-0.015,0.054-0.047,0.099-0.113c0.028-0.041,0.047-0.084,0.058-0.127C134.771,160.261,134.732,160.231,134.699,160.248z"/>
		<path fill="#EFB173" d="M135.461,151.906c-0.102,0.134-0.095,0.289,0.202,0.478c0.152,0.096,0.32,0.122,0.448,0.123
			c0.118,0.001,0.187-0.11,0.14-0.228c-0.054-0.134-0.146-0.307-0.285-0.441C135.699,151.587,135.562,151.772,135.461,151.906z"/>
		<path fill="#FFFFFF" d="M135.655,151.891c-0.037,0.048-0.034,0.103,0.073,0.172c0.054,0.035,0.114,0.044,0.161,0.044
			c0.043,0.001,0.067-0.04,0.05-0.082c-0.02-0.048-0.052-0.11-0.103-0.158C135.741,151.777,135.692,151.843,135.655,151.891z"/>
		<path fill="#EFB173" d="M142.575,150.719c-0.11,0.012-0.182,0.086-0.138,0.314c0.022,0.117,0.086,0.209,0.144,0.271
			c0.054,0.058,0.138,0.04,0.173-0.036c0.04-0.087,0.083-0.21,0.083-0.338C142.837,150.688,142.685,150.707,142.575,150.719z"/>
		<path fill="#FFFFFF" d="M142.685,150.772c-0.053,0.006-0.087,0.041-0.066,0.15c0.01,0.056,0.041,0.1,0.069,0.13
			c0.026,0.028,0.067,0.019,0.083-0.017c0.019-0.042,0.04-0.101,0.04-0.162C142.81,150.757,142.737,150.767,142.685,150.772z"/>
		<path fill="#EFB173" d="M144.003,151.302c-0.043,0.133-0.029,0.265-0.005,0.361c0.022,0.09,0.12,0.12,0.2,0.061
			c0.09-0.068,0.204-0.17,0.275-0.302c0.138-0.25-0.029-0.317-0.149-0.367C144.202,151.006,144.087,151.041,144.003,151.302z"/>
		<path fill="#EFB173" d="M147.142,157.631c-0.094,0.063-0.089,0.189,0.012,0.256c0.115,0.077,0.281,0.165,0.463,0.194
			c0.346,0.056,0.355-0.164,0.362-0.325c0.008-0.16-0.081-0.279-0.418-0.269C147.391,157.493,147.244,157.563,147.142,157.631z"/>
		<path fill="#EFB173" d="M147.027,159.078c-0.087,0.006-0.133,0.092-0.094,0.175c0.044,0.095,0.118,0.217,0.225,0.306
			c0.204,0.169,0.298,0.025,0.366-0.079c0.069-0.104,0.058-0.217-0.166-0.338C147.244,159.08,147.121,159.071,147.027,159.078z"/>
		<path fill="#EFB173" d="M138.43,163.248c-0.084,0.07-0.188,0.175-0.25,0.305c-0.119,0.248,0.045,0.304,0.165,0.346
			c0.119,0.042,0.228,0.001,0.295-0.255c0.035-0.131,0.013-0.257-0.015-0.348C138.598,163.211,138.502,163.187,138.43,163.248z"/>
		<path fill="#EFB173" d="M139.567,163.482c-0.076,0.123-0.162,0.297-0.187,0.488c-0.047,0.363,0.183,0.364,0.349,0.367
			c0.168,0.004,0.288-0.093,0.266-0.443c-0.01-0.179-0.088-0.329-0.161-0.433C139.765,163.364,139.633,163.374,139.567,163.482z"/>
		<path fill="#FFFFFF" d="M139.526,163.894c-0.031,0.049-0.066,0.12-0.076,0.197c-0.02,0.146,0.074,0.146,0.141,0.148
			c0.067,0.001,0.117-0.038,0.108-0.179c-0.004-0.072-0.036-0.133-0.066-0.174C139.606,163.846,139.553,163.85,139.526,163.894z"/>
		<path fill="#EFB173" d="M137.77,162.48c-0.088,0.046-0.199,0.119-0.28,0.223c-0.152,0.197-0.018,0.277,0.079,0.337
			c0.098,0.06,0.202,0.045,0.311-0.169c0.054-0.109,0.06-0.224,0.053-0.311C137.926,162.479,137.846,162.439,137.77,162.48z"/>
		<path fill="#EFB173" d="M143.479,162.613c-0.088-0.005-0.143,0.075-0.111,0.163c0.035,0.101,0.096,0.232,0.193,0.336
			c0.188,0.196,0.295,0.063,0.375-0.031c0.08-0.095,0.08-0.21-0.131-0.36C143.696,162.644,143.573,162.619,143.479,162.613z"/>
		<path fill="#FFFFFF" d="M143.595,162.873c-0.041-0.002-0.065,0.034-0.051,0.075c0.016,0.046,0.044,0.107,0.09,0.154
			c0.086,0.09,0.135,0.029,0.172-0.014c0.036-0.044,0.038-0.096-0.06-0.165C143.695,162.887,143.638,162.876,143.595,162.873z"/>
		<path fill="#FFFFFF" d="M142.72,163.606c-0.035-0.02-0.073,0.001-0.079,0.044c-0.006,0.049-0.009,0.115,0.01,0.178
			c0.035,0.119,0.107,0.087,0.159,0.065c0.053-0.022,0.077-0.069,0.021-0.174C142.803,163.664,142.758,163.629,142.72,163.606z"/>
		<path fill="#FFFFFF" d="M137.522,162.764c-0.062,0.08-0.007,0.113,0.032,0.137c0.039,0.024,0.082,0.018,0.126-0.069
			c0.022-0.044,0.024-0.091,0.022-0.126c-0.003-0.033-0.036-0.049-0.067-0.032C137.601,162.693,137.555,162.722,137.522,162.764z"/>
		<path fill="#FFFFFF" d="M138.26,163.479c-0.035,0.029-0.078,0.073-0.104,0.128c-0.05,0.103,0.019,0.127,0.069,0.144
			c0.049,0.017,0.095,0,0.123-0.107c0.014-0.054,0.006-0.107-0.006-0.146C138.331,163.463,138.29,163.453,138.26,163.479z"/>
		<path fill="#FFFFFF" d="M144.295,151.273c-0.013,0.042-0.008,0.083-0.001,0.113c0.006,0.028,0.037,0.038,0.062,0.02
			c0.028-0.022,0.064-0.054,0.086-0.095c0.044-0.078-0.009-0.099-0.047-0.115C144.358,151.18,144.322,151.191,144.295,151.273z"/>
		<path fill="#FFFFFF" d="M145.916,152.401c-0.026,0.035-0.037,0.075-0.04,0.106c-0.003,0.029,0.023,0.048,0.053,0.039
			c0.034-0.01,0.079-0.029,0.113-0.061c0.067-0.059,0.024-0.096-0.006-0.124C146.006,152.334,145.967,152.333,145.916,152.401z"/>
		<path fill="#FFFFFF" d="M146.778,153.988c-0.035,0.027-0.054,0.064-0.064,0.094c-0.011,0.027,0.01,0.052,0.041,0.05
			c0.036-0.002,0.083-0.009,0.124-0.031c0.079-0.042,0.047-0.088,0.025-0.122C146.881,153.945,146.845,153.934,146.778,153.988z"/>
		<path fill="#FFFFFF" d="M147.357,155.892c-0.052,0.02-0.09,0.058-0.114,0.09c-0.022,0.03-0.007,0.068,0.032,0.077
			c0.044,0.012,0.104,0.021,0.164,0.01c0.113-0.02,0.092-0.09,0.076-0.14C147.5,155.879,147.46,155.852,147.357,155.892z"/>
		<path fill="#FFFFFF" d="M147.529,157.846c-0.029,0.023-0.026,0.064,0.009,0.084c0.04,0.022,0.096,0.048,0.156,0.053
			c0.114,0.011,0.111-0.061,0.111-0.114c-0.001-0.053-0.033-0.09-0.142-0.079C147.608,157.796,147.561,157.822,147.529,157.846z"/>
		<path fill="#FFFFFF" d="M147.194,159.349c-0.036,0.005-0.054,0.043-0.034,0.078c0.023,0.039,0.06,0.089,0.108,0.124
			c0.094,0.067,0.129,0.003,0.154-0.043c0.026-0.046,0.017-0.094-0.083-0.139C147.287,159.344,147.233,159.344,147.194,159.349z"/>
		<path fill="#FFFFFF" d="M146.425,160.146c0.004,0.032,0.014,0.075,0.037,0.112c0.044,0.07,0.084,0.037,0.114,0.014
			c0.029-0.023,0.037-0.057-0.017-0.116c-0.027-0.029-0.062-0.045-0.089-0.053C146.442,160.097,146.421,160.117,146.425,160.146z"/>
	</g>
</g>
</svg>
