<?xml version="1.0" encoding="utf-8"?>
<!-- Generator: Adobe Illustrator 17.0.0, SVG Export Plug-In . SVG Version: 6.00 Build 0)  -->
<!DOCTYPE svg PUBLIC "-//W3C//DTD SVG 1.1//EN" "http://www.w3.org/Graphics/SVG/1.1/DTD/svg11.dtd">
<svg version="1.1" xmlns="http://www.w3.org/2000/svg" xmlns:xlink="http://www.w3.org/1999/xlink" x="0px" y="0px" width="244px"
	 height="194.046px" viewBox="0 0 244 194.046" enable-background="new 0 0 244 194.046" xml:space="preserve">
<g id="Слой_2" display="none">
	<rect x="-72.5" y="-14.5" display="inline" fill="#D8DDB2" width="400" height="300"/>
	
		<image display="inline" overflow="visible" width="1366" height="768" xlink:href="3D516A4A.jpg"  transform="matrix(1 0 0 1 -494.167 -82.5)">
	</image>
</g>
<g id="Слой_1">
	<g>
		<path fill="#CF4427" d="M150.66,148.173l0.132-0.079l0.124-0.034c0.09-0.024,0.867-0.277,1.06-1.43
			c0.028-0.157,0.034-0.325,0.052-0.485c-0.63,0.222-1.378,0.377-2.115,0.247c-1.75-0.305-2.036-2.32-2.944-4.459
			c-0.908-2.14-7.814-15.244-8.639-17.173c-0.652-1.519,0.531-3.202,1.053-3.839c-0.825-0.002-1.632,0.113-2.261,0.421
			c-0.583,0.285-0.949,0.702-1.123,1.269c-0.698,2.309,0.167,4.155,0.738,5.378c0.11,0.228,0.204,0.434,0.278,0.613
			c0.223,0.541,1.3,2.55,2.253,4.326c1.065,1.986,2.075,3.866,2.33,4.491c0.41,1.001,6.271,9.716,7.229,10.553
			C149.661,148.476,150.125,148.528,150.66,148.173z"/>
		<g>
			<path opacity="0.24" fill="#754F37" d="M146.532,106.312c-0.345,0.393-1.003,1.203-1.611,2.283
				c0.39-2.326,0.112-4.274,0.112-4.274s-1.1,1.87-1.582,4.345c-0.058,0.311-0.107,0.616-0.144,0.911
				c-0.073,0.562-0.099,1.073-0.11,1.546c-0.353,0.328-0.711,0.686-1.062,1.09c-0.153,0.178-0.284,0.355-0.424,0.532
				c-0.084-0.465-0.187-0.956-0.35-1.475c-0.266-0.872-0.616-1.648-0.938-2.271c-0.075-0.702-0.178-1.146-0.178-1.146l0,0l0,0
				c0,0-0.05,0.101-0.121,0.271c-0.007,0.017-0.016,0.038-0.023,0.056c-0.017,0.038-0.037,0.096-0.054,0.14
				c-0.301-0.51-0.522-0.822-0.522-0.822s-0.037,0.743,0.097,1.827c0.005,0.052,0.018,0.114,0.025,0.166
				c-0.072,0.25-0.141,0.518-0.207,0.805c-0.109-0.15-0.22-0.296-0.326-0.43c-0.43-1.81-1.076-3.085-1.076-3.085
				s-0.129,0.668-0.192,1.684c-0.054-0.056-0.092-0.092-0.092-0.092s0.018,0.119,0.064,0.327c0.003,0.013,0.009,0.037,0.014,0.056
				c-0.033,0.758-0.019,1.67,0.113,2.649c0.047,0.311,0.1,0.615,0.156,0.908c0.352,1.706,0.939,3.008,1.121,3.393l-0.035,0.115
				c-0.15-0.467-0.323-0.963-0.56-1.487c-0.945-2.056-2.32-3.496-2.32-3.496l0,0l0,0c0,0,0.059,0.741,0.335,1.798
				c0.103,0.403,0.241,0.849,0.415,1.317c-0.816-0.878-1.516-1.399-1.516-1.399s0.029,0.104,0.089,0.289
				c0.038,0.121,0.098,0.287,0.166,0.471c-1.023-1.1-1.945-1.746-1.945-1.746s0.205,0.716,0.681,1.699
				c0.224,0.459,0.515,0.981,0.865,1.513c-1.499-1.197-2.942-1.81-2.942-1.81s0.058,0.104,0.167,0.285
				c0.33,0.545,1.147,1.775,2.408,2.908c0.631,0.572,1.284,1.035,1.851,1.392c0.71,0.447,1.276,0.723,1.523,0.837l-0.795,2.611
				l-0.189,0.263l0.09,0.064l-0.066,0.216c-0.224-0.459-0.953-1.866-2.237-3.217c-1.556-1.642-3.325-2.56-3.325-2.56l0,0
				c0,0,0.298,0.682,0.899,1.593c0.228,0.344,0.504,0.721,0.818,1.11c-1.053-0.568-1.883-0.834-1.883-0.834s0.058,0.092,0.175,0.244
				c0.344,0.464,1.189,1.505,2.427,2.426c0.412,0.304,0.83,0.571,1.222,0.793c0.745,0.421,1.396,0.692,1.783,0.841l-1.014,3.331
				l0.629,0.192l0.729-2.402c0.054-0.01,0.112-0.021,0.197-0.039c0.31-0.058,0.826-0.175,1.45-0.369
				c0.622-0.197,1.351-0.473,2.093-0.855c0.742-0.385,1.389-0.818,1.909-1.213c0.867-0.657,1.379-1.201,1.379-1.201l0,0l0,0
				c0,0-0.862,0.125-2.023,0.511c0.073-0.074,0.145-0.15,0.214-0.224c0.162-0.019,0.315-0.023,0.481-0.05
				c0.827-0.124,1.579-0.323,2.199-0.531c1.032-0.34,1.692-0.689,1.692-0.689l0,0l0,0c0,0-0.856-0.162-2.08-0.17
				c0.127-0.064,0.254-0.129,0.369-0.192c0.888-0.492,1.433-0.927,1.433-0.927s-1.784-0.009-3.748,0.673
				c-0.489,0.171-0.941,0.368-1.346,0.569c0.121-0.071,0.232-0.119,0.353-0.194c0.773-0.496,1.389-1.025,1.89-1.496
				c0.388-0.056,0.783-0.113,1.201-0.215c1.083-0.266,2.023-0.659,2.693-0.986c0.671-0.327,1.072-0.589,1.072-0.589l0,0l0,0
				c0,0-1.086-0.105-2.546,0.066c0.06-0.029,0.127-0.059,0.186-0.091c0.787-0.42,1.458-0.876,1.967-1.254
				c0.677-0.506,1.07-0.882,1.07-0.882s-2.162,0.191-4.459,1.234c-0.28,0.128-0.535,0.263-0.793,0.401
				c0.345-0.507,0.569-0.896,0.663-1.063c0.282-0.067,0.557-0.128,0.885-0.227c0.466-0.144,0.965-0.326,1.47-0.551
				c2.034-0.91,3.42-2.229,3.42-2.229s-0.311,0.028-0.808,0.117c0.829-0.718,1.315-1.281,1.315-1.281s-2.13,0.405-4.313,1.673
				c-1.415,0.823-2.497,1.8-3.085,2.389c-0.01,0.005-0.016,0.013-0.022,0.017l0.056-0.079l-0.274-0.196
				c1.129-1.259,1.742-2.415,1.742-2.415s-0.132,0.062-0.319,0.159c0.135-0.244,0.272-0.489,0.398-0.758
				c0.934-1.98,1.124-3.854,1.124-3.854l0,0l0,0c0,0-0.079,0.08-0.204,0.219C146.558,106.282,146.546,106.3,146.532,106.312z
				 M138.375,117.408c0.086,0.086,0.169,0.178,0.248,0.257l-0.067,0.222C138.515,117.763,138.449,117.587,138.375,117.408z
				 M138.149,117.805c0.148,0.122,0.264,0.211,0.35,0.277l-0.058,0.19C138.375,118.158,138.279,118.008,138.149,117.805z
				 M138.798,119.352L138.798,119.352L138.798,119.352L138.798,119.352z M137.361,121.622c0.017,0.01,0.038,0.023,0.051,0.03
				l-0.009,0.027C137.391,121.659,137.377,121.645,137.361,121.622z M140.689,120.105c-0.845,0.66-1.508,1.379-1.953,1.919
				c-0.476,0.375-0.822,0.691-1.016,0.879l0.486-1.604l1.218-1.688c0.053,0.008,0.112,0.017,0.195,0.026
				c0.315,0.046,0.839,0.104,1.493,0.119c0.018,0,0.037,0,0.055-0.001C141.007,119.868,140.849,119.98,140.689,120.105z
				 M138.965,118.805l0.192-0.633c0.047,0.044,0.1,0.089,0.141,0.126C139.175,118.481,139.055,118.658,138.965,118.805z
				 M140.767,118.974c-0.087,0.03-0.148,0.059-0.229,0.086c0.107-0.049,0.195-0.076,0.305-0.129
				C140.819,118.947,140.788,118.96,140.767,118.974z M140.087,113.649c0.125,0.168,0.25,0.346,0.371,0.495
				c0.053,0.069,0.104,0.122,0.157,0.187c-0.261,0.437-0.48,0.838-0.628,1.141c-0.004,0.007-0.01,0.017-0.014,0.022l0.028-0.092
				l-0.438-0.133C139.709,114.907,139.907,114.334,140.087,113.649z M141.627,115.428l-0.424,0.588
				c-0.627,0.618-1.141,1.236-1.546,1.786c-0.032-0.202-0.08-0.46-0.15-0.778l0.294-0.964c0.155-0.094,0.478-0.301,0.889-0.6
				c0.024-0.015,0.041-0.022,0.066-0.037c0.156-0.089,0.349-0.23,0.526-0.345C141.425,115.231,141.549,115.351,141.627,115.428z
				 M141.814,115.167l-0.115,0.161c-0.021-0.109-0.06-0.271-0.105-0.452c0.008-0.006,0.013-0.01,0.024-0.017
				C141.695,114.98,141.768,115.091,141.814,115.167z M141.934,115.002c0.001-0.095-0.007-0.236-0.013-0.356
				c0.215-0.159,0.437-0.356,0.656-0.539L141.934,115.002z M144.737,113.394c0.028-0.006,0.047-0.007,0.075-0.015
				c0.018-0.003,0.048-0.014,0.066-0.016c-0.363,0.185-0.976,0.53-1.686,1.015l0.507-0.703
				C143.878,113.638,144.248,113.547,144.737,113.394z"/>
			<path fill="#538442" d="M140.657,115.184l-1.685,2.832c-0.106-0.498-0.481-2.038-1.403-3.656c-1.118-1.967-2.614-3.28-2.614-3.28
				l-0.001-0.003l-0.001,0.002l0,0c0,0,0.127,0.731,0.493,1.76c0.138,0.391,0.315,0.822,0.529,1.272
				c-0.889-0.8-1.631-1.258-1.631-1.258s0.036,0.102,0.112,0.277c0.222,0.537,0.795,1.749,1.779,2.937
				c0.326,0.397,0.669,0.753,0.997,1.064c0.62,0.587,1.186,1.008,1.525,1.245l-1.78,2.992l0.566,0.337l1.285-2.159
				c0.054,0.004,0.112,0.008,0.196,0.011c0.319,0.019,0.848,0.029,1.499-0.011c0.652-0.044,1.426-0.137,2.238-0.331
				c0.809-0.194,1.544-0.464,2.145-0.723c0.997-0.43,1.625-0.835,1.625-0.835l0,0l0,0c0,0-0.867-0.086-2.087,0.013
				c0.12-0.073,0.24-0.148,0.351-0.224c0.842-0.569,1.347-1.049,1.347-1.049l0,0l0,0c0,0-1.779,0.148-3.675,0.998
				c-0.98,0.44-1.794,0.981-2.356,1.398c-0.553,0.249-0.968,0.475-1.197,0.609l1.683-2.829c0.047-0.002,0.087-0.003,0.155-0.006
				c0.213-0.011,0.518-0.029,0.887-0.072c0.37-0.039,0.809-0.105,1.285-0.207c0.474-0.096,0.991-0.23,1.518-0.409
				c1.052-0.357,1.954-0.831,2.594-1.219c0.639-0.384,1.015-0.678,1.015-0.678l0,0l0,0c0,0-1.089-0.011-2.528,0.29
				c0.057-0.038,0.119-0.07,0.175-0.108c0.747-0.489,1.376-0.999,1.849-1.421c0.631-0.565,0.988-0.973,0.988-0.973l0,0l0,0
				c0,0-2.134,0.378-4.332,1.62c-1.41,0.796-2.497,1.749-3.098,2.332l1.465-2.462c0.175-0.054,0.537-0.179,1.01-0.371
				c0.026-0.008,0.047-0.015,0.073-0.022c0.358-0.106,0.774-0.249,1.225-0.431c0.449-0.182,0.932-0.409,1.418-0.678
				c1.944-1.082,3.209-2.517,3.209-2.517s-0.309,0.057-0.792,0.185c0.76-0.784,1.199-1.39,1.199-1.39l-0.004,0.001l0.001-0.002
				c0,0-2.086,0.59-4.149,2.046c-1.339,0.942-2.33,2.009-2.866,2.648c-0.008,0.008-0.013,0.012-0.019,0.019l0.049-0.083
				l-0.392-0.234c0.404-0.562,1.13-1.682,1.654-3.104c0.754-2.052,0.781-3.934,0.781-3.934l0,0l0,0l0,0c0,0-0.071,0.088-0.182,0.236
				c-0.013,0.016-0.023,0.033-0.037,0.049c-0.308,0.42-0.893,1.284-1.404,2.412c0.183-2.345-0.263-4.264-0.263-4.264
				s-0.93,1.956-1.194,4.467c-0.033,0.314-0.057,0.623-0.066,0.918c-0.069,1.743,0.186,3.146,0.272,3.564l-1.166,1.96
				c-0.058-0.635-0.257-2.094-0.895-3.666c-0.851-2.097-2.161-3.598-2.161-3.598s0.026,0.744,0.254,1.813
				c0.107,0.5,0.266,1.075,0.477,1.674c-1.169-1.517-2.422-2.458-2.422-2.458s0.029,0.116,0.093,0.317
				c0.189,0.608,0.689,1.995,1.642,3.4c0.478,0.703,1,1.31,1.465,1.794C139.961,114.615,140.445,115.015,140.657,115.184z
				 M140.821,114.909l-0.101,0.17c-0.035-0.126-0.089-0.297-0.173-0.523C140.663,114.707,140.753,114.827,140.821,114.909z
				 M140.994,116.173c-0.102,0.065-0.189,0.126-0.263,0.175l0.08-0.134C140.867,116.2,140.918,116.191,140.994,116.173z
				 M138.871,118.075c0.015,0.013,0.031,0.031,0.042,0.041l-0.015,0.025C138.891,118.117,138.88,118.099,138.871,118.075z"/>
			<path fill="#8FAD3D" d="M137.706,118.418l-0.68,3.225c-0.26-0.438-1.113-1.773-2.508-3.008c-1.695-1.5-3.534-2.26-3.534-2.26
				l-0.003-0.002l0,0l0,0c0,0,0.354,0.655,1.034,1.51c0.257,0.323,0.565,0.677,0.914,1.032c-1.101-0.471-1.951-0.663-1.951-0.663
				s0.067,0.084,0.195,0.228c0.386,0.429,1.319,1.394,2.633,2.202c0.438,0.269,0.876,0.495,1.289,0.684
				c0.777,0.354,1.446,0.57,1.845,0.682l-0.716,3.407l0.641,0.137l0.52-2.459c0.049-0.011,0.109-0.027,0.19-0.051
				c0.307-0.088,0.809-0.247,1.412-0.498c0.604-0.25,1.307-0.589,2.01-1.034c0.707-0.448,1.315-0.937,1.799-1.378
				c0.805-0.728,1.267-1.315,1.267-1.315l0,0l0,0c0,0-0.846,0.199-1.969,0.687c0.089-0.109,0.179-0.218,0.259-0.324
				c0.612-0.81,0.935-1.427,0.935-1.427l0,0l0,0c0,0-1.636,0.712-3.154,2.132c-0.784,0.73-1.381,1.504-1.777,2.083
				c-0.443,0.417-0.762,0.762-0.937,0.966l0.677-3.225c0.046-0.018,0.085-0.029,0.147-0.055c0.198-0.078,0.479-0.193,0.816-0.354
				c0.338-0.16,0.731-0.363,1.149-0.607c0.417-0.25,0.862-0.54,1.302-0.88c0.882-0.681,1.583-1.422,2.062-1.993
				c0.48-0.571,0.74-0.971,0.74-0.971l0,0l0,0c0,0-1.033,0.341-2.3,1.092c0.043-0.052,0.092-0.107,0.133-0.159
				c0.549-0.705,0.979-1.39,1.289-1.944c0.416-0.737,0.621-1.238,0.621-1.238l0,0l0,0c0,0-1.898,1.047-3.578,2.933
				c-1.078,1.209-1.796,2.461-2.177,3.209l0.59-2.805c0.148-0.107,0.451-0.343,0.835-0.677c0.021-0.014,0.039-0.026,0.063-0.042
				c0.3-0.218,0.651-0.488,1.019-0.807c0.365-0.317,0.749-0.685,1.124-1.099c1.488-1.651,2.224-3.42,2.224-3.42
				s-0.275,0.152-0.691,0.435c0.468-0.99,0.684-1.704,0.684-1.704l0,0l0,0c0,0-1.784,1.231-3.265,3.274
				c-0.963,1.327-1.557,2.659-1.858,3.435c-0.005,0.01-0.008,0.015-0.011,0.021l0.02-0.094l-0.446-0.09
				c0.199-0.665,0.526-1.958,0.561-3.471c0.051-2.19-0.532-3.978-0.532-3.978l0,0l0,0l0,0c0,0-0.039,0.104-0.095,0.282
				c-0.007,0.018-0.014,0.037-0.02,0.057c-0.156,0.499-0.43,1.507-0.547,2.738c-0.586-2.282-1.629-3.952-1.629-3.952
				s-0.249,2.155,0.312,4.612c0.073,0.31,0.148,0.609,0.236,0.892c0.5,1.671,1.194,2.916,1.411,3.284l-0.469,2.231
				c-0.262-0.582-0.923-1.897-2.033-3.181c-1.484-1.709-3.207-2.706-3.207-2.706s0.263,0.696,0.828,1.634
				c0.261,0.442,0.597,0.93,0.992,1.431c-1.599-1.058-3.088-1.546-3.088-1.546s0.066,0.101,0.191,0.271
				c0.375,0.514,1.297,1.664,2.652,2.69c0.678,0.511,1.37,0.916,1.966,1.224C136.863,118.102,137.451,118.325,137.706,118.418z
				 M137.773,118.103l-0.042,0.195c-0.076-0.106-0.181-0.251-0.333-0.442C137.557,117.966,137.679,118.046,137.773,118.103z
				 M138.343,119.244c-0.075,0.097-0.138,0.179-0.192,0.254l0.033-0.157C138.231,119.312,138.278,119.285,138.343,119.244z
				 M136.95,121.729c0.016,0.009,0.038,0.021,0.053,0.025l-0.005,0.027C136.98,121.765,136.967,121.751,136.95,121.729z"/>
		</g>
		<path fill="#181314" d="M238.45,80.382c-2.744-2.481-6.407-3.649-10.119-3.244l-12.863,1.493
			C206.994,35.914,169.7,3.378,124.392,2.639C79.087,1.894,40.746,33.193,30.884,75.608l-12.81-1.911
			c-3.68-0.532-7.395,0.518-10.217,2.909c-2.827,2.396-4.486,5.9-4.547,9.608l-0.336,20.498c-0.059,3.698,1.485,7.255,4.233,9.744
			c2.324,2.11,5.325,3.279,8.425,3.333c0.559,0.007,1.126-0.02,1.69-0.082l13.528-1.57c9.448,41.42,46.072,72.678,90.452,73.402
			c44.381,0.729,82.008-29.313,92.807-70.403l13.469,2.013c0.559,0.08,1.124,0.126,1.685,0.134c3.101,0.052,6.141-1.022,8.536-3.048
			c2.823-2.402,4.481-5.904,4.541-9.607l0.337-20.496C242.735,86.421,241.195,82.869,238.45,80.382z M16.785,115.067
			c-2.34,0.293-4.696-0.476-6.446-2.071c-1.755-1.584-2.736-3.849-2.7-6.212l0.338-20.496c0.036-2.357,1.092-4.594,2.898-6.118
			c1.802-1.523,4.18-2.216,6.511-1.853l12.617,1.88c-0.907,5-1.523,10.101-1.607,15.345c-0.102,6.153,0.432,12.163,1.463,18.008
			L16.785,115.067z M235.314,83.84c1.749,1.585,2.734,3.849,2.694,6.213l-0.336,20.498c-0.037,2.366-1.097,4.594-2.891,6.123
			c-1.801,1.525-4.164,2.216-6.517,1.854l-13.017-1.942c1.219-5.808,1.952-11.8,2.05-17.95c0.088-5.246-0.367-10.364-1.107-15.389"
			/>
		
			<radialGradient id="SVGID_1_" cx="174.055" cy="117.1511" r="157.535" gradientTransform="matrix(0.5114 -0.8594 0.8594 0.5114 -23.6358 153.4445)" gradientUnits="userSpaceOnUse">
			<stop  offset="0.7624" style="stop-color:#CD7628"/>
			<stop  offset="0.9057" style="stop-color:#FBB148"/>
			<stop  offset="0.9313" style="stop-color:#F2A642"/>
			<stop  offset="0.9762" style="stop-color:#DB8832"/>
			<stop  offset="1" style="stop-color:#CD7628"/>
		</radialGradient>
		<path fill="url(#SVGID_1_)" d="M201.843,98.384c-0.712,43.627-36.657,78.415-80.288,77.7
			c-43.629-0.712-78.418-36.659-77.701-80.287c0.711-43.632,36.657-78.42,80.287-77.703
			C167.769,18.805,202.559,54.755,201.843,98.384z"/>
		<g opacity="0.31">
			<path fill="#F69220" d="M146.836,63.517c-14.802-7.285,6.182,36.896,5.067,15.879c-0.162-3.066-0.456,5.65,0.205,8.695
				c0.729,3.348,2.26,5.849,4.473,8.586c2.428,3,3.719,4.936,4.456,8.705c0.543,2.783,0.616,5.81,1.583,8.355
				c1.57,4.13,5.522,6.485,7.351,10.634c2.516,5.709,2.446,10.854,0.048,16.592c-4.39,10.498-21.988,17.993-30.683,7.876
				c-6.488-7.548-0.823-14.235,2.759-21.392c2.866-5.722,5.807-14.103,3.332-20.476c-2.062-5.312-6.071-9.472-9.929-13.518
				c-3.624-3.802-6.451-6.66-4.737-12.224c1.52-4.931,3.697-10.739,6.893-14.876c2.512-3.25,3.602-3.149,7.393-3.9"/>
			<path fill="#F69220" d="M77.522,103.078c2.836,3.667,7.097,4.46,11.371,5.491c3.209,0.774,6.8,0.829,9,3.612
				c3.729,4.719,2.026,13.773,1.703,19.018c-0.215,3.524-0.061,6.737-0.023,10.196c0.014,1.189,0.446,1.997-0.035,3.174
				c-0.807,1.97-5.926,6.481-7.465,7.788c-8.881,7.546-20.032-1.363-22.749-10.787c-1.369-4.751,0.728-6.448,2.264-10.633
				c2.189-5.969-0.418-11.567-2.976-16.914c-1.587-3.313-3.771-7.333-4.776-10.857c-1.088-3.826,1.188-8.078,0.05-11.896
				c-0.536-1.791-3.407-3.552-2.946-5.61c0.206-0.921,5.135-1.947,5.202-1.967c3.126-0.807,6.454-1.712,8.918,0.818
				c0.899,0.923,0.973,2.562,1.949,3.433c0.423,0.377,1.114-0.03,1.483,0.31c2.4,2.203,1.827,3.043,1.628,6.643"/>
			<path fill="#F69220" d="M88.146,59.751c-0.211,3.259-0.627,4.584,2.067,6.458c3.211,2.236,6.646,1.187,9.558-0.91
				c4.263-3.068,3.485-6.164,3.78-10.968c0.323-5.278,3.53-9.433,4.16-14.547c0.457-3.708-1.209-7.448-4.975-8.695
				C96.348,28.973,88.012,37.931,85.683,43c-1.496,3.254,0.095,3.366,1.291,6.96c1.014,3.041,0.132,3.982-0.217,6.888"/>
			<path fill="#F69220" d="M152.965,65.434c2.306,1.566,7.994,0.619,10.788,0.494c3.378-0.15,4.109-1.576,6.955-2.846
				c3.003-1.34,5.789-0.475,8.622-2.747c2.314-1.859,4.541-4.502,3.171-7.308c-1.275-2.61-5.08-2.866-6.402-4.942
				c-1.013-1.592-0.448-3.906-1.716-5.815c-2.938-4.424-8.032-6.216-11.778-9.856c-3.44-3.341-7.489-7.944-12.769-5.873
				c-3.806,1.497-6.65,7.077-7.014,10.93c-0.458,4.838,3.354,9.123,3.907,13.886c0.431,3.697-0.33,8.974,4.08,10.717"/>
			<path fill="#F69220" d="M123.643,154.272c-4.062,1.669-6.998-1.796-9.106-2.261c-4.709-1.042-12.582,8.616-10.117,12.999
				c2.058,3.664,10.056,4.212,13.508,3.966c5.899-0.418,12.726-6.403,10.645-13.08C128.131,154.48,125.153,153.651,123.643,154.272z
				"/>
		</g>
		<g>
			<g>
				<path fill="#EBCC80" d="M156.401,63.115c3.06,0.052,3.138-4.693,0.078-4.741C153.421,58.324,153.342,63.068,156.401,63.115
					L156.401,63.115z"/>
			</g>
			<g>
				<path fill="#EBCC80" d="M159.247,67.798c0.025-0.025,0.049-0.047,0.07-0.07c0.932-0.899,0.956-2.423,0.054-3.354
					c-0.897-0.927-2.424-0.955-3.353-0.056c-0.022,0.023-0.046,0.045-0.072,0.07c-0.926,0.897-0.952,2.427-0.055,3.353
					C156.793,68.674,158.321,68.694,159.247,67.798L159.247,67.798z"/>
			</g>
			<g>
				<path fill="#EBCC80" d="M162.581,66.126c3.062,0.051,3.134-4.696,0.076-4.746C159.597,61.333,159.521,66.074,162.581,66.126
					L162.581,66.126z"/>
			</g>
			<g>
				<path fill="#EBCC80" d="M161.663,75.799c3.056,0.05,3.137-4.694,0.075-4.744C158.679,71.002,158.6,75.749,161.663,75.799
					L161.663,75.799z"/>
			</g>
			<g>
				<path fill="#EBCC80" d="M157.808,75.316c0.024-0.024,0.048-0.047,0.071-0.069c0.929-0.9,0.954-2.422,0.054-3.352
					c-0.9-0.93-2.423-0.954-3.352-0.054c-0.022,0.022-0.047,0.044-0.071,0.068c-0.927,0.898-0.955,2.425-0.056,3.352
					C155.354,76.192,156.882,76.214,157.808,75.316L157.808,75.316z"/>
			</g>
			<g>
				<path fill="#EBCC80" d="M150.42,69.109c3.061,0.049,3.141-4.695,0.077-4.745C147.439,64.312,147.364,69.06,150.42,69.109
					L150.42,69.109z"/>
			</g>
			<g>
				<path fill="#EBCC80" d="M151.273,63.589c3.061,0.048,3.136-4.699,0.078-4.745C148.291,58.792,148.213,63.538,151.273,63.589
					L151.273,63.589z"/>
			</g>
			<g>
				<path fill="#EBCC80" d="M159.906,81.444c3.061,0.051,3.139-4.696,0.079-4.744C156.926,76.648,156.85,81.395,159.906,81.444
					L159.906,81.444z"/>
			</g>
		</g>
		<g>
			<g>
				<path fill="#EBCC80" d="M92.136,132.825c3.061,0.046,3.141-4.696,0.08-4.747C89.156,128.026,89.08,132.775,92.136,132.825
					L92.136,132.825z"/>
			</g>
			<g>
				<path fill="#EBCC80" d="M94.989,137.504c0.02-0.021,0.044-0.044,0.069-0.067c0.93-0.9,0.95-2.428,0.051-3.355
					c-0.898-0.93-2.424-0.957-3.355-0.057c-0.022,0.023-0.048,0.047-0.069,0.066c-0.932,0.903-0.954,2.429-0.054,3.358
					C92.528,138.377,94.056,138.407,94.989,137.504L94.989,137.504z"/>
			</g>
			<g>
				<path fill="#EBCC80" d="M98.316,135.831c3.061,0.049,3.138-4.694,0.081-4.743C95.335,131.034,95.258,135.783,98.316,135.831
					L98.316,135.831z"/>
			</g>
			<g>
				<path fill="#EBCC80" d="M97.397,145.506c3.062,0.051,3.137-4.699,0.081-4.748C94.417,140.71,94.337,145.454,97.397,145.506
					L97.397,145.506z"/>
			</g>
			<g>
				<path fill="#EBCC80" d="M93.547,145.024c0.026-0.024,0.048-0.045,0.072-0.068c0.931-0.9,0.954-2.429,0.053-3.358
					c-0.897-0.927-2.424-0.954-3.354-0.053c-0.023,0.022-0.047,0.044-0.072,0.068c-0.928,0.9-0.951,2.426-0.055,3.354
					C91.092,145.897,92.619,145.922,93.547,145.024L93.547,145.024z"/>
			</g>
			<g>
				<path fill="#EBCC80" d="M86.157,138.815c3.062,0.05,3.139-4.696,0.077-4.746C83.176,134.022,83.098,138.763,86.157,138.815
					L86.157,138.815z"/>
			</g>
			<g>
				<path fill="#EBCC80" d="M87.006,133.293c3.062,0.05,3.14-4.696,0.084-4.746C84.028,128.501,83.95,133.243,87.006,133.293
					L87.006,133.293z"/>
			</g>
			<g>
				<path fill="#EBCC80" d="M95.648,151.15c3.058,0.049,3.134-4.69,0.072-4.747C92.662,146.354,92.585,151.1,95.648,151.15
					L95.648,151.15z"/>
			</g>
		</g>
		<g>
			<g>
				<path fill="#EBCC80" d="M103.875,53.351c3.061,0.049,3.138-4.697,0.076-4.748C100.893,48.554,100.815,53.299,103.875,53.351
					L103.875,53.351z"/>
			</g>
			<g>
				<path fill="#EBCC80" d="M106.721,58.031c0.025-0.025,0.048-0.046,0.072-0.07c0.929-0.899,0.951-2.425,0.055-3.353
					c-0.903-0.931-2.426-0.956-3.356-0.057c-0.022,0.023-0.044,0.044-0.071,0.069c-0.926,0.897-0.954,2.424-0.052,3.355
					C104.266,58.902,105.795,58.927,106.721,58.031L106.721,58.031z"/>
			</g>
			<g>
				<path fill="#EBCC80" d="M110.053,56.359c3.062,0.047,3.138-4.693,0.08-4.747C107.071,51.562,106.995,56.306,110.053,56.359
					L110.053,56.359z"/>
			</g>
			<g>
				<path fill="#EBCC80" d="M109.131,66.032c3.063,0.05,3.141-4.696,0.082-4.744C106.153,61.234,106.074,65.98,109.131,66.032
					L109.131,66.032z"/>
			</g>
			<g>
				<path fill="#EBCC80" d="M105.283,65.55c0.024-0.025,0.048-0.047,0.072-0.07c0.928-0.899,0.951-2.426,0.054-3.353
					c-0.9-0.93-2.425-0.957-3.355-0.057c-0.024,0.023-0.046,0.046-0.071,0.07c-0.928,0.896-0.953,2.425-0.054,3.354
					C102.826,66.421,104.356,66.446,105.283,65.55L105.283,65.55z"/>
			</g>
			<g>
				<path fill="#EBCC80" d="M97.895,59.342c3.061,0.051,3.136-4.699,0.076-4.747C94.914,54.548,94.836,59.29,97.895,59.342
					L97.895,59.342z"/>
			</g>
			<g>
				<path fill="#EBCC80" d="M98.744,53.819c3.062,0.052,3.14-4.694,0.081-4.744C95.765,49.023,95.688,53.77,98.744,53.819
					L98.744,53.819z"/>
			</g>
			<g>
				<path fill="#EBCC80" d="M107.38,71.677c3.062,0.049,3.137-4.694,0.077-4.746C104.398,66.882,104.32,71.624,107.38,71.677
					L107.38,71.677z"/>
			</g>
		</g>
		
			<radialGradient id="SVGID_2_" cx="80.2515" cy="163.6967" r="3.9186" gradientTransform="matrix(0.7186 -0.6954 0.6954 0.7186 -40.973 32.4376)" gradientUnits="userSpaceOnUse">
			<stop  offset="0" style="stop-color:#82935D"/>
			<stop  offset="1" style="stop-color:#445929"/>
		</radialGradient>
		<path fill="url(#SVGID_2_)" d="M134.452,94.324c-0.034,2.166-1.817,3.892-3.982,3.855c-2.161-0.034-3.886-1.817-3.853-3.98
			c0.034-2.164,1.816-3.891,3.983-3.855C132.766,90.38,134.49,92.161,134.452,94.324z"/>
		<path opacity="0.32" fill="#234A23" d="M98.164,33.124c-0.037,2.166-1.819,3.89-3.981,3.853c-2.166-0.035-3.892-1.818-3.853-3.98
			c0.033-2.163,1.815-3.888,3.981-3.853C96.474,29.177,98.198,30.958,98.164,33.124z"/>
		<circle opacity="0.32" fill="#234A23" cx="116.228" cy="101.382" r="3.919"/>
		<path opacity="0.32" fill="#234A23" d="M134.287,113.479c-0.035,2.166-1.817,3.89-3.981,3.852
			c-2.163-0.033-3.887-1.817-3.853-3.98c0.036-2.16,1.818-3.886,3.982-3.853C132.598,109.533,134.325,111.315,134.287,113.479z"/>
		<path opacity="0.32" fill="#234A23" d="M99.532,134.325c-0.033,2.161-1.817,3.887-3.981,3.851
			c-2.162-0.032-3.887-1.814-3.852-3.98c0.034-2.165,1.818-3.89,3.98-3.853C97.841,130.381,99.567,132.165,99.532,134.325z"/>
		<path opacity="0.32" fill="#234A23" d="M126.409,135.891c-0.033,2.162-1.816,3.886-3.981,3.852
			c-2.165-0.036-3.891-1.819-3.854-3.985c0.037-2.161,1.82-3.886,3.98-3.851C124.719,131.942,126.443,133.725,126.409,135.891z"/>
		<path opacity="0.32" fill="#234A23" d="M109.077,116.196c-0.037,2.165-1.82,3.892-3.983,3.853
			c-2.163-0.037-3.889-1.819-3.852-3.981c0.033-2.163,1.816-3.888,3.981-3.853C107.383,112.25,109.108,114.033,109.077,116.196z"/>
		<path opacity="0.32" fill="#234A23" d="M160.327,98.631c-0.036,2.16-1.818,3.885-3.981,3.853c-2.165-0.037-3.891-1.82-3.853-3.981
			c0.035-2.164,1.819-3.891,3.982-3.853C158.637,94.683,160.361,96.466,160.327,98.631z"/>
		
			<radialGradient id="SVGID_3_" cx="94.1028" cy="184.097" r="3.9179" gradientTransform="matrix(0.7186 -0.6954 0.6954 0.7186 -40.973 32.4376)" gradientUnits="userSpaceOnUse">
			<stop  offset="0" style="stop-color:#82935D"/>
			<stop  offset="1" style="stop-color:#445929"/>
		</radialGradient>
		<path fill="url(#SVGID_3_)" d="M158.592,99.352c-0.03,2.162-1.816,3.888-3.98,3.852c-2.163-0.033-3.886-1.816-3.853-3.98
			c0.034-2.166,1.819-3.891,3.981-3.852C156.904,95.406,158.63,97.19,158.592,99.352z"/>
		<g>
			<path opacity="0.24" fill="#754F37" d="M145.042,41.872c-0.345,0.393-1.003,1.203-1.611,2.283
				c0.39-2.326,0.112-4.274,0.112-4.274s-1.1,1.87-1.582,4.345c-0.058,0.311-0.107,0.616-0.144,0.911
				c-0.073,0.562-0.099,1.073-0.11,1.546c-0.353,0.328-0.711,0.686-1.062,1.09c-0.153,0.178-0.284,0.355-0.424,0.532
				c-0.084-0.465-0.187-0.956-0.35-1.475c-0.266-0.872-0.616-1.648-0.938-2.271c-0.075-0.702-0.178-1.146-0.178-1.146l0,0l0,0
				c0,0-0.05,0.101-0.121,0.271c-0.007,0.017-0.016,0.038-0.023,0.056c-0.017,0.038-0.037,0.096-0.054,0.14
				c-0.301-0.51-0.522-0.822-0.522-0.822s-0.037,0.743,0.097,1.827c0.005,0.052,0.018,0.114,0.025,0.166
				c-0.072,0.25-0.141,0.518-0.207,0.805c-0.109-0.15-0.22-0.296-0.326-0.43c-0.43-1.81-1.076-3.085-1.076-3.085
				s-0.129,0.668-0.192,1.684c-0.054-0.056-0.092-0.092-0.092-0.092s0.018,0.119,0.064,0.327c0.003,0.013,0.009,0.037,0.014,0.056
				c-0.033,0.758-0.019,1.67,0.113,2.649c0.047,0.311,0.1,0.615,0.156,0.908c0.352,1.706,0.939,3.008,1.121,3.393l-0.035,0.115
				c-0.15-0.467-0.323-0.963-0.56-1.487c-0.945-2.056-2.32-3.496-2.32-3.496l0,0l0,0c0,0,0.059,0.741,0.335,1.798
				c0.103,0.403,0.241,0.849,0.415,1.317c-0.816-0.878-1.516-1.399-1.516-1.399s0.029,0.104,0.089,0.289
				c0.038,0.121,0.098,0.287,0.166,0.471c-1.023-1.1-1.945-1.746-1.945-1.746s0.205,0.716,0.681,1.699
				c0.224,0.459,0.515,0.981,0.865,1.513c-1.499-1.197-2.942-1.81-2.942-1.81s0.058,0.104,0.167,0.285
				c0.33,0.545,1.147,1.775,2.408,2.908c0.631,0.572,1.284,1.035,1.851,1.392c0.71,0.447,1.276,0.723,1.523,0.837l-0.795,2.611
				l-0.189,0.263l0.09,0.064l-0.066,0.216c-0.224-0.459-0.953-1.866-2.237-3.217c-1.556-1.642-3.325-2.56-3.325-2.56l0,0
				c0,0,0.298,0.682,0.899,1.593c0.228,0.344,0.504,0.721,0.818,1.11c-1.053-0.568-1.883-0.834-1.883-0.834s0.058,0.092,0.175,0.244
				c0.344,0.464,1.189,1.505,2.427,2.426c0.412,0.304,0.83,0.571,1.222,0.793c0.745,0.421,1.396,0.692,1.783,0.841l-1.014,3.331
				l0.629,0.192l0.729-2.402c0.054-0.01,0.112-0.021,0.197-0.039c0.31-0.058,0.826-0.175,1.45-0.369
				c0.622-0.197,1.351-0.473,2.093-0.855c0.742-0.385,1.389-0.818,1.909-1.213c0.867-0.657,1.379-1.201,1.379-1.201l0,0l0,0
				c0,0-0.862,0.125-2.023,0.511c0.073-0.074,0.145-0.15,0.214-0.224c0.162-0.019,0.315-0.023,0.481-0.05
				c0.827-0.124,1.579-0.323,2.199-0.531c1.032-0.34,1.692-0.689,1.692-0.689l0,0l0,0c0,0-0.856-0.162-2.08-0.17
				c0.127-0.064,0.254-0.129,0.369-0.192c0.888-0.492,1.433-0.927,1.433-0.927s-1.784-0.009-3.748,0.673
				c-0.489,0.171-0.941,0.368-1.346,0.569c0.121-0.071,0.232-0.119,0.353-0.194c0.773-0.496,1.389-1.025,1.89-1.496
				c0.388-0.056,0.783-0.113,1.201-0.215c1.083-0.266,2.023-0.659,2.693-0.986c0.671-0.327,1.072-0.589,1.072-0.589l0,0l0,0
				c0,0-1.086-0.105-2.546,0.066c0.06-0.029,0.127-0.059,0.186-0.091c0.787-0.42,1.458-0.876,1.967-1.254
				c0.677-0.506,1.07-0.882,1.07-0.882s-2.162,0.191-4.459,1.234c-0.28,0.128-0.535,0.263-0.793,0.401
				c0.345-0.507,0.569-0.896,0.663-1.063c0.282-0.067,0.557-0.128,0.885-0.227c0.466-0.144,0.965-0.326,1.47-0.551
				c2.034-0.91,3.42-2.229,3.42-2.229s-0.311,0.028-0.808,0.117c0.829-0.718,1.315-1.281,1.315-1.281s-2.13,0.405-4.313,1.673
				c-1.415,0.823-2.497,1.8-3.085,2.389c-0.01,0.005-0.016,0.013-0.022,0.017l0.056-0.079l-0.274-0.196
				c1.129-1.259,1.742-2.415,1.742-2.415s-0.132,0.062-0.319,0.159c0.135-0.244,0.272-0.489,0.398-0.758
				c0.934-1.98,1.124-3.854,1.124-3.854l0,0l0,0c0,0-0.079,0.08-0.204,0.219C145.068,41.842,145.056,41.86,145.042,41.872z
				 M136.885,52.968c0.086,0.086,0.169,0.178,0.248,0.257l-0.067,0.222C137.024,53.323,136.959,53.147,136.885,52.968z
				 M136.658,53.365c0.148,0.122,0.264,0.211,0.35,0.277l-0.058,0.19C136.885,53.719,136.789,53.568,136.658,53.365z
				 M137.308,54.912L137.308,54.912L137.308,54.912L137.308,54.912z M135.871,57.183c0.017,0.01,0.038,0.023,0.051,0.03
				l-0.009,0.027C135.9,57.219,135.886,57.205,135.871,57.183z M139.199,55.666c-0.845,0.66-1.508,1.379-1.953,1.919
				c-0.476,0.375-0.822,0.691-1.016,0.879l0.486-1.604l1.218-1.688c0.053,0.008,0.112,0.017,0.195,0.026
				c0.315,0.046,0.839,0.104,1.493,0.119c0.018,0,0.037,0,0.055-0.001C139.517,55.428,139.359,55.54,139.199,55.666z
				 M137.475,54.366l0.192-0.633c0.047,0.044,0.1,0.089,0.141,0.126C137.685,54.041,137.565,54.218,137.475,54.366z M139.277,54.534
				c-0.087,0.03-0.148,0.059-0.229,0.086c0.107-0.049,0.195-0.076,0.305-0.129C139.329,54.507,139.297,54.521,139.277,54.534z
				 M138.596,49.209c0.125,0.168,0.25,0.346,0.371,0.495c0.053,0.069,0.104,0.122,0.157,0.187c-0.261,0.437-0.48,0.838-0.628,1.141
				c-0.004,0.007-0.01,0.017-0.014,0.022l0.028-0.092l-0.438-0.133C138.218,50.468,138.417,49.895,138.596,49.209z M140.136,50.989
				l-0.424,0.588c-0.627,0.618-1.141,1.236-1.546,1.786c-0.032-0.202-0.08-0.46-0.15-0.778l0.294-0.964
				c0.155-0.094,0.478-0.301,0.889-0.6c0.024-0.015,0.041-0.022,0.066-0.037c0.156-0.089,0.349-0.23,0.526-0.345
				C139.935,50.791,140.059,50.911,140.136,50.989z M140.323,50.727l-0.115,0.161c-0.021-0.109-0.06-0.271-0.105-0.452
				c0.008-0.006,0.013-0.01,0.024-0.017C140.204,50.54,140.277,50.651,140.323,50.727z M140.444,50.563
				c0.001-0.095-0.007-0.236-0.013-0.356c0.215-0.159,0.437-0.356,0.656-0.539L140.444,50.563z M143.247,48.954
				c0.028-0.006,0.047-0.007,0.075-0.015c0.018-0.003,0.048-0.014,0.066-0.016c-0.363,0.185-0.976,0.53-1.686,1.015l0.507-0.703
				C142.387,49.198,142.758,49.107,143.247,48.954z"/>
			<path fill="#538442" d="M139.167,50.744l-1.685,2.832c-0.106-0.498-0.481-2.038-1.403-3.656c-1.118-1.967-2.614-3.28-2.614-3.28
				l-0.001-0.003l-0.001,0.002l0,0c0,0,0.127,0.731,0.493,1.76c0.138,0.391,0.315,0.822,0.529,1.272
				c-0.889-0.8-1.631-1.258-1.631-1.258s0.036,0.102,0.112,0.277c0.222,0.537,0.795,1.749,1.779,2.937
				c0.325,0.397,0.669,0.753,0.997,1.064c0.62,0.587,1.186,1.008,1.525,1.245l-1.78,2.992l0.566,0.337l1.285-2.159
				c0.054,0.004,0.112,0.008,0.196,0.011c0.319,0.019,0.848,0.029,1.499-0.011c0.652-0.044,1.426-0.137,2.238-0.331
				c0.809-0.194,1.544-0.464,2.145-0.723c0.997-0.43,1.625-0.835,1.625-0.835l0,0l0,0c0,0-0.867-0.086-2.087,0.013
				c0.12-0.073,0.24-0.148,0.351-0.224c0.842-0.569,1.347-1.049,1.347-1.049l0,0l0,0c0,0-1.779,0.148-3.675,0.998
				c-0.98,0.44-1.794,0.981-2.356,1.398c-0.553,0.249-0.968,0.475-1.197,0.609l1.683-2.829c0.047-0.002,0.087-0.003,0.155-0.006
				c0.213-0.011,0.518-0.029,0.887-0.072c0.37-0.039,0.809-0.105,1.285-0.207c0.474-0.096,0.991-0.23,1.518-0.409
				c1.052-0.357,1.954-0.831,2.594-1.219c0.639-0.384,1.015-0.678,1.015-0.678l0,0l0,0c0,0-1.089-0.011-2.528,0.29
				c0.057-0.038,0.119-0.07,0.175-0.108c0.747-0.489,1.376-0.999,1.849-1.421c0.631-0.565,0.988-0.973,0.988-0.973l0,0l0,0
				c0,0-2.134,0.378-4.332,1.62c-1.41,0.796-2.497,1.749-3.098,2.332l1.465-2.462c0.175-0.054,0.537-0.179,1.01-0.371
				c0.026-0.008,0.047-0.015,0.073-0.022c0.358-0.106,0.774-0.249,1.225-0.431c0.449-0.182,0.932-0.409,1.418-0.678
				c1.944-1.082,3.209-2.517,3.209-2.517s-0.309,0.057-0.792,0.185c0.76-0.784,1.199-1.39,1.199-1.39l-0.004,0.001l0.001-0.002
				c0,0-2.086,0.59-4.149,2.046c-1.339,0.942-2.33,2.009-2.866,2.648c-0.008,0.008-0.013,0.012-0.019,0.019l0.049-0.083
				l-0.392-0.234c0.404-0.562,1.13-1.682,1.654-3.104c0.754-2.052,0.781-3.934,0.781-3.934l0,0l0,0l0,0c0,0-0.071,0.088-0.182,0.236
				c-0.013,0.016-0.023,0.033-0.037,0.049c-0.308,0.42-0.893,1.284-1.404,2.412c0.183-2.345-0.263-4.264-0.263-4.264
				s-0.93,1.956-1.194,4.467c-0.033,0.314-0.057,0.623-0.066,0.918c-0.069,1.743,0.186,3.146,0.272,3.564l-1.166,1.96
				c-0.058-0.635-0.257-2.094-0.895-3.666c-0.851-2.097-2.161-3.598-2.161-3.598s0.026,0.744,0.254,1.813
				c0.107,0.5,0.266,1.075,0.477,1.674c-1.169-1.517-2.422-2.458-2.422-2.458s0.029,0.116,0.093,0.317
				c0.189,0.608,0.689,1.995,1.642,3.4c0.478,0.703,1,1.31,1.465,1.794C138.471,50.175,138.954,50.575,139.167,50.744z
				 M139.331,50.469l-0.101,0.17c-0.035-0.126-0.089-0.297-0.173-0.523C139.172,50.267,139.263,50.387,139.331,50.469z
				 M139.503,51.733c-0.102,0.065-0.189,0.126-0.263,0.175l0.08-0.134C139.376,51.76,139.427,51.751,139.503,51.733z M137.38,53.635
				c0.015,0.013,0.031,0.031,0.042,0.041l-0.015,0.025C137.4,53.677,137.39,53.659,137.38,53.635z"/>
			<path fill="#8FAD3D" d="M136.216,53.978l-0.68,3.225c-0.26-0.438-1.113-1.773-2.508-3.008c-1.695-1.5-3.534-2.26-3.534-2.26
				l-0.003-0.002l0,0l0,0c0,0,0.354,0.655,1.034,1.51c0.257,0.323,0.565,0.677,0.914,1.032c-1.101-0.471-1.951-0.663-1.951-0.663
				s0.067,0.084,0.195,0.228c0.386,0.429,1.319,1.394,2.633,2.202c0.438,0.269,0.876,0.495,1.289,0.684
				c0.777,0.354,1.446,0.57,1.845,0.682l-0.716,3.407l0.641,0.137l0.52-2.459c0.049-0.011,0.109-0.027,0.19-0.051
				c0.307-0.088,0.809-0.247,1.412-0.498c0.604-0.25,1.307-0.589,2.01-1.034c0.707-0.448,1.315-0.937,1.799-1.378
				c0.805-0.728,1.267-1.315,1.267-1.315l0,0l0,0c0,0-0.846,0.199-1.969,0.687c0.089-0.109,0.179-0.218,0.259-0.324
				c0.612-0.81,0.935-1.427,0.935-1.427l0,0l0,0c0,0-1.636,0.712-3.154,2.132c-0.784,0.73-1.381,1.504-1.778,2.083
				c-0.443,0.417-0.762,0.762-0.937,0.966l0.677-3.225c0.046-0.018,0.085-0.029,0.147-0.055c0.198-0.078,0.479-0.193,0.816-0.354
				c0.338-0.16,0.731-0.363,1.149-0.607c0.417-0.25,0.862-0.54,1.302-0.88c0.882-0.681,1.583-1.422,2.062-1.993
				c0.48-0.571,0.74-0.971,0.74-0.971l0,0l0,0c0,0-1.033,0.341-2.3,1.092c0.043-0.052,0.092-0.107,0.133-0.159
				c0.549-0.705,0.979-1.39,1.289-1.944c0.416-0.737,0.621-1.238,0.621-1.238l0,0l0,0c0,0-1.898,1.047-3.578,2.933
				c-1.078,1.209-1.796,2.461-2.177,3.209l0.59-2.805c0.148-0.107,0.451-0.343,0.835-0.677c0.021-0.014,0.039-0.026,0.063-0.042
				c0.3-0.218,0.651-0.488,1.019-0.807c0.365-0.318,0.749-0.685,1.124-1.099c1.488-1.651,2.224-3.42,2.224-3.42
				s-0.275,0.152-0.691,0.435c0.468-0.99,0.684-1.704,0.684-1.704l0,0l0,0c0,0-1.784,1.231-3.265,3.274
				c-0.963,1.327-1.557,2.659-1.858,3.435c-0.005,0.01-0.008,0.015-0.011,0.021l0.02-0.094l-0.446-0.09
				c0.199-0.665,0.526-1.958,0.561-3.471c0.051-2.19-0.532-3.978-0.532-3.978l0,0l0,0l0,0c0,0-0.039,0.104-0.095,0.282
				c-0.007,0.018-0.014,0.037-0.02,0.057c-0.156,0.499-0.43,1.507-0.547,2.738c-0.586-2.282-1.629-3.952-1.629-3.952
				s-0.249,2.155,0.312,4.612c0.073,0.31,0.148,0.609,0.236,0.892c0.5,1.671,1.194,2.916,1.411,3.284l-0.469,2.231
				c-0.262-0.582-0.923-1.897-2.033-3.181c-1.484-1.709-3.207-2.706-3.207-2.706s0.263,0.696,0.828,1.634
				c0.261,0.442,0.597,0.93,0.992,1.431c-1.599-1.058-3.088-1.546-3.088-1.546s0.066,0.101,0.191,0.271
				c0.375,0.514,1.297,1.664,2.652,2.69c0.678,0.511,1.369,0.916,1.966,1.224C135.372,53.662,135.961,53.885,136.216,53.978z
				 M136.283,53.663l-0.042,0.195c-0.076-0.106-0.181-0.251-0.333-0.442C136.067,53.526,136.188,53.607,136.283,53.663z
				 M136.852,54.804c-0.075,0.097-0.138,0.179-0.192,0.254l0.033-0.157C136.741,54.872,136.787,54.845,136.852,54.804z
				 M135.46,57.289c0.016,0.009,0.038,0.021,0.053,0.025l-0.005,0.027C135.49,57.326,135.476,57.311,135.46,57.289z"/>
		</g>
		<g>
			<path opacity="0.24" fill="#754F37" d="M100.113,52.245c-0.345,0.392-1.003,1.203-1.611,2.283
				c0.39-2.326,0.112-4.274,0.112-4.274s-1.1,1.87-1.582,4.345c-0.058,0.311-0.107,0.616-0.144,0.911
				c-0.073,0.562-0.099,1.073-0.11,1.546c-0.353,0.328-0.711,0.686-1.062,1.09c-0.153,0.178-0.285,0.355-0.424,0.532
				c-0.084-0.465-0.187-0.956-0.35-1.475c-0.266-0.872-0.616-1.648-0.939-2.271c-0.075-0.702-0.177-1.146-0.177-1.146l0,0l0,0
				c0,0-0.05,0.101-0.121,0.271c-0.007,0.017-0.016,0.038-0.023,0.056c-0.017,0.038-0.037,0.096-0.054,0.14
				c-0.301-0.51-0.522-0.822-0.522-0.822s-0.037,0.743,0.097,1.827c0.005,0.052,0.018,0.114,0.025,0.166
				c-0.072,0.25-0.141,0.518-0.207,0.805c-0.109-0.15-0.219-0.296-0.326-0.43c-0.43-1.81-1.076-3.085-1.076-3.085
				s-0.129,0.668-0.192,1.684c-0.054-0.056-0.092-0.092-0.092-0.092s0.018,0.119,0.064,0.327c0.003,0.013,0.009,0.037,0.014,0.056
				c-0.033,0.758-0.018,1.67,0.113,2.649c0.047,0.311,0.1,0.615,0.156,0.908c0.352,1.706,0.939,3.008,1.121,3.393l-0.035,0.115
				c-0.15-0.467-0.323-0.963-0.56-1.487c-0.945-2.056-2.32-3.496-2.32-3.496l0,0l0,0c0,0,0.059,0.741,0.335,1.798
				c0.103,0.403,0.241,0.849,0.415,1.317c-0.816-0.878-1.516-1.399-1.516-1.399s0.029,0.104,0.089,0.289
				c0.038,0.121,0.098,0.287,0.166,0.471c-1.023-1.1-1.945-1.746-1.945-1.746s0.205,0.716,0.681,1.699
				c0.224,0.459,0.515,0.981,0.865,1.513c-1.499-1.196-2.942-1.81-2.942-1.81s0.058,0.104,0.167,0.285
				c0.33,0.545,1.147,1.775,2.408,2.908c0.63,0.572,1.284,1.035,1.851,1.393c0.71,0.447,1.276,0.723,1.523,0.837l-0.794,2.611
				l-0.189,0.263l0.09,0.064l-0.066,0.216c-0.224-0.459-0.953-1.866-2.237-3.217c-1.557-1.642-3.325-2.56-3.325-2.56l0,0
				c0,0,0.298,0.682,0.899,1.593c0.228,0.344,0.503,0.721,0.818,1.11c-1.053-0.568-1.883-0.834-1.883-0.834s0.058,0.092,0.175,0.244
				c0.344,0.464,1.189,1.505,2.427,2.426c0.412,0.304,0.83,0.571,1.222,0.793c0.745,0.421,1.396,0.692,1.783,0.841l-1.014,3.331
				l0.629,0.192l0.729-2.402c0.054-0.009,0.112-0.021,0.197-0.039c0.31-0.058,0.826-0.175,1.45-0.369
				c0.622-0.197,1.351-0.473,2.093-0.855c0.743-0.385,1.389-0.818,1.91-1.213c0.867-0.657,1.379-1.201,1.379-1.201l0,0l0,0
				c0,0-0.862,0.125-2.023,0.511c0.073-0.074,0.145-0.15,0.214-0.224c0.162-0.019,0.315-0.023,0.481-0.05
				c0.826-0.124,1.579-0.323,2.199-0.531c1.032-0.34,1.692-0.689,1.692-0.689l0,0l0,0c0,0-0.856-0.162-2.08-0.17
				c0.127-0.064,0.254-0.129,0.369-0.192c0.888-0.492,1.433-0.927,1.433-0.927s-1.784-0.009-3.749,0.673
				c-0.489,0.171-0.94,0.368-1.346,0.569c0.121-0.071,0.232-0.119,0.353-0.195c0.773-0.496,1.389-1.025,1.89-1.496
				c0.388-0.056,0.783-0.113,1.201-0.215c1.083-0.266,2.023-0.659,2.693-0.986c0.671-0.327,1.072-0.589,1.072-0.589l0,0l0,0
				c0,0-1.086-0.105-2.546,0.066c0.06-0.029,0.127-0.059,0.185-0.091c0.787-0.42,1.458-0.876,1.967-1.254
				c0.677-0.506,1.07-0.882,1.07-0.882s-2.162,0.191-4.459,1.234c-0.28,0.128-0.535,0.263-0.793,0.401
				c0.345-0.507,0.569-0.896,0.663-1.063c0.282-0.067,0.557-0.128,0.885-0.227c0.466-0.144,0.965-0.326,1.47-0.551
				c2.034-0.91,3.42-2.229,3.42-2.229s-0.311,0.028-0.808,0.117c0.829-0.718,1.315-1.281,1.315-1.281s-2.13,0.405-4.313,1.672
				c-1.415,0.823-2.497,1.8-3.085,2.389c-0.01,0.005-0.016,0.013-0.022,0.017l0.056-0.079L97.41,58.85
				c1.129-1.259,1.742-2.415,1.742-2.415s-0.132,0.062-0.319,0.158c0.135-0.244,0.272-0.489,0.398-0.758
				c0.934-1.98,1.124-3.854,1.124-3.854l0,0l0,0c0,0-0.079,0.08-0.203,0.219C100.139,52.214,100.127,52.233,100.113,52.245z
				 M91.957,63.34c0.086,0.086,0.169,0.178,0.248,0.257l-0.067,0.222C92.096,63.695,92.03,63.519,91.957,63.34z M91.73,63.737
				c0.148,0.122,0.264,0.211,0.35,0.277l-0.058,0.19C91.956,64.091,91.86,63.94,91.73,63.737z M92.38,65.284L92.38,65.284
				L92.38,65.284L92.38,65.284z M90.942,67.555c0.017,0.01,0.038,0.023,0.051,0.03l-0.008,0.028
				C90.972,67.591,90.958,67.577,90.942,67.555z M94.271,66.038c-0.845,0.66-1.508,1.379-1.953,1.919
				c-0.476,0.375-0.822,0.691-1.017,0.879l0.486-1.604l1.218-1.688c0.053,0.008,0.112,0.017,0.195,0.026
				c0.315,0.046,0.839,0.104,1.493,0.119c0.018,0,0.037,0,0.055-0.001C94.588,65.8,94.43,65.913,94.271,66.038z M92.547,64.738
				l0.192-0.633c0.047,0.044,0.1,0.089,0.141,0.125C92.756,64.413,92.637,64.59,92.547,64.738z M94.348,64.906
				c-0.088,0.03-0.148,0.059-0.229,0.086c0.107-0.049,0.195-0.076,0.305-0.129C94.4,64.879,94.369,64.893,94.348,64.906z
				 M93.668,59.581c0.125,0.168,0.25,0.346,0.371,0.495c0.053,0.069,0.104,0.122,0.157,0.187c-0.261,0.437-0.48,0.838-0.628,1.141
				c-0.004,0.007-0.01,0.017-0.014,0.022l0.028-0.092l-0.438-0.133C93.29,60.84,93.488,60.267,93.668,59.581z M95.208,61.361
				l-0.424,0.588c-0.627,0.618-1.141,1.236-1.546,1.786c-0.031-0.202-0.08-0.46-0.15-0.778l0.294-0.964
				c0.155-0.094,0.478-0.301,0.889-0.6c0.024-0.015,0.041-0.022,0.066-0.037c0.156-0.089,0.349-0.23,0.526-0.346
				C95.006,61.163,95.13,61.283,95.208,61.361z M95.395,61.099L95.28,61.26c-0.021-0.109-0.06-0.271-0.105-0.452
				c0.008-0.006,0.013-0.01,0.024-0.017C95.276,60.912,95.349,61.023,95.395,61.099z M95.515,60.935
				c0.001-0.095-0.007-0.236-0.013-0.356c0.215-0.159,0.437-0.356,0.656-0.539L95.515,60.935z M98.318,59.326
				c0.028-0.006,0.047-0.007,0.075-0.015c0.018-0.003,0.048-0.014,0.066-0.016c-0.363,0.185-0.976,0.53-1.686,1.015l0.507-0.703
				C97.459,59.57,97.829,59.479,98.318,59.326z"/>
			<path fill="#538442" d="M94.238,61.117l-1.685,2.832c-0.106-0.498-0.481-2.038-1.403-3.656c-1.118-1.967-2.614-3.28-2.614-3.28
				l-0.001-0.003l-0.001,0.002l0,0c0,0,0.127,0.731,0.493,1.76c0.138,0.391,0.315,0.822,0.529,1.272
				c-0.889-0.8-1.631-1.258-1.631-1.258s0.036,0.102,0.112,0.277c0.222,0.537,0.795,1.749,1.779,2.937
				c0.326,0.397,0.669,0.753,0.997,1.064c0.62,0.587,1.186,1.008,1.525,1.245l-1.78,2.992l0.566,0.337l1.285-2.159
				c0.054,0.004,0.112,0.008,0.196,0.011c0.319,0.019,0.848,0.029,1.499-0.011c0.652-0.044,1.426-0.137,2.238-0.331
				c0.809-0.194,1.544-0.464,2.145-0.723c0.997-0.43,1.625-0.835,1.625-0.835l0,0l0,0c0,0-0.867-0.086-2.087,0.013
				c0.12-0.073,0.24-0.148,0.351-0.224c0.842-0.569,1.347-1.049,1.347-1.049l0,0l0,0c0,0-1.779,0.148-3.675,0.998
				c-0.98,0.44-1.794,0.981-2.356,1.398c-0.552,0.249-0.968,0.475-1.197,0.609l1.683-2.829c0.047-0.002,0.087-0.003,0.155-0.005
				c0.213-0.011,0.518-0.029,0.887-0.072c0.37-0.039,0.809-0.105,1.285-0.207c0.474-0.096,0.991-0.23,1.518-0.409
				c1.052-0.357,1.954-0.831,2.594-1.219c0.639-0.384,1.015-0.678,1.015-0.678l0,0l0,0c0,0-1.089-0.011-2.528,0.29
				c0.057-0.038,0.12-0.071,0.175-0.108c0.747-0.489,1.376-0.999,1.849-1.421c0.631-0.565,0.988-0.973,0.988-0.973l0,0l0,0
				c0,0-2.134,0.378-4.332,1.62c-1.41,0.796-2.497,1.749-3.098,2.332l1.465-2.462c0.175-0.054,0.537-0.179,1.01-0.371
				c0.026-0.008,0.047-0.015,0.073-0.022c0.358-0.106,0.774-0.249,1.225-0.431c0.449-0.182,0.932-0.409,1.418-0.678
				c1.944-1.082,3.209-2.517,3.209-2.517s-0.309,0.056-0.792,0.185c0.76-0.784,1.199-1.39,1.199-1.39l-0.004,0.001l0.002-0.003
				c0,0-2.086,0.59-4.149,2.046c-1.339,0.942-2.33,2.009-2.866,2.648c-0.008,0.008-0.013,0.012-0.019,0.019l0.049-0.083
				l-0.392-0.234c0.404-0.562,1.13-1.682,1.654-3.104c0.754-2.052,0.781-3.934,0.781-3.934l0,0l0,0l0,0c0,0-0.071,0.088-0.182,0.236
				c-0.013,0.016-0.023,0.033-0.037,0.049c-0.308,0.42-0.893,1.284-1.404,2.412c0.183-2.345-0.263-4.264-0.263-4.264
				s-0.931,1.956-1.194,4.467c-0.033,0.314-0.057,0.623-0.066,0.918c-0.069,1.743,0.186,3.146,0.272,3.564l-1.166,1.96
				c-0.058-0.635-0.257-2.094-0.895-3.666c-0.851-2.097-2.161-3.598-2.161-3.598s0.026,0.744,0.254,1.813
				c0.107,0.5,0.266,1.075,0.477,1.674c-1.169-1.517-2.422-2.458-2.422-2.458s0.029,0.116,0.093,0.317
				c0.189,0.608,0.689,1.994,1.641,3.4c0.478,0.703,1,1.31,1.465,1.794C93.542,60.547,94.026,60.947,94.238,61.117z M94.402,60.841
				l-0.101,0.17c-0.035-0.126-0.089-0.297-0.173-0.523C94.244,60.639,94.334,60.759,94.402,60.841z M94.575,62.105
				c-0.102,0.065-0.188,0.126-0.263,0.175l0.08-0.134C94.448,62.132,94.499,62.123,94.575,62.105z M92.452,64.007
				c0.015,0.013,0.031,0.031,0.042,0.041l-0.015,0.025C92.472,64.049,92.461,64.031,92.452,64.007z"/>
			<path fill="#8FAD3D" d="M91.287,64.35l-0.68,3.225c-0.26-0.438-1.113-1.774-2.508-3.008c-1.695-1.501-3.534-2.26-3.534-2.26
				l-0.002-0.001l0,0l0,0c0,0,0.354,0.655,1.034,1.51c0.257,0.323,0.565,0.677,0.914,1.032c-1.101-0.471-1.951-0.663-1.951-0.663
				s0.067,0.084,0.195,0.228c0.386,0.429,1.319,1.394,2.633,2.202c0.437,0.269,0.876,0.495,1.289,0.684
				c0.777,0.353,1.446,0.57,1.845,0.682l-0.716,3.407l0.641,0.137l0.521-2.459c0.049-0.011,0.109-0.028,0.19-0.051
				c0.306-0.088,0.809-0.247,1.412-0.498c0.604-0.25,1.307-0.589,2.01-1.034c0.707-0.448,1.315-0.938,1.799-1.378
				c0.805-0.729,1.267-1.315,1.267-1.315l0,0l0,0c0,0-0.846,0.199-1.969,0.687c0.089-0.109,0.179-0.218,0.259-0.324
				c0.612-0.81,0.935-1.427,0.935-1.427l0,0l0,0c0,0-1.636,0.712-3.154,2.132c-0.784,0.73-1.38,1.504-1.777,2.083
				c-0.443,0.417-0.762,0.763-0.937,0.966l0.678-3.225c0.045-0.018,0.085-0.029,0.147-0.055c0.198-0.078,0.479-0.193,0.816-0.354
				c0.338-0.16,0.73-0.363,1.149-0.607c0.417-0.25,0.862-0.54,1.302-0.88c0.882-0.681,1.583-1.422,2.062-1.993
				c0.48-0.571,0.74-0.97,0.74-0.97l0,0l0,0c0,0-1.033,0.341-2.3,1.092c0.043-0.052,0.092-0.107,0.133-0.159
				c0.549-0.705,0.978-1.389,1.289-1.944c0.416-0.737,0.621-1.238,0.621-1.238l0,0l0,0c0,0-1.898,1.047-3.578,2.933
				c-1.078,1.209-1.796,2.461-2.177,3.209l0.59-2.805c0.148-0.107,0.451-0.343,0.835-0.677c0.021-0.014,0.039-0.026,0.063-0.042
				c0.3-0.218,0.651-0.488,1.019-0.807c0.365-0.317,0.749-0.685,1.123-1.099c1.488-1.651,2.224-3.42,2.224-3.42
				s-0.275,0.152-0.691,0.435c0.468-0.99,0.684-1.704,0.684-1.704l0,0l0,0c0,0-1.784,1.231-3.265,3.274
				c-0.964,1.327-1.557,2.659-1.858,3.435c-0.005,0.01-0.008,0.015-0.011,0.021l0.02-0.094l-0.446-0.09
				c0.199-0.665,0.526-1.958,0.561-3.471c0.051-2.19-0.532-3.978-0.532-3.978l0,0l0,0l0,0c0,0-0.039,0.104-0.095,0.282
				c-0.007,0.018-0.014,0.037-0.02,0.056c-0.156,0.5-0.43,1.507-0.547,2.738c-0.586-2.282-1.629-3.952-1.629-3.952
				s-0.249,2.155,0.312,4.612c0.073,0.31,0.148,0.609,0.236,0.892c0.5,1.671,1.194,2.916,1.411,3.284l-0.469,2.231
				c-0.262-0.582-0.923-1.897-2.033-3.181c-1.484-1.709-3.207-2.706-3.207-2.706s0.263,0.696,0.828,1.634
				c0.261,0.442,0.597,0.93,0.992,1.431c-1.599-1.058-3.088-1.545-3.088-1.545s0.066,0.101,0.191,0.271
				c0.375,0.514,1.297,1.664,2.652,2.689c0.678,0.511,1.369,0.916,1.966,1.224C90.444,64.035,91.033,64.257,91.287,64.35z
				 M91.355,64.035l-0.042,0.195c-0.076-0.106-0.181-0.251-0.333-0.442C91.138,63.898,91.26,63.979,91.355,64.035z M91.924,65.176
				c-0.075,0.097-0.138,0.18-0.192,0.254l0.033-0.157C91.812,65.244,91.859,65.217,91.924,65.176z M90.532,67.661
				c0.016,0.009,0.038,0.021,0.053,0.025l-0.005,0.027C90.561,67.698,90.548,67.683,90.532,67.661z"/>
		</g>
		<g>
			<path opacity="0.24" fill="#754F37" d="M138.35,136.899c0.045-0.521,0.092-1.563-0.062-2.793c1.07,2.102,2.451,3.503,2.451,3.503
				s-0.228-2.158-1.312-4.434c-0.138-0.286-0.28-0.559-0.425-0.818c-0.276-0.496-0.559-0.921-0.831-1.308
				c0.087-0.474,0.163-0.974,0.205-1.508c0.017-0.235,0.017-0.455,0.025-0.68c0.343,0.323,0.719,0.658,1.158,0.978
				c0.732,0.542,1.475,0.959,2.105,1.267c0.478,0.519,0.823,0.816,0.823,0.816l0,0l0,0c0,0-0.02-0.111-0.064-0.29
				c-0.005-0.019-0.01-0.04-0.014-0.059c-0.01-0.04-0.028-0.099-0.04-0.144c0.545,0.23,0.909,0.35,0.909,0.35
				s-0.413-0.619-1.165-1.411c-0.035-0.04-0.082-0.081-0.119-0.119c-0.089-0.244-0.194-0.501-0.312-0.77
				c0.177,0.055,0.352,0.106,0.518,0.151c1.422,1.2,2.7,1.84,2.7,1.84s-0.294-0.613-0.847-1.467
				c0.077,0.012,0.129,0.019,0.129,0.019s-0.085-0.085-0.246-0.225c-0.009-0.009-0.029-0.024-0.044-0.037
				c-0.424-0.628-0.978-1.354-1.666-2.062c-0.223-0.222-0.447-0.435-0.665-0.638c-1.298-1.162-2.544-1.86-2.92-2.061l-0.041-0.113
				c0.399,0.285,0.832,0.582,1.335,0.862c1.982,1.091,3.944,1.432,3.944,1.432l0,0l0,0c0,0-0.488-0.56-1.339-1.246
				c-0.322-0.263-0.699-0.54-1.117-0.812c1.178,0.22,2.05,0.223,2.05,0.223s-0.085-0.066-0.243-0.179
				c-0.103-0.075-0.25-0.173-0.413-0.28c1.477,0.275,2.602,0.247,2.602,0.247s-0.591-0.455-1.558-0.961
				c-0.453-0.236-0.997-0.482-1.594-0.703c1.916,0.071,3.441-0.294,3.441-0.294s-0.109-0.049-0.304-0.13
				c-0.59-0.242-1.978-0.745-3.666-0.906c-0.847-0.085-1.648-0.069-2.317-0.019c-0.836,0.063-1.456,0.177-1.722,0.233l-0.914-2.572
				l-0.004-0.324l-0.111,0.003l-0.076-0.212c0.453,0.236,1.876,0.933,3.712,1.256c2.228,0.395,4.195,0.082,4.195,0.082l0,0
				c0,0-0.644-0.371-1.67-0.747c-0.388-0.141-0.833-0.28-1.318-0.406c1.185-0.169,2.01-0.45,2.01-0.45s-0.101-0.039-0.285-0.091
				c-0.553-0.17-1.851-0.504-3.394-0.508c-0.512,0.001-1.006,0.034-1.454,0.089c-0.85,0.104-1.535,0.273-1.934,0.384l-1.165-3.281
				l-0.62,0.219l0.842,2.365c-0.038,0.039-0.078,0.083-0.136,0.149c-0.215,0.231-0.56,0.632-0.946,1.158
				c-0.382,0.529-0.805,1.183-1.174,1.933c-0.368,0.751-0.63,1.483-0.814,2.111c-0.306,1.044-0.394,1.785-0.394,1.785l0,0l0,0
				c0,0,0.619-0.613,1.323-1.613c-0.015,0.103-0.028,0.206-0.039,0.307c-0.119,0.112-0.24,0.205-0.358,0.326
				c-0.59,0.591-1.076,1.199-1.452,1.734c-0.627,0.888-0.951,1.56-0.951,1.56l0,0l0,0c0,0,0.785-0.379,1.773-1.1
				c-0.064,0.127-0.128,0.254-0.183,0.373c-0.422,0.924-0.602,1.598-0.602,1.598s1.439-1.053,2.614-2.77
				c0.291-0.428,0.537-0.855,0.744-1.257c-0.054,0.129-0.115,0.234-0.167,0.366c-0.327,0.858-0.507,1.651-0.63,2.327
				c-0.28,0.275-0.563,0.556-0.838,0.887c-0.713,0.858-1.235,1.733-1.579,2.394c-0.345,0.662-0.512,1.111-0.512,1.111l0,0l0,0
				c0,0,0.936-0.562,2.008-1.567c-0.031,0.059-0.067,0.123-0.094,0.183c-0.383,0.806-0.652,1.571-0.835,2.178
				c-0.245,0.809-0.335,1.345-0.335,1.345s1.624-1.439,2.851-3.643c0.149-0.269,0.273-0.53,0.398-0.794
				c0.024,0.612,0.076,1.059,0.099,1.248c-0.186,0.222-0.371,0.435-0.576,0.709c-0.289,0.393-0.582,0.836-0.855,1.318
				c-1.094,1.94-1.423,3.825-1.423,3.825s0.233-0.207,0.58-0.574c-0.239,1.07-0.296,1.813-0.296,1.813s1.471-1.593,2.473-3.91
				c0.648-1.503,0.937-2.931,1.059-3.755c0.005-0.01,0.005-0.02,0.007-0.027l0.002,0.098l0.337-0.006
				c-0.159,1.683,0.036,2.978,0.036,2.978s0.07-0.128,0.163-0.317c0.036,0.277,0.072,0.554,0.13,0.846
				c0.428,2.148,1.389,3.767,1.389,3.767l0,0l0,0c0,0,0.015-0.111,0.033-0.297C138.348,136.939,138.347,136.917,138.35,136.899z
				 M138.311,123.128c-0.121-0.018-0.242-0.043-0.353-0.058l-0.078-0.218C137.988,122.926,138.146,123.028,138.311,123.128z
				 M138.257,122.675c-0.191-0.01-0.337-0.013-0.445-0.014l-0.067-0.188C137.865,122.524,138.031,122.588,138.257,122.675z
				 M136.815,121.817L136.815,121.817L136.815,121.817L136.815,121.817z M136.62,119.137c-0.019,0.002-0.044,0.004-0.058,0.006
				l-0.01-0.027C136.574,119.125,136.594,119.128,136.62,119.137z M134.846,122.336c0.287-1.034,0.392-2.006,0.429-2.704
				c0.159-0.585,0.251-1.044,0.294-1.312l0.563,1.578l0.024,2.082c-0.046,0.025-0.1,0.053-0.171,0.095
				c-0.282,0.15-0.737,0.415-1.272,0.793c-0.014,0.011-0.03,0.022-0.043,0.033C134.732,122.716,134.792,122.531,134.846,122.336z
				 M137.005,122.356l0.222,0.623c-0.063-0.007-0.133-0.011-0.188-0.017C137.03,122.741,137.021,122.528,137.005,122.356z
				 M135.457,123.291c0.052-0.077,0.084-0.135,0.132-0.205c-0.056,0.102-0.111,0.177-0.168,0.285
				C135.431,123.344,135.448,123.315,135.457,123.291z M139.17,127.167c-0.2-0.06-0.407-0.129-0.592-0.177
				c-0.084-0.023-0.156-0.036-0.238-0.056c-0.05-0.507-0.112-0.959-0.173-1.291c0-0.009-0.002-0.019-0.001-0.026l0.032,0.091
				l0.431-0.154C138.726,125.931,138.907,126.51,139.17,127.167z M136.874,126.653l-0.009-0.725c0.138-0.87,0.183-1.673,0.182-2.356
				c0.145,0.143,0.337,0.322,0.582,0.536l0.337,0.949c-0.069,0.168-0.205,0.526-0.358,1.011c-0.011,0.026-0.019,0.041-0.031,0.068
				c-0.071,0.165-0.144,0.393-0.217,0.591C137.153,126.692,136.982,126.669,136.874,126.653z M136.879,126.975l-0.004-0.198
				c0.082,0.075,0.21,0.182,0.353,0.301c-0.002,0.009-0.004,0.016-0.008,0.028C137.086,127.054,136.962,127.008,136.879,126.975z
				 M136.88,127.179c0.055,0.077,0.146,0.185,0.222,0.278c-0.078,0.256-0.14,0.546-0.208,0.823L136.88,127.179z M135.583,130.138
				c-0.019,0.021-0.034,0.034-0.052,0.057c-0.013,0.012-0.03,0.039-0.043,0.052c0.182-0.365,0.47-1.007,0.752-1.819l0.01,0.867
				C136.129,129.432,135.885,129.725,135.583,130.138z"/>
			<path fill="#538442" d="M137.799,126.274l-0.329-3.279c0.381,0.337,1.599,1.352,3.303,2.105c2.068,0.916,4.052,1.083,4.052,1.083
				l0.003,0.002l0-0.001l0,0c0,0-0.536-0.513-1.444-1.122c-0.343-0.232-0.742-0.474-1.182-0.708c1.19,0.114,2.06,0.041,2.06,0.041
				s-0.09-0.061-0.254-0.156c-0.497-0.299-1.679-0.934-3.177-1.304c-0.497-0.125-0.985-0.208-1.434-0.262
				c-0.848-0.104-1.553-0.105-1.966-0.094l-0.348-3.465l-0.655,0.066l0.251,2.5c-0.045,0.029-0.094,0.06-0.163,0.108
				c-0.268,0.174-0.699,0.48-1.199,0.9c-0.498,0.424-1.066,0.958-1.603,1.597c-0.535,0.637-0.965,1.291-1.294,1.856
				c-0.546,0.939-0.81,1.638-0.81,1.638l0,0l0,0c0,0,0.748-0.447,1.671-1.252c-0.053,0.131-0.105,0.262-0.149,0.389
				c-0.339,0.958-0.459,1.644-0.459,1.644l0,0l0,0c0,0,1.342-1.178,2.361-2.988c0.526-0.937,0.859-1.855,1.062-2.525
				c0.296-0.528,0.496-0.956,0.6-1.201l0.328,3.275c-0.037,0.03-0.068,0.054-0.121,0.097c-0.165,0.136-0.4,0.33-0.671,0.585
				c-0.274,0.251-0.587,0.565-0.91,0.93c-0.324,0.359-0.659,0.774-0.976,1.231c-0.633,0.913-1.077,1.831-1.361,2.523
				c-0.286,0.69-0.412,1.149-0.412,1.149l0,0l0,0c0,0,0.882-0.639,1.86-1.737c-0.024,0.064-0.055,0.128-0.077,0.191
				c-0.311,0.838-0.513,1.621-0.642,2.242c-0.171,0.83-0.216,1.369-0.216,1.369l0,0l0,0c0,0,1.491-1.572,2.52-3.878
				c0.66-1.478,0.967-2.891,1.104-3.717l0.286,2.851c-0.108,0.148-0.324,0.463-0.591,0.899c-0.016,0.022-0.028,0.04-0.045,0.061
				c-0.224,0.298-0.474,0.661-0.728,1.075c-0.253,0.414-0.506,0.883-0.737,1.388c-0.919,2.025-1.083,3.932-1.083,3.932
				s0.214-0.23,0.527-0.62c-0.144,1.083-0.138,1.83-0.138,1.83l0.003-0.003l0,0.003c0,0,1.326-1.715,2.119-4.112
				c0.517-1.554,0.679-3.001,0.729-3.833c0.002-0.011,0.003-0.017,0.004-0.027l0.01,0.096l0.454-0.046
				c0.009,0.692,0.092,2.024,0.516,3.479c0.614,2.099,1.711,3.628,1.711,3.628l0.001,0l0,0l0,0c0,0,0.005-0.113,0.006-0.297
				c0.001-0.021-0.001-0.04,0.001-0.061c-0.001-0.521-0.046-1.563-0.305-2.774c1.247,1.995,2.747,3.272,2.747,3.272
				s-0.415-2.125-1.695-4.301c-0.161-0.272-0.325-0.535-0.494-0.777c-0.982-1.443-2.02-2.418-2.338-2.704l-0.228-2.269
				c0.424,0.476,1.452,1.53,2.9,2.415c1.931,1.181,3.877,1.608,3.877,1.608s-0.463-0.582-1.282-1.307
				c-0.383-0.339-0.853-0.706-1.378-1.062c1.842,0.524,3.409,0.536,3.409,0.536s-0.092-0.076-0.263-0.199
				c-0.514-0.377-1.741-1.194-3.343-1.758c-0.802-0.282-1.582-0.458-2.244-0.571C138.696,126.317,138.071,126.283,137.799,126.274z
				 M137.831,126.592l-0.02-0.196c0.103,0.079,0.248,0.186,0.45,0.317C138.079,126.66,137.934,126.617,137.831,126.592z
				 M136.941,125.678c0.042-0.113,0.076-0.213,0.107-0.296l0.015,0.155C137.027,125.581,136.991,125.619,136.941,125.678z
				 M137.516,122.887c-0.02-0.002-0.043-0.007-0.058-0.008l-0.003-0.029C137.475,122.864,137.494,122.873,137.516,122.887z"/>
			<path fill="#8FAD3D" d="M138.248,121.919l-1.371-2.998c0.469,0.197,1.949,0.763,3.806,0.927c2.255,0.199,4.185-0.284,4.185-0.284
				l0.003-0.001l0,0l0,0c0,0-0.674-0.316-1.729-0.599c-0.398-0.107-0.856-0.208-1.348-0.287c1.165-0.276,1.963-0.627,1.963-0.627
				s-0.103-0.027-0.291-0.068c-0.567-0.115-1.89-0.336-3.427-0.204c-0.512,0.043-1,0.123-1.444,0.217
				c-0.835,0.178-1.502,0.402-1.889,0.548l-1.45-3.165l-0.597,0.271l1.044,2.286c-0.033,0.039-0.071,0.087-0.122,0.154
				c-0.194,0.253-0.504,0.679-0.84,1.239c-0.337,0.56-0.7,1.251-1.001,2.027c-0.301,0.78-0.499,1.536-0.627,2.177
				c-0.214,1.065-0.236,1.81-0.236,1.81l0,0l0,0c0,0,0.562-0.663,1.175-1.723c-0.006,0.141-0.015,0.282-0.016,0.415
				c-0.011,1.015,0.097,1.703,0.097,1.703l0,0l0,0c0,0,0.892-1.544,1.268-3.589c0.195-1.053,0.215-2.03,0.191-2.731
				c0.107-0.599,0.159-1.066,0.178-1.334l1.373,2.996c-0.026,0.042-0.051,0.074-0.086,0.132c-0.113,0.18-0.27,0.44-0.446,0.77
				c-0.176,0.329-0.371,0.726-0.562,1.171c-0.188,0.449-0.372,0.947-0.524,1.483c-0.304,1.072-0.428,2.084-0.473,2.828
				c-0.047,0.745-0.018,1.22-0.018,1.22l0,0l0,0c0,0,0.628-0.889,1.2-2.245c-0.004,0.067-0.01,0.14-0.012,0.206
				c-0.022,0.894,0.04,1.699,0.12,2.331c0.104,0.839,0.236,1.364,0.236,1.364l0,0l0,0c0,0,0.904-1.971,1.133-4.485
				c0.148-1.613-0.02-3.048-0.158-3.875l1.193,2.606c-0.055,0.174-0.158,0.544-0.269,1.041c-0.008,0.025-0.016,0.044-0.026,0.071
				c-0.112,0.354-0.233,0.779-0.339,1.255c-0.105,0.473-0.196,0.997-0.251,1.552c-0.214,2.213,0.246,4.072,0.246,4.072
				s0.131-0.286,0.297-0.76c0.213,1.074,0.463,1.776,0.463,1.776l0,0l0,0c0,0,0.702-2.051,0.678-4.573
				c-0.014-1.64-0.329-3.064-0.549-3.867c-0.002-0.01-0.003-0.016-0.003-0.023l0.04,0.086l0.412-0.193
				c0.235,0.653,0.741,1.887,1.613,3.124c1.261,1.792,2.794,2.883,2.794,2.883l0,0l0,0l0,0c0,0-0.03-0.107-0.091-0.283
				c-0.005-0.018-0.011-0.038-0.018-0.057c-0.172-0.494-0.55-1.468-1.188-2.527c1.828,1.486,3.661,2.209,3.661,2.209
				s-1.082-1.881-2.993-3.523c-0.243-0.205-0.481-0.402-0.72-0.577c-1.396-1.047-2.694-1.635-3.087-1.801l-0.95-2.073
				c0.556,0.312,1.87,0.977,3.526,1.348c2.21,0.491,4.188,0.269,4.188,0.269s-0.626-0.403-1.637-0.821
				c-0.473-0.201-1.033-0.392-1.648-0.561c1.914-0.1,3.401-0.594,3.401-0.594s-0.113-0.042-0.315-0.105
				c-0.607-0.19-2.033-0.566-3.732-0.585c-0.849-0.008-1.646,0.078-2.309,0.185C139.114,121.67,138.509,121.842,138.248,121.919z
				 M138.382,122.212l-0.083-0.182c0.125,0.04,0.295,0.095,0.53,0.157C138.637,122.193,138.491,122.2,138.382,122.212z
				 M137.246,121.633c0.003-0.122,0.004-0.226,0.003-0.318l0.066,0.146C137.294,121.512,137.274,121.561,137.246,121.633z
				 M136.887,118.807c-0.018,0.003-0.043,0.007-0.057,0.012l-0.013-0.026C136.841,118.795,136.861,118.799,136.887,118.807z"/>
		</g>
	</g>
</g>
</svg>
