<?xml version="1.0" encoding="utf-8"?>
<!-- Generator: Adobe Illustrator 17.0.0, SVG Export Plug-In . SVG Version: 6.00 Build 0)  -->
<!DOCTYPE svg PUBLIC "-//W3C//DTD SVG 1.1//EN" "http://www.w3.org/Graphics/SVG/1.1/DTD/svg11.dtd">
<svg version="1.1" id="Layer_1" xmlns="http://www.w3.org/2000/svg" xmlns:xlink="http://www.w3.org/1999/xlink" x="0px" y="0px"
	 width="73.5px" height="75.833px" viewBox="0 0 73.5 75.833" enable-background="new 0 0 73.5 75.833" xml:space="preserve">
<g>
	<path fill="#FFD423" d="M7.931,34.938c-6.575,5.706-5.873,16.304-2.111,25.054c4.612,10.733,16.687,15.843,26.962,11.428
		c4.945-2.125,8.999-5.098,10.911-9.828c4.759,1.862,9.7,0.961,14.654-1.168c10.273-4.421,14.863-16.7,10.249-27.428
		c-3.777-8.797-11.725-15.233-20.43-14.323C45.482,5.376,30.81-0.797,18.985,4.293C7.141,9.382,0.099,23.847,7.931,34.938z
		 M41.959,15.008c0.358,0.83,1.04,4.101,1.934,5.677c1.443,2.557,2.987,3.674,5.918,3.367c5.155-0.542,10.969,4.462,13.817,11.077
		c3.147,7.336-0.727,17.445-7.604,20.399c-5.213,2.242-9.013,2.107-10.739,1.432c-3.386-1.33-5.983-0.673-7.35,2.692
		c-0.696,1.711-1.976,5.272-7.192,7.514c-6.881,2.956-17.882-1.519-21.207-8.772c-4.14-9.035-3.356-16.675,0.556-20.079
		c2.206-1.906,4.259-1.965,3.102-4.648c-0.18-0.414-0.982-1.846-1.254-2.22c-0.488-0.702-0.932-2.766-1.247-3.502
		c-3.088-7.19,3.131-16.194,10.08-19.185c3.545-1.522,8.772-1.609,12.428-0.277C36.831,9.803,40.527,11.681,41.959,15.008z"/>
	<path fill="#FFD732" d="M10.504,34.949c-5.882,5.103-5.256,14.587-1.886,22.409c4.124,9.605,14.915,14.181,24.113,10.229
		c4.428-1.906,8.052-4.567,9.765-8.79c4.248,1.661,8.671,0.86,13.101-1.04c9.189-3.953,13.297-14.94,9.168-24.54
		c-3.379-7.863-10.483-13.625-18.276-12.813C44.088,8.516,30.963,3.001,20.392,7.546C9.799,12.104,3.503,25.04,10.504,34.949z
		 M40.939,17.13c0.324,0.738,1.265,3.52,2.06,4.93c1.292,2.291,2.379,3.674,4.959,3.156c2.278-0.457,4.302-0.475,6.847,1.42
		c0.981,0.736,2.03,1.452,2.71,2.44c1.396,2.033,3.298,3.415,3.807,5.787c0.245,1.182,1.11,3.062,1.393,4.664
		c0.536,3.131-1.11,2.971-0.892,4.914c0.448,3.957-0.795,5.276-2.526,6.931c-0.822,0.783-1.889,1.051-2.667,2.098
		c-0.644,0.846-1.853,1.576-2.749,1.726c-1.585,0.27-2.395,1.108-4.121,0.597c-0.921-0.266-1.31-0.446-2.039-0.439
		c-1.488,0.013-2.859,0.286-3.615,0.151c-1.04-0.187-2.003,0.2-2.517-0.869c-0.142-0.275-0.923-1.632-1.144-1.884
		c-1.312-1.506-2.373,2.496-3.1,4.304c-0.628,1.535-1.904,5.562-6.562,7.572c-1.364,0.588-3.138-0.299-5.605,0.763
		c-1.817,0.781-2.699-0.164-4.115-0.468c-2.195-0.48-4.306-0.716-5.625-2.445c-1.623-2.123-3.079-3.154-3.748-5.236
		c-1.098-3.458-1.047-4.698-1.726-6.465c-0.335-0.903-0.187-2.114-0.277-2.895c-0.065-0.664-0.349-1.495-0.196-2.15
		c0.486-2.044,0.923-2.692,1.157-3.741c0.457-2.087,0.461-2.863,1.785-4.009c1.976-1.713,3.802-1.767,2.778-4.164
		c-0.162-0.38-0.887-1.65-1.126-1.994c-0.441-0.621-0.826-2.467-1.117-3.124c-1.432-3.329-0.121-6.343,0.943-9.97
		c0.297-0.999,0.887-1.213,1.353-2.391c0.331-0.828,1.708-1.664,2.123-2.442c0.664-1.263,3.251-1.778,4.606-2.354
		c1.242-0.538,2.616-1.301,4.124-1.02c1.063,0.203,2.127,0.059,3.307-0.266c1.134-0.306,3.212-0.025,4.126,0.691
		c0.792,0.633,2.024,0.552,2.886,1.328C38.297,13.972,39.825,14.537,40.939,17.13z"/>
	<path fill="#FEDF3B" d="M7.978,31.156c0.452,1.153,0.299,1.983,0.88,3.106c0.228-0.124,0.718,0.245,0.97,0.209
		c-0.2,1.188-2.084,2.355-2.728,3.491c-0.79,1.423-1.186,3.032-1.632,4.585c-0.603,2.107-0.887,4.288-0.815,6.481
		c0.162,4.709,1.853,9.427,4.534,13.29c4.678,6.733,13.315,9.958,21.301,8.157c2.595-0.585,5.411-2.159,7.332-4
		c1.697-1.634,2.539-4.016,4.286-5.585c1.819-1.639,3.178-0.551,5.287-0.263c2.08,0.29,4.518,0.178,6.528-0.484
		c5.997-1.958,10.636-5.709,13.049-11.595c1.414-3.451,1.841-7.183,0.999-10.836c-1.382-6.037-5.508-12.829-11.212-15.541
		c-3.257-1.553-6.566-1.94-10.066-2.539c1.36-1.08-2.697-6.35-3.273-7.696c-1.173-2.726-3.174-3.75-5.79-4.909
		C35.256,5.983,33,4.351,30.369,4.462c-3.867,0.153-7.109-0.326-10.778,1.249c-3.521,1.517-6.134,5.013-8.988,7.419
		c-2.078,1.758-2.199,3.856-3.242,6.278c-1.069,2.462-1.866,5.332-1.247,8.034c0.315,1.398,1.294,2.337,1.828,3.624
		C7.958,31.1,7.971,31.131,7.978,31.156z M40.813,15.318c1.432,1.382,2.163,4.792,2.96,6.623c0.912,2.06-0.05,3.325,3.156,2.708
		c2.195-0.417,3.165-0.18,5.362,0.59c1.927,0.677,4.38,2.172,6.003,3.424c2.613,2.017,5.067,5.783,5.999,8.932
		c1.952,6.595-2.622,14.841-8.9,17.693c-1.519,0.691-3.883,1.263-5.535,1.499c-1.258,0.185-2.971,0.493-4.247,0.326
		c-1.366-0.169-1.814-0.513-3.037-0.986c-1.285-0.504-1.9-0.155-2.577,0.137c-1.936,0.837-1.281,1.63-2.062,3.388
		c-0.948,2.148-2.557,4.311-4.617,5.556c-3.449,2.084-9.236,2.53-13.033,1.123C12.64,63.501,6.465,51.897,8.651,44.176
		c0.547-1.94,1.625-5.107,2.875-6.685c0.637-0.806,1.301-1.677,1.999-2.44c1.333-1.456-0.056-1.65-0.842-3.167
		c-0.99-1.916-1.222-4.11-1.348-6.312c-0.128-2.276-0.061-5.81,0.941-7.897c1.11-2.314,4.822-4.851,6.789-6.386
		c3.192-2.508,6.127-3.422,9.981-3.048C30.398,8.374,35.575,10.253,40.813,15.318z"/>
	
		<radialGradient id="SVGID_1_" cx="3177.6174" cy="-1289.0878" r="35.8491" gradientTransform="matrix(-0.559 -0.8292 0.8292 -0.559 2877.0183 1954.3722)" gradientUnits="userSpaceOnUse">
		<stop  offset="0.0522" style="stop-color:#FFF6D7"/>
		<stop  offset="0.2123" style="stop-color:#FEF6D5"/>
		<stop  offset="0.3167" style="stop-color:#FCF4CE"/>
		<stop  offset="0.4053" style="stop-color:#F9F1C2"/>
		<stop  offset="0.4849" style="stop-color:#F5EDB2"/>
		<stop  offset="0.5579" style="stop-color:#F0E99D"/>
		<stop  offset="0.6076" style="stop-color:#EDE58B"/>
		<stop  offset="0.6465" style="stop-color:#EDE688"/>
		<stop  offset="0.688" style="stop-color:#EDE67E"/>
		<stop  offset="0.7306" style="stop-color:#EEE76C"/>
		<stop  offset="0.7656" style="stop-color:#EFE954"/>
		<stop  offset="0.8587" style="stop-color:#FAEF6D"/>
		<stop  offset="1" style="stop-color:#FEDF3B"/>
	</radialGradient>
	<path fill="url(#SVGID_1_)" d="M15.226,10.262c-2.332,1.909-4.714,4.281-5.652,7.19C8.98,19.3,7.922,20.896,7.463,22.828
		c-0.466,1.924-0.491,4.304,0.446,6.096c0.185,0.353,1.301,1.364,1.283,2.255c-0.025,1.634,1.254,1.997,1.693,3.016
		c-0.126,1.117-0.842,1.31-1.103,1.722c-4.709,7.34-4.065,9.553-3.584,15.109c0.565,6.483,4.209,12.623,9.916,15.919
		c4.905,2.823,11.494,3.703,16.705,1.096c1.947-0.972,4.031-2.138,5.531-3.887c0.506-0.599,1.333-2.31,2.251-3.685
		c0.317-0.477,0.331-1.098,0.646-1.137c0.849-0.101,1.301-0.876,1.754-0.777c2.084,0.437,3.996,1.528,6.127,1.598
		c2.573,0.09,4.216-0.986,6.485-1.897c2.296-0.923,5.398-2.42,6.726-4.583c1.047-1.691,2.737-2.886,3.269-4.842
		c0.518-1.889,1.474-4.07,1.301-6.021c-0.157-1.767,0.045-3.595-0.329-5.346c-0.358-1.713-1.445-3.037-2.192-4.597
		c-0.756-1.569-1.569-3.154-2.533-4.608c-2.341-3.527-6.73-6.292-10.922-6.994c-1.119-0.191-2.242-0.434-3.377-0.344
		c-0.394,0.025-1.074,0.007-1.206-0.349c-0.025-0.052-0.014-1.098-0.029-1.166c-0.347-2.015-1.236-3.095-2.168-4.865
		c-0.711-1.353-0.876-2.645-1.977-3.775c-1.393-1.427-3.226-2.251-5.022-3.059c-1.479-0.664-3.124-1.817-4.711-2.138
		c-1.144-0.23-2.339,0.07-3.48,0.065c-1.427-0.005-2.85-0.083-4.27-0.088C21.272,5.533,17.774,8.178,15.226,10.262z M19.136,12.698
		c3.156-0.059,4.961-3.127,8.365-2.629c1.535,0.218,5.276-1.249,9.189,1.859c2.089,1.641,3.203,2.816,4.149,5.558
		c0.585,1.67,1.202,3.451,2.006,4.981c0.581,1.105-4.205,6.064-2.956,6.852c0.502,0.319,1.357,1.033,2.573,0.115
		c2.183-1.643,5.803-4.043,7.307-4.25c2.064-0.281,4.752,0.993,6.445,2.193c4.5,3.174,8.338,12.261,6.319,15.433
		c-0.621,0.975-0.351,3.791-0.745,4.853c-1.956,5.272-8.34,10.096-13.321,8.11c-1.168-0.459-6.195,0.18-6.37-1.272
		c-0.254-2.251-2.166-3.946-2.951-4.954c-0.52-0.671-1.112,0.097-1.814,0.38c-2.278,0.914-0.005,7.46-1.087,9.416
		c-1.436,2.611-4.119,6.21-7.095,5.873c-1.564-0.173-4.675,1.105-6.406,0.779c-2.141-0.403-5.891-1.54-7.403-3.068
		c-1.153-1.17-2.508-2.6-3.782-4.988c-1.204-2.246-1.175-4.727-1.569-6.141c-0.493-1.76-0.61-3.41-0.7-5.265
		c-0.112-2.467,1.871-4.194,2.309-6.674c0.369-2.134,2.105-1.771,3.352-1.625c1.161,0.137,6.379-0.822,6.289-1.603
		c-0.263-2.181-4.151-2.264-5.024-3.595c-0.993-1.526-2.134-3.64-3.178-5.123c-1.013-1.434-0.806-3.937-0.374-5.825
		c0.653-2.886,0.669-4.7,2.798-6.614C16.194,14.809,17.619,12.727,19.136,12.698z"/>
</g>
</svg>
