<?xml version="1.0" encoding="utf-8"?>
<!-- Generator: Adobe Illustrator 17.0.0, SVG Export Plug-In . SVG Version: 6.00 Build 0)  -->
<!DOCTYPE svg PUBLIC "-//W3C//DTD SVG 1.1//EN" "http://www.w3.org/Graphics/SVG/1.1/DTD/svg11.dtd">
<svg version="1.1" id="Layer_1" xmlns="http://www.w3.org/2000/svg" xmlns:xlink="http://www.w3.org/1999/xlink" x="0px" y="0px"
	 width="59.544px" height="57.605px" viewBox="0 0 59.544 57.605" enable-background="new 0 0 59.544 57.605" xml:space="preserve">
<g>
	<g>
		<path fill="#E91E25" d="M19.68,3.761C4.954,8.924,2.358,26.017,2.358,26.017C1.802,33.805,5.586,41.15,8.925,45.713
			c3.336,4.562,9.902,9.569,21.42,10.348c11.516,0.779,18.751-5.229,24.313-14.644c5.562-9.414,3.115-18.74-1.717-27.863
			C48.112,4.429,34.406-1.401,19.68,3.761z"/>
		<path fill="#C52026" d="M53.533,13.241c-0.925-1.747-2.163-3.379-3.676-4.853c-1.513-1.469-3.273-2.755-5.234-3.822
			c-4.095-2.227-8.894-3.405-13.877-3.405v0.667V1.161c-3.759,0-7.557,0.663-11.289,1.97c-3.453,1.211-6.539,3.168-9.171,5.815
			c-2.096,2.109-3.91,4.66-5.387,7.577c-2.508,4.958-3.174,9.215-3.201,9.392l-0.002,0.027l-0.004,0.026
			c-0.257,3.621,0.369,7.436,1.866,11.345c1.457,3.804,3.428,6.881,4.826,8.792c0.927,1.265,2.015,2.456,3.232,3.538
			c1.38,1.227,2.942,2.32,4.63,3.247c3.978,2.184,8.709,3.476,14.053,3.836c0.678,0.046,1.355,0.07,2.015,0.07
			c2.593,0,5.063-0.364,7.338-1.084c2.166-0.684,4.236-1.717,6.147-3.069c3.469-2.452,6.553-6.013,9.432-10.886
			c1.378-2.331,2.334-4.77,2.841-7.248c0.468-2.305,0.567-4.732,0.29-7.207c-0.254-2.278-0.813-4.598-1.704-7.094
			C55.883,18.021,54.859,15.743,53.533,13.241z M54.658,41.417c-5.24,8.866-11.96,14.712-22.343,14.712
			c-0.644,0-1.301-0.023-1.97-0.068c-11.518-0.779-18.085-5.786-21.42-10.348C5.586,41.15,1.802,33.805,2.358,26.017
			c0,0,2.595-17.093,17.322-22.256c3.802-1.331,7.534-1.933,11.066-1.933c10.145,0,18.614,4.956,22.195,11.725
			C57.774,22.677,60.22,32.003,54.658,41.417z"/>
	</g>
	<path fill="#F26B48" d="M46.98,44.71c1.002,0.11,3.561,0.334,5.961-2.33c2.404-2.665,5.612-15.696,0-26.936
		C47.331,4.207,34.183,3.985,32.745,4.042c-1.439,0.059-2.346,3.057-3.235,3.278c-0.891,0.224-1.78-3.782-5.452-3.226
		S11.583,8.625,7.032,15.779c-4.549,7.152-2.337,18.489-2.337,18.489c2.388,7.136,6.121,11.333,7.458,11.11
		c1.333-0.222,2.672-1.002,2.447,0.223c-0.223,1.224-0.556,4.34,6.564,6.676c7.122,2.336,17.249,0.224,20.594-0.668
		c3.349-0.89,4.887-3.783,4.443-5.007C45.756,45.377,45.978,44.599,46.98,44.71z"/>
	<path fill="#F5845C" d="M46.8,43.753c0.09,0,0.189,0.007,0.284,0.017c0.245,0.028,0.513,0.052,0.83,0.052
		c1.628,0,3.084-0.698,4.327-2.075c1.056-1.173,2.384-4.97,2.764-9.695c0.212-2.662,0.115-5.314-0.293-7.883
		c-0.47-2.973-1.351-5.767-2.613-8.301C46.816,5.287,34.453,4.982,33.06,4.982c-0.142,0-0.234,0.003-0.277,0.006
		c-0.072,0.002-0.236,0.094-0.466,0.343c-0.284,0.31-0.567,0.746-0.837,1.167c-0.536,0.836-1.002,1.557-1.74,1.741
		c-0.099,0.025-0.2,0.038-0.301,0.038c-0.754,0-1.211-0.619-1.695-1.273c-0.664-0.898-1.492-2.017-3.003-2.017
		c-0.171,0-0.356,0.014-0.54,0.043c-1.531,0.232-4.502,1.22-7.836,3.241c-2.55,1.548-6.1,4.194-8.531,8.015
		c-2.226,3.495-2.712,8.12-2.73,11.384c-0.016,3.317,0.437,5.944,0.511,6.358c0.981,2.916,2.316,5.651,3.766,7.71
		c1.333,1.901,2.348,2.627,2.663,2.699c0.284-0.052,0.585-0.133,0.876-0.214c0.448-0.124,0.873-0.242,1.261-0.242
		c0.574,0,0.905,0.254,1.083,0.467c0.277,0.333,0.367,0.777,0.268,1.321c-0.155,0.854-0.63,3.456,5.929,5.608
		c2.057,0.674,4.569,1.016,7.469,1.016c5.9,0,11.521-1.416,12.59-1.698c2.305-0.615,3.273-2.175,3.516-2.637
		c0.297-0.57,0.329-0.998,0.279-1.135c-0.383-1.052-0.367-1.885,0.047-2.476C45.674,44.001,46.183,43.753,46.8,43.753z"/>
	<path fill="#F2A579" d="M39.496,35.955c1.319-0.124,4.241,3.676,6.089,4.345c1.853,0.668,3.349,0.278,5.88-2.108
		c1.713-1.615,2.62-8.41,2.289-11.882c-0.335-3.472-4.007-11.383-5.627-13.33c-1.621-1.948-5.225-3.561-7.559-4.22
		c-2.337-0.66-4.844-2.013-7.124-0.44c-2.282,1.573-1.391,6.44-1.612,8.399c-0.221,1.961-1.155,1.859-1.155,1.859
		c-2.722,0.505-3.298-4.153-3.53-6.396c-0.234-2.244-1.981-4.863-4.027-4.594c-1.738,0.23-4.297,1.667-6.632,2.902
		c-4.094,2.162-7.221,8.33-8.101,10.602c-2.418,6.248-1.042,11.529,0,15.703c1.042,4.173,4.299,5.841,5.681,5.823
		c1.384-0.017,3.627-1.818,4.396-3.523c0.768-1.704,1.556-3.111,2.778-3.356c1.229-0.244,2.13,1.221,0.907,2.8
		c-1.222,1.578-5.135,8.288-3.847,9.553c1.288,1.267,4.14,2.087,5.765,2.639c2.541,0.863,4.606,0.522,7.604,0.211
		c4.005-0.417,2.553-0.627,5.61-1.148c3.062-0.52,5.639-1.372,5.799-3.881c0.07-1.075-0.405-3.878-2.654-6.486
		C38.174,36.818,38.17,36.077,39.496,35.955z"/>
	<g>
		<path fill="#C72026" d="M18.161,16.669c1.335-1.446,4.671-3.894,5.229-1.225c0.556,2.671,0.668,7.79,3.226,7.011
			c1.193-0.363,1.114-1.892,0.558-5.453c-0.558-3.56-1.67-9.458-4.896-8.346c-3.228,1.112-4.788,1.781-7.345,3.897
			c-2.559,2.113-7.455,12.46-7.23,15.355c0.218,2.893,1.333,12.907,5.56,13.463c4.227,0.556,4.227-4.229,5.677-5.006
			c1.447-0.779,5.898-4.564,4.783-5.676c-1.11-1.113-4.425,3.45-6.107,3.56c-1.682,0.111-4.684-2.78-4.241-5.229
			C13.821,26.573,16.823,18.115,18.161,16.669z"/>
	</g>
	<g>
		<path fill="#E11E26" d="M17.753,16.291c0.826-0.897,2.809-2.593,4.385-2.593c0.545,0,1.499,0.213,1.799,1.634
			c0.11,0.538,0.205,1.16,0.301,1.819c0.302,2.037,0.718,4.827,1.88,4.827c0.103,0,0.214-0.018,0.335-0.055
			c0.243-0.073,0.484-0.214,0.542-1.033c0.056-0.824-0.101-2.064-0.371-3.802c-0.275-1.735-0.633-3.729-1.238-5.355
			c-0.653-1.763-1.441-2.656-2.337-2.656c-0.187,0-0.385,0.036-0.592,0.107c-3.138,1.083-4.666,1.729-7.17,3.798
			c-1.11,0.917-2.884,3.741-4.513,7.194c-1.598,3.393-2.613,6.484-2.521,7.69c0.441,5.725,2.037,12.554,5.083,12.954
			c0.203,0.026,0.399,0.041,0.583,0.041c1.976,0,2.674-1.518,3.352-2.985c0.41-0.89,0.763-1.656,1.404-2.001
			c0.538-0.289,1.679-1.139,2.74-2.143c1.13-1.068,1.848-2.012,1.925-2.527c0.002-0.03,0.011-0.1-0.011-0.123
			c-0.007-0.008-0.011-0.011-0.041-0.011c-0.479,0-1.6,0.977-2.422,1.691c-1.17,1.02-2.276,1.983-3.214,2.045
			c-0.043,0.002-0.086,0.003-0.13,0.003l0,0c-1.033,0-2.37-0.795-3.392-2.025c-1.047-1.252-1.519-2.66-1.301-3.865
			C13.28,26.423,16.297,17.866,17.753,16.291z"/>
	</g>
	<path fill="#C72026" d="M45.422,34.584c-2.67-0.666-3.671-4.451-5.787-4.562c-2.111-0.112-2.692,1.298,0.878,4.654
		c3.575,3.358,7.802,6.363,10.028,2.023c2.226-4.34,3.446-8.234,1.224-14.022c-2.226-5.785-3.561-10.238-8.9-12.24
		c-5.342-2.002-6.791-3.338-8.903-1.446c-2.116,1.892-0.779,6.342-1.004,8.457c-0.223,2.114-0.446,3.784,1.004,4.451
		c1.627,0.751,2.334-3.449,2.67-5.786c0.333-2.338,2.224-1.781,4.563,0c2.336,1.779,4.34,6.564,5.006,11.349
		C46.867,32.248,48.094,35.251,45.422,34.584z"/>
	<path fill="#E11E26" d="M46.073,35.233L46.073,35.233c-0.236,0-0.493-0.036-0.786-0.109c-1.531-0.384-2.542-1.623-3.431-2.718
		c-0.777-0.959-1.454-1.786-2.251-1.828c-0.065-0.003-0.133-0.006-0.194-0.006c-0.482,0-0.824,0.107-0.894,0.28
		c-0.034,0.089-0.266,0.935,2.377,3.418c1.841,1.73,4.529,4.031,6.631,4.031c1.054,0,1.882-0.608,2.519-1.857
		c0.919-1.794,1.904-3.945,2.224-6.289c0.319-2.322-0.009-4.634-1.024-7.277c-0.16-0.418-0.317-0.828-0.47-1.231
		c-1.965-5.176-3.385-8.917-8.108-10.688c-1.134-0.427-2.082-0.817-2.92-1.162c-1.697-0.699-2.818-1.161-3.691-1.161
		c-0.606,0-1.123,0.23-1.724,0.769c-1.281,1.147-1.069,3.634-0.898,5.631c0.077,0.922,0.148,1.792,0.079,2.469l-0.018,0.186
		c-0.228,2.118-0.295,3.242,0.698,3.703c0.056,0.025,0.103,0.037,0.144,0.037c0.052,0,0.5-0.048,1.013-1.738
		c0.351-1.153,0.574-2.56,0.732-3.66c0.25-1.765,1.312-2.028,1.925-2.028c0.903,0,2.055,0.545,3.525,1.665
		c1.204,0.917,2.348,2.566,3.302,4.77c0.903,2.074,1.585,4.543,1.92,6.945c0.14,1.006,0.308,1.943,0.452,2.77
		c0.41,2.288,0.677,3.801,0.02,4.592C46.953,35.069,46.566,35.233,46.073,35.233z"/>
	<path fill="#C72026" d="M27.561,34.695c-2.057-0.556-3.167,2.871-4.617,4.161c-1.445,1.292-2.001,3.851-2.782,5.074
		c-0.779,1.226-0.779,4.342,1.224,4.787c2.004,0.445,4.117,2.225,6.174,1.668c2.062-0.556,0.948-0.668,5.731-1.001
		c4.788-0.335,8.236-1.002,8.459-3.45c0.223-2.449-3.671-7.788-5.567-9.792c-1.889-2.003-3.764-2.56-3.439-0.891
		c0.328,1.669,4.443,5.464,3.998,7.129c-0.446,1.662-3.005,3.444-4.896,2.44c-1.891-1.001-9.069,0.78-6.676-4.672
		C25.312,39.826,29.623,35.251,27.561,34.695z"/>
	<path fill="#E11E26" d="M25.166,39.251c0.446-0.548,1.128-1.375,1.661-2.199c0.817-1.259,0.745-1.671,0.725-1.741
		c-0.004-0.012-0.016-0.046-0.135-0.078c-0.101-0.028-0.2-0.042-0.297-0.042c-0.855,0-1.616,1.135-2.35,2.231
		c-0.479,0.709-0.927,1.379-1.452,1.849c-0.842,0.751-1.38,2.044-1.848,3.187c-0.277,0.666-0.534,1.297-0.837,1.77
		c-0.401,0.632-0.567,2.015-0.164,2.989c0.221,0.529,0.567,0.851,1.038,0.955c0.774,0.171,1.546,0.521,2.291,0.858
		c0.986,0.444,2.006,0.904,2.94,0.904c0.241,0,0.461-0.028,0.68-0.086c0.531-0.144,0.837-0.254,1.105-0.352
		c0.795-0.287,1.157-0.419,4.734-0.668c1.857-0.13,4.196-0.35,5.796-0.903c1.812-0.628,2.093-1.465,2.143-2.042
		c0.196-2.142-3.473-7.308-5.411-9.361c-1.179-1.247-2.141-1.701-2.499-1.701c-0.004,0-0.011,0-0.013,0.001
		c-0.009,0.052-0.011,0.155,0.02,0.321c0.115,0.584,0.972,1.724,1.731,2.731c1.326,1.764,2.582,3.429,2.258,4.648
		c-0.448,1.675-2.429,3.145-4.236,3.145c-0.522,0-1.011-0.121-1.459-0.355c-0.43-0.228-1.395-0.289-2.325-0.348
		c-1.853-0.115-3.946-0.244-4.788-1.623c-0.513-0.842-0.452-1.959,0.187-3.418C24.716,39.801,24.81,39.684,25.166,39.251z"/>
	<path fill="#ECBE90" d="M33.841,32.666c1.558-0.213,6.902,8.224,8.446,9.714c1.549,1.489,3.14-0.486,3.154-1.519
		c0.022-1.524-6.503-5.613-8.689-9.096c-1.119-1.788-0.241-4.783,1.812-4.425c2.057,0.36,3.455,2.175,4.284,0.237
		c0.909-2.149-2.517-7.986-3.876-7.925c-1.355,0.06-2.586,2.906-3.829,4.11c-1.434,1.389-2.557,0.493-3.588-0.804
		c-0.662-0.828-0.162-10.387-0.452-11.677c-0.286-1.288-0.711-1.548-2.53-0.882c-1.817,0.665-0.405,9.349,0,11.463
		c0.408,2.115-1.988,1.893-1.988,1.893c-0.597,0.019-1.301-0.752-3.831-3.168c-2.431-2.323-3.599,3.836-4.428,7.315
		c-0.826,3.482,0.939,4.531,2.555,2.738c0,0,3.133-2.067,4.162-0.458c0.75,1.181-4.551,7.147-7.001,9.651
		c-2.447,2.503-0.952,3.306,0.284,3.721c1.355,0.457,4.835-7.321,6.717-8.895c1.155-0.969,2.861-2.306,3.529-1.371
		c1.099,1.535-0.227,3.866-0.486,5.568c-0.261,1.704,1.279,2.004,3.462,2.004c3.21,0,1.072-3.753,0.007-5.283
		C30.489,34.05,32.283,32.879,33.841,32.666z"/>
	<path fill="#F5845C" d="M48.225,29.601c-0.351,0.231-0.329,0.694,0.043,0.942c0.423,0.285,1.036,0.609,1.708,0.719
		c1.274,0.207,1.308-0.607,1.335-1.199c0.029-0.592-0.297-1.031-1.537-0.991C49.141,29.09,48.599,29.352,48.225,29.601z"/>
	<path fill="#F5845C" d="M48.139,33.759c-0.333,0.022-0.509,0.35-0.36,0.668c0.173,0.365,0.455,0.828,0.867,1.169
		c0.777,0.647,1.132,0.097,1.398-0.3c0.263-0.399,0.221-0.831-0.635-1.293C48.972,33.768,48.497,33.734,48.139,33.759z"/>
	<path fill="#F5845C" d="M46.82,35.918c-0.23-0.107-0.468,0.047-0.486,0.316c-0.018,0.307,0,0.72,0.146,1.099
		c0.284,0.72,0.725,0.481,1.051,0.313c0.322-0.169,0.45-0.474,0.05-1.1C47.374,36.228,47.068,36.032,46.82,35.918z"/>
	<path fill="#EFB173" d="M46.861,36.11c-0.182-0.083-0.367,0.037-0.381,0.248c-0.013,0.24,0,0.563,0.117,0.86
		c0.221,0.565,0.567,0.377,0.819,0.245c0.25-0.133,0.356-0.37,0.038-0.86C47.295,36.353,47.056,36.2,46.861,36.11z"/>
	<path fill="#F5845C" d="M48.454,23.978c-0.59,0.235-1.008,0.665-1.279,1.026c-0.248,0.338-0.072,0.766,0.365,0.872
		c0.495,0.122,1.179,0.221,1.85,0.095c1.272-0.24,1.022-1.016,0.849-1.584C50.064,23.821,49.609,23.521,48.454,23.978z"/>
	<path fill="#EFB173" d="M48.763,24.308c-0.448,0.178-0.768,0.504-0.975,0.782c-0.189,0.258-0.054,0.584,0.277,0.665
		c0.381,0.092,0.901,0.168,1.414,0.072c0.97-0.183,0.779-0.775,0.644-1.208C49.994,24.186,49.643,23.958,48.763,24.308z"/>
	<path fill="#F5845C" d="M46.57,18.81c-0.533,0.34-0.864,0.839-1.062,1.245c-0.185,0.378,0.07,0.767,0.518,0.789
		c0.511,0.028,1.202-0.003,1.837-0.251c1.204-0.47,0.817-1.187,0.54-1.712C48.126,18.356,47.622,18.146,46.57,18.81z"/>
	<path fill="#EFB173" d="M46.672,19.032c-0.41,0.259-0.662,0.638-0.813,0.949c-0.137,0.287,0.056,0.583,0.396,0.601
		c0.387,0.02,0.914-0.003,1.398-0.191c0.916-0.36,0.623-0.906,0.412-1.306C47.856,18.685,47.469,18.525,46.672,19.032z"/>
	<path fill="#F5845C" d="M43.948,14.554c-0.47,0.424-0.711,0.974-0.837,1.407c-0.117,0.403,0.2,0.742,0.644,0.69
		c0.509-0.06,1.182-0.206,1.767-0.559c1.105-0.666,0.603-1.308,0.243-1.779C45.404,13.843,44.871,13.722,43.948,14.554z"/>
	<path fill="#EFB173" d="M44.065,14.728c-0.371,0.339-0.565,0.773-0.664,1.119c-0.092,0.318,0.158,0.588,0.511,0.546
		c0.403-0.047,0.939-0.163,1.402-0.442c0.876-0.531,0.477-1.039,0.191-1.413C45.22,14.163,44.797,14.069,44.065,14.728z"/>
	<path fill="#F5845C" d="M39.689,11.973c-0.16,0.496-0.11,0.986-0.018,1.347c0.081,0.334,0.446,0.447,0.743,0.226
		c0.335-0.252,0.759-0.634,1.029-1.124c0.511-0.932-0.108-1.182-0.561-1.367C40.434,10.866,40.002,11,39.689,11.973z"/>
	<path fill="#F5845C" d="M35.732,10.163c-0.432,0.047-0.709,0.336-0.54,1.229c0.09,0.455,0.34,0.815,0.563,1.059
		c0.212,0.225,0.543,0.157,0.678-0.142c0.155-0.341,0.319-0.819,0.319-1.319C36.754,10.045,36.162,10.115,35.732,10.163z"/>
	<path fill="#F5845C" d="M15.525,13.7c-0.354,0.466-0.331,1.005,0.702,1.664c0.529,0.337,1.112,0.424,1.558,0.43
		c0.414,0.005,0.655-0.384,0.488-0.795c-0.191-0.466-0.506-1.07-0.995-1.533C16.355,12.588,15.878,13.236,15.525,13.7z"/>
	<path fill="#F5845C" d="M20.722,10.587c-0.461,0.092-0.734,0.423-0.457,1.344c0.139,0.47,0.448,0.823,0.714,1.056
		c0.245,0.215,0.599,0.109,0.716-0.218c0.133-0.372,0.266-0.891,0.216-1.416C21.816,10.357,21.186,10.493,20.722,10.587z"/>
	<path fill="#EFB173" d="M20.806,10.802c-0.34,0.069-0.54,0.312-0.338,0.989c0.104,0.347,0.329,0.607,0.524,0.778
		c0.185,0.159,0.444,0.081,0.531-0.161c0.097-0.274,0.194-0.656,0.155-1.042C21.609,10.633,21.145,10.733,20.806,10.802z"/>
	<path fill="#FFFFFF" d="M21.076,10.935c-0.16,0.033-0.254,0.149-0.16,0.469c0.052,0.163,0.158,0.286,0.252,0.368
		c0.083,0.074,0.207,0.036,0.248-0.077c0.045-0.13,0.09-0.311,0.074-0.493C21.458,10.855,21.24,10.902,21.076,10.935z"/>
	<path fill="#F5845C" d="M23.905,12.74c-0.212,0.224-0.311,0.504-0.353,0.724c-0.043,0.204,0.126,0.364,0.344,0.325
		c0.245-0.044,0.574-0.135,0.844-0.326c0.52-0.364,0.245-0.669,0.052-0.893C24.594,12.345,24.326,12.3,23.905,12.74z"/>
	<path fill="#EFB173" d="M23.988,12.846c-0.155,0.166-0.23,0.371-0.261,0.534c-0.031,0.151,0.092,0.269,0.254,0.24
		c0.18-0.033,0.421-0.1,0.619-0.241c0.385-0.268,0.182-0.493,0.04-0.657C24.497,12.556,24.297,12.522,23.988,12.846z"/>
	<path fill="#FFFFFF" d="M24.297,12.978c-0.079,0.082-0.117,0.187-0.133,0.269c-0.016,0.076,0.047,0.135,0.126,0.122
		c0.095-0.016,0.218-0.051,0.317-0.122c0.194-0.136,0.09-0.25,0.018-0.334C24.551,12.83,24.454,12.813,24.297,12.978z"/>
	<path fill="#F5845C" d="M12.634,17.942c-0.355,0.466-0.331,1.005,0.702,1.662c0.527,0.337,1.112,0.424,1.558,0.43
		c0.412,0.004,0.655-0.383,0.488-0.792c-0.189-0.467-0.506-1.071-0.993-1.535C13.463,16.829,12.986,17.475,12.634,17.942z"/>
	<path fill="#EFB173" d="M12.929,18.139c-0.277,0.365-0.259,0.787,0.549,1.301c0.414,0.263,0.873,0.332,1.22,0.337
		c0.324,0.005,0.513-0.3,0.383-0.621c-0.149-0.366-0.396-0.839-0.779-1.201C13.58,17.267,13.204,17.775,12.929,18.139z"/>
	<path fill="#FFFFFF" d="M13.427,18.064c-0.099,0.132-0.09,0.282,0.2,0.468c0.146,0.095,0.311,0.119,0.441,0.121
		c0.115,0,0.182-0.108,0.135-0.224c-0.056-0.131-0.142-0.302-0.281-0.432C13.663,17.75,13.526,17.933,13.427,18.064z"/>
	<path fill="#F5845C" d="M11.518,22.477c-1.17-0.512-1.398,0.258-1.571,0.816c-0.175,0.559,0.032,1.057,1.225,1.326
		c0.612,0.136,1.191,0.02,1.614-0.127c0.389-0.135,0.484-0.583,0.189-0.911C12.634,23.206,12.132,22.745,11.518,22.477z"/>
	<path fill="#EFB173" d="M11.473,22.739c-0.866-0.379-1.038,0.191-1.168,0.606c-0.126,0.414,0.025,0.783,0.914,0.983
		c0.452,0.101,0.882,0.016,1.193-0.094c0.288-0.1,0.36-0.432,0.139-0.676C12.301,23.281,11.93,22.938,11.473,22.739z"/>
	<path fill="#FFFFFF" d="M10.66,22.906c-0.043,0.147,0.009,0.278,0.326,0.348c0.16,0.037,0.311,0.006,0.421-0.033
		c0.106-0.036,0.128-0.153,0.052-0.24c-0.09-0.099-0.223-0.219-0.383-0.29C10.768,22.556,10.707,22.758,10.66,22.906z"/>
	<path fill="#F5845C" d="M8.598,28.373c-0.056,0.581,0.241,1.029,1.468,1.049c0.626,0.011,1.17-0.221,1.553-0.448
		c0.356-0.213,0.356-0.67,0.002-0.931c-0.408-0.301-0.99-0.648-1.65-0.789C8.724,26.99,8.657,27.79,8.598,28.373z"/>
	<path fill="#EFB173" d="M8.835,28.278c-0.045,0.466,0.198,0.824,1.179,0.842c0.502,0.007,0.937-0.178,1.245-0.36
		c0.286-0.17,0.286-0.536,0-0.746c-0.324-0.24-0.792-0.52-1.319-0.634C8.936,27.169,8.882,27.812,8.835,28.278z"/>
	<path fill="#FFFFFF" d="M9.251,27.921c-0.014,0.171,0.074,0.302,0.437,0.308c0.182,0.003,0.342-0.064,0.457-0.133
		c0.103-0.062,0.103-0.197,0-0.272c-0.122-0.089-0.293-0.192-0.488-0.232C9.292,27.514,9.273,27.75,9.251,27.921z"/>
	<path fill="#F5845C" d="M24.135,45.433c-0.324,0.271-0.729,0.68-0.972,1.191c-0.468,0.968,0.173,1.184,0.639,1.347
		c0.464,0.163,0.891,0.006,1.15-0.992c0.135-0.51,0.054-1.002-0.054-1.36C24.794,45.285,24.423,45.194,24.135,45.433z"/>
	<path fill="#F5845C" d="M27.259,46.165c-0.263,0.428-0.57,1.039-0.655,1.706c-0.164,1.264,0.637,1.271,1.222,1.281
		c0.585,0.013,1.006-0.324,0.932-1.546c-0.041-0.625-0.311-1.149-0.57-1.513C27.952,45.756,27.493,45.791,27.259,46.165z"/>
	<path fill="#F5845C" d="M31.011,46.14c-0.207,0.363-0.437,0.875-0.461,1.419c-0.05,1.035,0.689,0.995,1.222,0.971
		c0.538-0.024,0.896-0.32,0.727-1.307c-0.086-0.504-0.376-0.913-0.644-1.193C31.61,45.769,31.196,45.823,31.011,46.14z"/>
	<path fill="#EFB173" d="M31.144,46.386c-0.16,0.281-0.335,0.674-0.353,1.094c-0.043,0.797,0.522,0.764,0.937,0.747
		c0.414-0.019,0.691-0.245,0.56-1.006c-0.068-0.387-0.29-0.703-0.493-0.918C31.603,46.102,31.286,46.144,31.144,46.386z"/>
	<path fill="#FFFFFF" d="M30.962,47.337c-0.056,0.098-0.119,0.234-0.126,0.38c-0.013,0.278,0.185,0.268,0.326,0.261
		c0.149-0.006,0.243-0.086,0.198-0.351c-0.025-0.135-0.101-0.244-0.173-0.321C31.12,47.237,31.009,47.251,30.962,47.337z"/>
	<path fill="#F5845C" d="M36.013,45.305c-0.324-0.168-0.666,0.043-0.695,0.431c-0.036,0.444-0.025,1.044,0.175,1.603
		c0.383,1.057,1.013,0.737,1.477,0.508c0.461-0.228,0.657-0.662,0.103-1.588C36.79,45.785,36.364,45.484,36.013,45.305z"/>
	<path fill="#EFB173" d="M36.063,45.569c-0.257-0.133-0.531,0.035-0.556,0.344c-0.025,0.352-0.018,0.83,0.144,1.274
		c0.304,0.842,0.806,0.585,1.175,0.404c0.369-0.181,0.522-0.527,0.079-1.264C36.682,45.951,36.34,45.713,36.063,45.569z"/>
	<path fill="#F5845C" d="M38.208,43.555c-0.335-0.02-0.549,0.288-0.43,0.628c0.135,0.39,0.369,0.894,0.749,1.292
		c0.72,0.754,1.135,0.246,1.443-0.121c0.306-0.366,0.308-0.807-0.506-1.386C39.045,43.672,38.573,43.579,38.208,43.555z"/>
	<path fill="#F5845C" d="M22.332,43.32c-0.329,0.176-0.759,0.455-1.067,0.853c-0.588,0.755-0.068,1.063,0.304,1.292
		c0.374,0.228,0.774,0.17,1.186-0.648c0.212-0.417,0.234-0.86,0.209-1.192C22.933,43.316,22.629,43.166,22.332,43.32z"/>
	<path fill="#F5845C" d="M10.352,32.489c-1.215,0.352-0.903,1.086-0.677,1.624c0.218,0.538,0.695,0.788,1.778,0.233
		c0.554-0.285,0.923-0.74,1.15-1.122c0.214-0.35,0-0.753-0.435-0.816C11.673,32.335,10.996,32.304,10.352,32.489z"/>
	<path fill="#EFB173" d="M10.363,32.763c-0.858,0.247-0.637,0.761-0.482,1.138c0.158,0.377,0.491,0.553,1.252,0.162
		c0.387-0.197,0.646-0.518,0.806-0.784c0.146-0.247,0-0.528-0.308-0.574C11.286,32.656,10.811,32.632,10.363,32.763z"/>
	<path fill="#FFFFFF" d="M10.077,32.989c-0.36,0.103-0.266,0.319-0.198,0.478c0.061,0.16,0.203,0.234,0.525,0.07
		c0.162-0.083,0.272-0.219,0.342-0.331c0.061-0.105,0-0.223-0.133-0.242C10.469,32.944,10.269,32.934,10.077,32.989z"/>
	<path fill="#F5845C" d="M14.521,36.013c-0.477,0.178-1.094,0.482-1.578,0.96c-0.914,0.912-0.272,1.413,0.189,1.782
		c0.459,0.369,1.006,0.36,1.699-0.664c0.353-0.523,0.459-1.113,0.477-1.562C15.326,36.111,14.939,35.857,14.521,36.013z"/>
	<path fill="#EFB173" d="M14.546,36.271c-0.471,0.243-0.963,0.564-1.373,0.971c-0.164,0.166-0.272,0.301-0.34,0.404
		c-0.088,0.133-0.07,0.308,0.043,0.422c0.149,0.154,0.372,0.334,0.504,0.439l0.018,0.016l0.005,0.003
		c0.117,0.093,0.284,0.096,0.407,0.007c0.162-0.119,0.423-0.368,0.772-0.884c0.216-0.317,0.356-0.659,0.45-0.99
		C15.11,36.376,14.806,36.135,14.546,36.271z"/>
	<path fill="#FFFFFF" d="M13.62,37.304c-0.169,0.087-0.347,0.202-0.495,0.349c-0.061,0.06-0.097,0.109-0.121,0.146
		c-0.032,0.048-0.025,0.11,0.016,0.153c0.052,0.054,0.131,0.119,0.18,0.158l0.009,0.006l0,0c0.043,0.035,0.103,0.036,0.146,0.003
		c0.061-0.043,0.153-0.133,0.277-0.319c0.081-0.115,0.133-0.237,0.164-0.358C13.825,37.34,13.717,37.254,13.62,37.304z"/>
	<path fill="#EFB173" d="M15.77,13.768c-0.286,0.377-0.266,0.814,0.57,1.348c0.428,0.272,0.9,0.342,1.263,0.347
		c0.335,0.004,0.529-0.311,0.396-0.643c-0.153-0.378-0.412-0.868-0.806-1.243C16.441,12.866,16.056,13.389,15.77,13.768z"/>
	<path fill="#FFFFFF" d="M16.319,13.724c-0.103,0.136-0.095,0.293,0.205,0.484c0.155,0.098,0.324,0.124,0.455,0.125
		c0.121,0.002,0.189-0.111,0.14-0.232c-0.054-0.135-0.146-0.31-0.29-0.444C16.56,13.401,16.423,13.588,16.319,13.724z"/>
	<path fill="#EFB173" d="M35.844,10.417c-0.313,0.034-0.513,0.241-0.39,0.887c0.065,0.328,0.245,0.588,0.408,0.764
		c0.151,0.162,0.389,0.112,0.486-0.102c0.115-0.245,0.234-0.592,0.234-0.952C36.583,10.331,36.155,10.382,35.844,10.417z"/>
	<path fill="#FFFFFF" d="M36.153,10.568c-0.151,0.016-0.245,0.116-0.187,0.424c0.029,0.158,0.115,0.281,0.194,0.367
		c0.072,0.077,0.189,0.053,0.232-0.05c0.054-0.119,0.112-0.284,0.112-0.456C36.504,10.526,36.299,10.551,36.153,10.568z"/>
	<path fill="#EFB173" d="M39.872,12.062c-0.122,0.375-0.081,0.747-0.014,1.021c0.061,0.252,0.338,0.337,0.561,0.171
		c0.257-0.191,0.576-0.481,0.779-0.851c0.387-0.706-0.081-0.894-0.421-1.035C40.434,11.225,40.108,11.327,39.872,12.062z"/>
	<path fill="#EFB173" d="M48.729,29.92c-0.266,0.179-0.25,0.531,0.034,0.721c0.324,0.216,0.792,0.465,1.306,0.548
		c0.977,0.159,0.999-0.463,1.024-0.916c0.023-0.452-0.23-0.787-1.179-0.76C49.431,29.53,49.017,29.73,48.729,29.92z"/>
	<path fill="#EFB173" d="M48.403,34.001c-0.245,0.018-0.376,0.258-0.263,0.495c0.126,0.268,0.333,0.611,0.635,0.862
		c0.576,0.478,0.839,0.071,1.033-0.223c0.196-0.294,0.164-0.612-0.466-0.954C49.015,34.007,48.668,33.983,48.403,34.001z"/>
	<path fill="#EFB173" d="M24.148,45.769c-0.236,0.196-0.529,0.492-0.707,0.861c-0.335,0.7,0.128,0.857,0.464,0.975
		c0.335,0.118,0.644,0.003,0.833-0.718c0.099-0.369,0.041-0.725-0.041-0.983C24.623,45.662,24.353,45.596,24.148,45.769z"/>
	<path fill="#EFB173" d="M27.356,46.426c-0.214,0.347-0.457,0.839-0.529,1.377c-0.133,1.021,0.515,1.025,0.986,1.034
		c0.473,0.01,0.813-0.262,0.752-1.249c-0.029-0.503-0.25-0.926-0.455-1.221C27.912,46.095,27.543,46.124,27.356,46.426z"/>
	<path fill="#FFFFFF" d="M27.241,47.589c-0.088,0.139-0.185,0.339-0.214,0.556c-0.054,0.412,0.209,0.413,0.398,0.417
		c0.189,0.003,0.329-0.107,0.304-0.505c-0.014-0.201-0.103-0.374-0.187-0.492C27.468,47.456,27.318,47.467,27.241,47.589z"/>
	<path fill="#EFB173" d="M22.286,43.599c-0.248,0.13-0.563,0.337-0.79,0.63c-0.43,0.555-0.05,0.781,0.223,0.95
		c0.277,0.17,0.569,0.127,0.878-0.477c0.153-0.307,0.169-0.632,0.149-0.878C22.726,43.597,22.5,43.485,22.286,43.599z"/>
	<path fill="#EFB173" d="M38.393,43.976c-0.248-0.015-0.403,0.21-0.313,0.46c0.097,0.285,0.27,0.655,0.545,0.946
		c0.531,0.553,0.833,0.18,1.058-0.088c0.227-0.269,0.227-0.593-0.371-1.016C39.005,44.063,38.658,43.993,38.393,43.976z"/>
	<path fill="#FFFFFF" d="M38.721,44.71c-0.115-0.007-0.182,0.097-0.144,0.212c0.045,0.132,0.126,0.301,0.252,0.436
		c0.243,0.253,0.383,0.082,0.484-0.042c0.103-0.121,0.108-0.271-0.169-0.466C39.003,44.749,38.843,44.717,38.721,44.71z"/>
	<path fill="#FFFFFF" d="M36.252,46.779c-0.097-0.057-0.207,0.001-0.223,0.123c-0.018,0.137-0.027,0.325,0.027,0.502
		c0.101,0.335,0.304,0.248,0.45,0.183c0.151-0.063,0.216-0.195,0.061-0.493C36.486,46.941,36.36,46.841,36.252,46.779z"/>
	<path fill="#FFFFFF" d="M21.586,44.401c-0.175,0.226-0.02,0.319,0.09,0.386c0.11,0.069,0.232,0.051,0.356-0.194
		c0.061-0.124,0.068-0.257,0.061-0.356c-0.007-0.092-0.101-0.137-0.187-0.09C21.807,44.201,21.679,44.283,21.586,44.401z"/>
	<path fill="#FFFFFF" d="M23.669,46.42c-0.097,0.082-0.221,0.206-0.293,0.36c-0.142,0.293,0.052,0.358,0.194,0.407
		c0.139,0.05,0.268,0.001,0.347-0.3c0.041-0.154,0.018-0.303-0.018-0.412C23.869,46.375,23.754,46.346,23.669,46.42z"/>
	<path fill="#FFFFFF" d="M40.695,11.98c-0.036,0.118-0.025,0.234-0.002,0.32c0.018,0.08,0.106,0.106,0.176,0.054
		c0.081-0.059,0.18-0.152,0.243-0.268c0.122-0.222-0.025-0.28-0.133-0.325C40.873,11.717,40.77,11.749,40.695,11.98z"/>
	<path fill="#FFFFFF" d="M45.269,15.165c-0.074,0.097-0.104,0.212-0.113,0.298c-0.007,0.082,0.063,0.136,0.149,0.109
		c0.097-0.028,0.223-0.081,0.319-0.17c0.189-0.167,0.068-0.271-0.016-0.351C45.524,14.975,45.416,14.971,45.269,15.165z"/>
	<path fill="#FFFFFF" d="M47.7,19.641c-0.099,0.078-0.151,0.182-0.18,0.264c-0.029,0.078,0.029,0.148,0.117,0.142
		c0.101-0.006,0.234-0.026,0.349-0.088c0.225-0.117,0.135-0.248,0.072-0.343C47.993,19.519,47.89,19.489,47.7,19.641z"/>
	<path fill="#FFFFFF" d="M49.335,25.013c-0.146,0.057-0.252,0.164-0.319,0.254c-0.065,0.084-0.02,0.192,0.09,0.218
		c0.121,0.034,0.293,0.059,0.461,0.029c0.32-0.056,0.259-0.253,0.214-0.395C49.737,24.978,49.625,24.9,49.335,25.013z"/>
	<path fill="#FFFFFF" d="M49.821,30.528c-0.083,0.063-0.072,0.179,0.027,0.235c0.113,0.063,0.268,0.135,0.439,0.151
		c0.324,0.032,0.315-0.173,0.315-0.322c-0.002-0.148-0.092-0.253-0.401-0.222C50.044,30.385,49.911,30.459,49.821,30.528z"/>
	<path fill="#FFFFFF" d="M48.875,34.766c-0.103,0.013-0.151,0.12-0.095,0.217c0.065,0.11,0.167,0.251,0.304,0.35
		c0.263,0.188,0.36,0.008,0.434-0.123c0.072-0.129,0.047-0.264-0.239-0.393C49.137,34.754,48.988,34.753,48.875,34.766z"/>
	<path fill="#FFFFFF" d="M46.703,37.015c0.014,0.09,0.043,0.212,0.103,0.316c0.122,0.198,0.236,0.106,0.322,0.04
		c0.083-0.065,0.103-0.161-0.047-0.326c-0.077-0.083-0.176-0.127-0.252-0.148C46.755,36.877,46.694,36.934,46.703,37.015z"/>
</g>
</svg>
