<?xml version="1.0" encoding="utf-8"?>
<!-- Generator: Adobe Illustrator 17.0.0, SVG Export Plug-In . SVG Version: 6.00 Build 0)  -->
<!DOCTYPE svg PUBLIC "-//W3C//DTD SVG 1.1//EN" "http://www.w3.org/Graphics/SVG/1.1/DTD/svg11.dtd">
<svg version="1.1" id="Layer_1" xmlns="http://www.w3.org/2000/svg" xmlns:xlink="http://www.w3.org/1999/xlink" x="0px" y="0px"
	 width="37px" height="37.625px" viewBox="0 0 37 37.625" enable-background="new 0 0 37 37.625" xml:space="preserve">
<g>
	<path fill="#FFFFFF" d="M14.555,9.142L6.373,5.23c0,0-4.386,5.166-5.071,9.68l16.424,7.853"/>
	<path fill="#FFFFFF" d="M32.482,22.14c4.601-11.452-3.408-26.162-16.754-17.979c-4.705,2.885-6.071,7.083-7.566,10.667
		C5.415,21.41,5.648,27.557,8.087,31.236C11.855,36.919,26.282,37.572,32.482,22.14z"/>
	<path fill="#C1C989" d="M11.404,7.635c0,0,2.649-3.679,7.134-5.015l1.751,9.264L11.404,7.635z"/>
	<path fill="#C1C989" d="M6.693,17.488c0,0-1.838,4.844-0.062,9.174l8.947-4.925L6.693,17.488z"/>
</g>
</svg>
