<?xml version="1.0" encoding="utf-8"?>
<!-- Generator: Adobe Illustrator 17.0.0, SVG Export Plug-In . SVG Version: 6.00 Build 0)  -->
<!DOCTYPE svg PUBLIC "-//W3C//DTD SVG 1.1//EN" "http://www.w3.org/Graphics/SVG/1.1/DTD/svg11.dtd">
<svg version="1.1" id="Layer_1" xmlns="http://www.w3.org/2000/svg" xmlns:xlink="http://www.w3.org/1999/xlink" x="0px" y="0px"
	 width="87.375px" height="87px" viewBox="0 0 87.375 87" enable-background="new 0 0 87.375 87" xml:space="preserve">
<g>
	<path fill="#ED5A23" d="M5.335,82.908c0,0,2.334,2.379,6.289,0.86c3.944-1.524,7.766-4.475,10.127-4.914
		c2.373-0.443,7.548,0.873,12.977-5.828c5.436-6.71,7.739-15.331,10.154-19.401c2.413-4.065,8.214-15.322,7.327-20.531
		c-0.882-5.207-5.477-15.653-12.743-13.848c-7.257,1.796-10.163,7.581-11.923,9.929C25.79,31.515,17.106,46.52,15.346,48.861
		C13.579,51.204,2.438,74.845,2.414,77.048C2.387,79.25,2.675,81.611,5.335,82.908z"/>
	<path fill="#D04527" d="M6.229,81.069l0.315,0.171l0.216,0.207c0.155,0.151,1.589,1.407,4.128,0.419
		c0.349-0.13,0.691-0.32,1.033-0.475c-1.195-0.997-2.397-2.312-3.016-3.944c-1.474-3.869,2.222-6.845,5.425-11.214
		c3.206-4.371,21.225-33.83,24.106-37.783c2.265-3.118,7.048-2.753,8.948-2.467c-0.979-1.655-2.172-3.136-3.539-4.029
		c-1.265-0.828-2.539-1.065-3.881-0.736c-5.459,1.355-8.126,5.287-9.895,7.89c-0.326,0.493-0.626,0.925-0.896,1.288
		c-0.817,1.092-3.559,5.645-5.981,9.673c-2.71,4.502-5.272,8.765-6.22,10.022C15.456,52.103,4.984,74.234,4.448,77.152
		C4.43,79.428,4.881,80.42,6.229,81.069z"/>
	<path fill="#F7A220" d="M13.617,80.6c0.797-0.417,1.585-0.855,2.354-1.295c2.053-1.155,3.827-2.165,5.411-2.453
		c0.592-0.115,1.245-0.144,1.927-0.162c2.542-0.099,6.017-0.232,9.839-4.95c3.399-4.198,5.567-9.315,7.304-13.432
		c0.955-2.26,1.787-4.221,2.686-5.727c0.932-1.576,2.053-3.671,3.122-5.916c-3.937,6.139-11.059,17.085-13.042,19.048
		c-2.766,2.76-3.948,6.102-6.532,6.636c-2.591,0.527-5.15-1.022-6.755,0.189c-1.594,1.209-6.636,6.024-6.636,6.024L13.617,80.6z"/>
	<path fill="#F7A220" d="M47.393,30.399c0,0,2.665,5.758-0.585,12.369c0,0-2.816,1.555-2.447-1.101
		c0.371-2.656,0.022-11.073-1.099-11.91C42.137,28.913,45.664,27.859,47.393,30.399z"/>
	<g>
		<path opacity="0.24" fill="#764F38" d="M85.174,22.891c-1.197-0.223-3.606-0.576-6.494-0.506c5.126-1.992,8.696-4.871,8.696-4.871
			s-5.058,0.027-10.591,2.01c-0.693,0.254-1.362,0.52-1.997,0.797c-1.213,0.524-2.267,1.081-3.228,1.623
			c-1.078-0.315-2.222-0.606-3.451-0.828c-0.54-0.095-1.051-0.146-1.571-0.216c0.831-0.723,1.693-1.515,2.537-2.46
			c1.429-1.573,2.568-3.199,3.431-4.587c1.317-0.988,2.084-1.722,2.084-1.722l0,0l0,0c0,0-0.261,0.02-0.686,0.081
			c-0.043,0.007-0.095,0.014-0.14,0.02c-0.097,0.011-0.236,0.041-0.344,0.059c0.662-1.211,1.024-2.026,1.024-2.026
			s-1.533,0.813-3.545,2.373c-0.099,0.072-0.207,0.171-0.304,0.248c-0.588,0.153-1.206,0.335-1.859,0.545
			c0.171-0.399,0.331-0.792,0.473-1.166c3.113-3.019,4.898-5.834,4.898-5.834s-1.492,0.538-3.602,1.623
			c0.047-0.176,0.074-0.295,0.074-0.295S70.362,7.934,70,8.273c-0.023,0.02-0.063,0.063-0.095,0.095
			c-1.558,0.837-3.368,1.954-5.173,3.385c-0.567,0.464-1.112,0.934-1.632,1.396c-2.998,2.739-4.907,5.468-5.461,6.292l-0.272,0.068
			c0.757-0.858,1.544-1.794,2.312-2.895c2.991-4.345,4.238-8.817,4.238-8.817l0,0l0,0c0,0-1.414,1.002-3.203,2.816
			c-0.684,0.686-1.414,1.495-2.143,2.402c0.786-2.681,0.995-4.705,0.995-4.705s-0.173,0.182-0.473,0.522
			c-0.196,0.221-0.459,0.538-0.745,0.894c0.984-3.361,1.179-5.979,1.179-5.979s-1.191,1.265-2.591,3.39
			c-0.653,0.997-1.351,2.202-2.001,3.536c0.61-4.43,0.119-8.052,0.119-8.052s-0.139,0.241-0.371,0.675
			c-0.698,1.31-2.188,4.414-2.956,8.293c-0.394,1.945-0.542,3.807-0.583,5.369c-0.05,1.956,0.072,3.419,0.14,4.05l-6.179,1.522
			l-0.752-0.065l-0.02,0.257l-0.511,0.126c0.653-0.995,2.602-4.135,3.779-8.317c1.434-5.076,1.166-9.713,1.166-9.713l0,0
			c0,0-1.011,1.409-2.121,3.701c-0.419,0.867-0.844,1.868-1.249,2.962c-0.117-2.787-0.574-4.768-0.574-4.768
			s-0.115,0.225-0.279,0.641c-0.52,1.243-1.598,4.176-1.967,7.755c-0.117,1.188-0.155,2.343-0.133,3.394
			c0.045,1.995,0.277,3.622,0.441,4.574l-7.883,1.94l0.365,1.49l5.681-1.402c0.083,0.097,0.176,0.2,0.313,0.349
			c0.486,0.551,1.335,1.447,2.467,2.465c1.137,1.011,2.557,2.143,4.209,3.174c1.657,1.029,3.295,1.807,4.707,2.379
			c2.35,0.954,4.05,1.33,4.05,1.33l0,0l0,0c0,0-1.279-1.578-3.435-3.444c0.236,0.059,0.473,0.112,0.705,0.162
			c0.232,0.302,0.421,0.603,0.673,0.905c1.234,1.508,2.53,2.778,3.685,3.773c1.911,1.661,3.397,2.568,3.397,2.568l0,0l0,0
			c0,0-0.696-1.909-2.139-4.369c0.279,0.178,0.561,0.356,0.824,0.511c2.044,1.193,3.565,1.767,3.565,1.767s-2.109-3.584-5.817-6.708
			c-0.925-0.777-1.859-1.445-2.744-2.019c0.286,0.158,0.515,0.322,0.81,0.475c1.916,0.957,3.71,1.56,5.252,2.004
			c0.574,0.711,1.159,1.434,1.862,2.15c1.823,1.853,3.732,3.266,5.186,4.218c1.456,0.954,2.458,1.445,2.458,1.445l0,0l0,0
			c0,0-1.085-2.3-3.167-5.022c0.131,0.086,0.27,0.185,0.403,0.263c1.78,1.076,3.493,1.877,4.858,2.444
			c1.821,0.754,3.043,1.092,3.043,1.092s-2.96-4.104-7.788-7.462c-0.59-0.41-1.166-0.759-1.749-1.11
			c1.427,0.088,2.474,0.072,2.92,0.061c0.47,0.484,0.921,0.963,1.51,1.501c0.844,0.761,1.803,1.544,2.856,2.289
			c4.248,2.989,8.543,4.194,8.543,4.194s-0.428-0.59-1.198-1.479c2.427,0.804,4.135,1.108,4.135,1.108s-3.352-3.784-8.493-6.647
			c-3.336-1.855-6.582-2.856-8.464-3.331c-0.022-0.013-0.045-0.016-0.061-0.023l0.225,0.018l0.065-0.783
			c3.867,0.761,6.915,0.61,6.915,0.61s-0.281-0.191-0.698-0.45c0.65-0.02,1.303-0.038,1.995-0.106c5.08-0.491,9.06-2.343,9.06-2.343
			l0,0l0,0c0,0-0.254-0.063-0.682-0.146C85.266,22.907,85.214,22.905,85.174,22.891z M53.219,19.778
			c-0.07,0.275-0.155,0.552-0.218,0.804l-0.524,0.13C52.674,20.481,52.948,20.139,53.219,19.778z M52.154,19.796
			c-0.068,0.441-0.108,0.781-0.137,1.031l-0.45,0.11C51.715,20.672,51.902,20.301,52.154,19.796z M49.829,22.943L49.829,22.943
			h-0.002H49.829z M43.566,22.77c0,0.045,0,0.103,0,0.137l-0.065,0.016C43.528,22.873,43.539,22.829,43.566,22.77z M50.574,27.63
			c-2.33-0.907-4.561-1.378-6.172-1.625c-1.319-0.506-2.364-0.824-2.973-0.988l3.793-0.939l4.833,0.428
			c0.047,0.115,0.099,0.245,0.18,0.421c0.284,0.687,0.792,1.806,1.542,3.133c0.023,0.036,0.045,0.074,0.067,0.108
			C51.429,27.983,51.015,27.801,50.574,27.63z M51.123,22.626l1.497-0.369c-0.032,0.146-0.059,0.306-0.083,0.432
			C52.023,22.66,51.526,22.631,51.123,22.626z M52.933,26.437c-0.164-0.139-0.295-0.227-0.446-0.356
			c0.225,0.155,0.385,0.299,0.621,0.457C53.05,26.509,52.985,26.462,52.933,26.437z M62.79,18.725
			c-0.187,0.45-0.394,0.914-0.549,1.333c-0.074,0.189-0.121,0.354-0.187,0.538c-1.186-0.002-2.251,0.038-3.034,0.101
			c-0.02,0-0.045,0-0.061-0.002l0.218-0.054l-0.257-1.035C59.818,19.468,61.203,19.182,62.79,18.725z M61.061,23.931l-1.684-0.148
			c-1.985-0.52-3.838-0.813-5.423-0.968c0.367-0.304,0.826-0.709,1.38-1.227l2.28-0.561c0.374,0.198,1.173,0.599,2.262,1.065
			c0.059,0.031,0.092,0.056,0.153,0.088c0.365,0.205,0.878,0.426,1.319,0.642C61.216,23.292,61.124,23.684,61.061,23.931z
			 M61.808,23.995l-0.459-0.038c0.194-0.173,0.47-0.443,0.781-0.749c0.02,0.009,0.036,0.013,0.063,0.027
			C62.04,23.533,61.905,23.812,61.808,23.995z M62.281,24.04c0.191-0.11,0.464-0.295,0.698-0.45c0.574,0.241,1.234,0.45,1.862,0.673
			L62.281,24.04z M68.845,27.738c0.045,0.05,0.07,0.086,0.119,0.133c0.027,0.034,0.086,0.079,0.11,0.112
			c-0.804-0.506-2.226-1.324-4.043-2.168l2.012,0.178C67.332,26.306,67.956,26.941,68.845,27.738z"/>
		<path fill="#538643" d="M60.395,21.699h-7.683c0.871-0.806,3.509-3.392,5.652-7.17c2.607-4.585,3.455-9.148,3.455-9.148
			l0.004-0.005H61.82l0,0c0,0-1.315,1.126-2.938,3.086c-0.619,0.743-1.272,1.612-1.918,2.577c0.543-2.735,0.576-4.767,0.576-4.767
			s-0.162,0.194-0.421,0.554c-0.81,1.085-2.557,3.678-3.764,7.066c-0.408,1.126-0.711,2.237-0.943,3.266
			c-0.437,1.943-0.606,3.577-0.675,4.54H43.62v1.535h5.857c0.056,0.112,0.117,0.234,0.212,0.405c0.342,0.662,0.952,1.733,1.81,2.989
			c0.867,1.254,1.974,2.695,3.331,4.09c1.353,1.389,2.771,2.539,4.005,3.435c2.051,1.486,3.611,2.26,3.611,2.26l0,0l0,0
			c0,0-0.862-1.839-2.515-4.167c0.29,0.153,0.583,0.304,0.867,0.437c2.143,1.008,3.707,1.447,3.707,1.447l0,0l0,0
			c0,0-2.418-3.388-6.381-6.172c-2.051-1.438-4.104-2.424-5.61-3.052c-1.157-0.81-2.105-1.373-2.647-1.673h7.674
			c0.061,0.092,0.11,0.171,0.196,0.304c0.277,0.414,0.675,1.004,1.202,1.691c0.52,0.696,1.175,1.495,1.947,2.328
			c0.756,0.835,1.641,1.711,2.629,2.553c1.97,1.682,3.996,2.924,5.535,3.743c1.531,0.824,2.568,1.225,2.568,1.225l0,0l0,0
			c0,0-1.276-2.195-3.595-4.72c0.144,0.07,0.284,0.155,0.425,0.223c1.871,0.914,3.642,1.567,5.051,2.01
			c1.884,0.59,3.127,0.819,3.127,0.819l0,0l0,0c0,0-3.302-3.824-8.41-6.748c-3.275-1.875-6.481-2.917-8.365-3.426h6.679
			c0.317,0.286,0.999,0.862,1.947,1.58c0.047,0.043,0.086,0.077,0.131,0.119c0.639,0.59,1.423,1.254,2.323,1.94
			c0.9,0.682,1.931,1.38,3.048,2.033c4.484,2.604,8.869,3.428,8.869,3.428s-0.482-0.551-1.315-1.366
			c2.476,0.588,4.214,0.745,4.214,0.745l-0.007-0.007h0.007c0,0-3.669-3.476-9.044-5.873c-3.484-1.56-6.803-2.273-8.723-2.584
			c-0.025-0.007-0.038-0.011-0.061-0.016h0.225v-1.065c1.607,0.139,4.718,0.259,8.191-0.387c5.011-0.937,8.813-3.124,8.813-3.127
			l0,0l0,0l0,0c0,0-0.261-0.038-0.689-0.083c-0.047-0.007-0.092-0.007-0.142-0.016c-1.209-0.117-3.638-0.257-6.505,0.063
			c4.916-2.429,8.23-5.612,8.23-5.612s-5.029,0.468-10.373,2.933c-0.669,0.308-1.317,0.628-1.918,0.963
			c-3.575,1.94-6.08,4.124-6.816,4.795h-5.317c1.202-0.873,3.89-3.012,6.278-6.163c3.187-4.205,4.633-8.619,4.633-8.619
			s-1.459,0.939-3.329,2.67c-0.876,0.81-1.837,1.814-2.784,2.951c1.646-4.151,2.037-7.784,2.037-7.784s-0.198,0.196-0.524,0.565
			c-0.993,1.103-3.174,3.759-4.856,7.343c-0.839,1.796-1.432,3.565-1.848,5.074C60.705,19.625,60.48,21.07,60.395,21.699z
			 M61.142,21.699h-0.461c0.209-0.221,0.488-0.531,0.842-0.97C61.358,21.14,61.225,21.464,61.142,21.699z M58.815,23.551
			c-0.252-0.126-0.477-0.228-0.664-0.317h0.365C58.61,23.328,58.689,23.42,58.815,23.551z M52.474,21.566
			c-0.009,0.045-0.025,0.099-0.032,0.133h-0.068C52.413,21.656,52.438,21.613,52.474,21.566z"/>
		<path fill="#90AF3D" d="M50.398,19.641l-7.273,2.483c0.567-1.042,2.226-4.344,3.037-8.612c0.986-5.184,0.315-9.774,0.315-9.774
			V3.731l0,0l0,0c0,0-0.889,1.49-1.792,3.872c-0.34,0.9-0.682,1.938-0.979,3.061c-0.369-2.766-0.997-4.7-0.997-4.7
			s-0.088,0.234-0.225,0.662c-0.399,1.285-1.22,4.304-1.272,7.901c-0.018,1.198,0.052,2.346,0.167,3.399
			c0.218,1.979,0.583,3.577,0.833,4.509l-7.68,2.627l0.488,1.448l5.547-1.889c0.081,0.086,0.184,0.185,0.328,0.32
			c0.543,0.509,1.459,1.326,2.681,2.235c1.22,0.912,2.737,1.916,4.468,2.793c1.74,0.883,3.446,1.517,4.905,1.961
			c2.42,0.745,4.144,0.97,4.144,0.97l0,0l0,0c0,0-1.407-1.459-3.723-3.127c0.324,0.047,0.65,0.099,0.959,0.133
			c2.352,0.261,3.973,0.171,3.973,0.171l0,0l0,0c0,0-3.376-2.429-8.032-3.777c-2.397-0.7-4.66-0.972-6.292-1.078
			c-1.364-0.39-2.435-0.617-3.052-0.725l7.268-2.487c0.09,0.07,0.16,0.135,0.286,0.23c0.392,0.304,0.959,0.729,1.682,1.213
			c0.722,0.486,1.598,1.031,2.586,1.578c0.997,0.538,2.109,1.083,3.316,1.56c2.415,0.955,4.736,1.477,6.451,1.756
			c1.717,0.281,2.827,0.326,2.827,0.326l0,0l0,0c0,0-1.916-1.663-4.93-3.307c0.155,0.025,0.324,0.056,0.477,0.077
			c2.066,0.259,3.951,0.304,5.432,0.266c1.972-0.045,3.221-0.232,3.221-0.232l0,0l0,0c0,0-4.36-2.555-10.141-3.671
			c-3.707-0.718-7.072-0.664-9.024-0.536l6.323-2.161c0.392,0.169,1.224,0.495,2.352,0.867c0.054,0.025,0.099,0.047,0.16,0.077
			c0.795,0.342,1.754,0.723,2.832,1.078c1.072,0.353,2.267,0.684,3.541,0.941c5.083,1.013,9.504,0.378,9.504,0.378
			s-0.632-0.369-1.695-0.867c2.541-0.243,4.229-0.662,4.229-0.662l0,0l0,0c0,0-4.594-2.107-10.451-2.638
			c-3.806-0.349-7.183,0.05-9.096,0.374c-0.025,0.002-0.04,0.002-0.056,0.002l0.212-0.072l-0.351-1.002
			c1.569-0.394,4.549-1.281,7.622-3.014c4.448-2.508,7.336-5.81,7.336-5.81l0,0l0,0l0,0c0,0-0.254,0.045-0.677,0.146
			c-0.045,0.007-0.092,0.016-0.137,0.027c-1.186,0.284-3.532,0.934-6.139,2.168c3.874-3.894,5.976-7.975,5.976-7.975
			s-4.614,2.071-8.869,6.123c-0.534,0.515-1.045,1.022-1.506,1.535c-2.753,2.994-4.419,5.868-4.898,6.742l-5.029,1.72
			c0.853-1.218,2.701-4.11,3.948-7.865c1.655-5.011,1.598-9.652,1.598-9.652s-1.08,1.357-2.287,3.606
			c-0.574,1.049-1.15,2.305-1.684,3.694c0.214-4.466-0.585-8.029-0.585-8.029s-0.124,0.252-0.315,0.707
			c-0.583,1.364-1.787,4.583-2.226,8.52c-0.216,1.967-0.202,3.836-0.108,5.398C50.024,17.575,50.281,19.02,50.398,19.641z
			 M51.109,19.4l-0.441,0.148c0.121-0.279,0.288-0.662,0.488-1.193C51.125,18.804,51.109,19.144,51.109,19.4z M49.502,21.901
			c-0.284-0.036-0.524-0.063-0.738-0.081l0.353-0.121C49.232,21.759,49.342,21.82,49.502,21.901z M42.864,22.074
			c0,0.043,0.005,0.101,0.014,0.135l-0.061,0.023C42.826,22.178,42.839,22.133,42.864,22.074z"/>
	</g>
</g>
</svg>
